
<svg version="1.1" id="Layer_1" xmlns="http://www.w3.org/2000/svg" xmlns:xlink="http://www.w3.org/1999/xlink" x="0px" y="0px"
	 viewBox="0 0 1500 1500" enable-background="new 0 0 1500 1500" xml:space="preserve">
<g>
	<g>
		<g>
			<path fill="#30323D" d="M686.4,1056.5c-46.2,0-91-12.9-129.4-37.3c-13-8.2-18.8-23.7-14.5-38.4c4.3-14.8,17.4-24.8,32.6-24.8
				c1.5,0,3,0.1,4.5,0.3c7.1,0.9,14.6,1,22,0.4c-8.5-10.1-15.1-21.8-19.3-34.6c-1.5-4.4-2-9.1-1.6-13.6
				c-16.3-19-25.4-43.2-25.4-68.4c0-6.9,2-13.4,5.5-18.8c-9.2-28.1-5.9-59.1,9.7-85.8c6.1-10.5,17.5-17,29.6-17
				c10.2,0,19.8,4.5,26.4,12.4c23.2,28.1,54.3,47.8,89.2,56.8c2.2-9.9,5.9-19.5,11-28.3c9.7-16.9,24.4-31,42.3-40.6
				c16-8.6,33.9-13.2,51.8-13.2c25.4,0,49.7,9,69,25.6c0.6,0,1.1,0.1,1.7,0.1c4.7,0,10-1.7,16-5.3c0,0,0.1,0,0.1-0.1
				c5.3-3,11.2-4.7,17.2-4.7c18.9,0,34.3,15.4,34.3,34.3c0,27.4-16,53.3-32.2,70.1c-1.5,58.2-25.1,115.1-65.6,157.7
				C816.1,1030.5,754,1056.5,686.4,1056.5z M619,999.8c21.4,7.8,44.2,11.8,67.5,11.8c55.1,0,105.6-21.1,142.1-59.4
				c34.8-36.5,54.1-86.1,53.2-135.9c-0.1-6.7,2.8-13.2,7.9-17.5c7.1-6.1,14.5-15.3,19.3-24.9c-5.9,1.6-11.7,2.3-17.6,2.3
				c-6.1,0-12.2-0.9-18.3-2.6c-3.6-1-6.9-2.9-9.6-5.5c-11.6-11.3-26.8-17.5-42.8-17.5c-10.4,0-20.9,2.7-30.4,7.8
				c-21.2,11.4-33.2,31.9-32.1,55c0.3,6.6-2.3,13-7.2,17.5s-11.5,6.6-18,5.8c-49.8-6.1-95.3-28.7-129.7-64.4
				c-4.4,15-2.9,31,4.6,44.8c3.5,6.4,3.6,14,0.5,20.5c-1.7,3.6-4.4,6.7-7.6,8.9c1.6,15,9,29.1,20.8,39.3c4.8,4.1,7.6,10.1,7.8,16.4
				c0.1,3.7-0.7,7.3-2.3,10.5c6.3,14.7,18.2,26.5,33.3,32.7c8.2,3.4,13.6,11.3,13.9,20.2c0.2,8.9-4.8,17.1-12.8,20.9
				C647.8,992.8,633.6,997.3,619,999.8z"/>
		</g>
		<g>
			<g>
				<path fill="#5b2cff" d="M539.7,455.7H242.8V316.9c0-22.2,18-40.2,40.2-40.2h256.6V455.7z"/>
			</g>
			<g>
				<path fill="#30323D" d="M539.7,478.2H242.8c-12.4,0-22.5-10.1-22.5-22.5V316.9c0-34.6,28.1-62.7,62.7-62.7h256.6
					c12.4,0,22.5,10.1,22.5,22.5v179C562.2,468.1,552.1,478.2,539.7,478.2z M265.3,433.2h251.9v-134H283.1c-9.8,0-17.7,8-17.7,17.7
					V433.2z"/>
			</g>
			<g>
				<path fill="#30323D" d="M1257.2,478.2H609.8c-12.4,0-22.5-10.1-22.5-22.5v-179c0-12.4,10.1-22.5,22.5-22.5h607.1
					c34.6,0,62.7,28.1,62.7,62.7v138.8C1279.7,468.1,1269.6,478.2,1257.2,478.2z M632.3,433.2h602.4V316.9c0-9.8-8-17.7-17.7-17.7
					H632.3V433.2z"/>
			</g>
		</g>
		<g>
			<path fill="#30323D" d="M1216.9,1245.8H283.1c-34.6,0-62.7-28.1-62.7-62.7V538.7c0-12.4,10.1-22.5,22.5-22.5h1014.4
				c12.4,0,22.5,10.1,22.5,22.5v644.4C1279.7,1217.7,1251.5,1245.8,1216.9,1245.8z M265.3,561.2v621.9c0,9.8,8,17.7,17.7,17.7h933.9
				c9.8,0,17.7-8,17.7-17.7V561.2H265.3z"/>
		</g>
	</g>
	<g>
		<g>
			<g>
				<path fill="#30323D" d="M147.3,895.3c-6.6,0-13.2-2.9-17.7-8.5L32.4,764c-6.5-8.2-6.5-19.8,0-27.9l97.3-122.8
					c7.7-9.7,21.9-11.4,31.6-3.7c9.7,7.7,11.4,21.9,3.7,31.6L78.7,750l86.2,108.9c7.7,9.7,6.1,23.9-3.7,31.6
					C157.1,893.7,152.2,895.3,147.3,895.3z"/>
			</g>
			<g>
				<path fill="#30323D" d="M1352.7,895.3c-4.9,0-9.8-1.6-14-4.9c-9.7-7.7-11.4-21.9-3.7-31.6l86.2-108.9l-86.2-108.9
					c-7.7-9.7-6.1-23.9,3.7-31.6c9.7-7.7,23.9-6.1,31.6,3.7l97.3,122.8c6.5,8.2,6.5,19.8,0,27.9l-97.3,122.8
					C1365.9,892.4,1359.3,895.3,1352.7,895.3z"/>
			</g>
		</g>
	</g>
</g>
</svg>
