<svg version="1.1" id="Layer_1" xmlns="http://www.w3.org/2000/svg" xmlns:xlink="http://www.w3.org/1999/xlink" x="0px" y="0px"
	 viewBox="-6 7.3 46.7 46.7" style="enable-background:new -6 7.3 46.7 46.7;" xml:space="preserve">
<g>
	<g>
		<path style="fill:#5b2cff;" d="M37,15.8c0-2.7-2.2-4.8-4.8-4.8h-9.9h-9.7H2.7c-2.7,0-4.8,2.2-4.8,4.8l0,0c0,2.7,2.2,4.8,4.8,4.8
			h8.6c0.7,0,1.3,0.6,1.3,1.3v23.4c0,2.7,2.2,4.8,4.8,4.8l0,0c2.7,0,4.8-2.2,4.8-4.8V22c0-0.7,0.6-1.3,1.3-1.3h8.6
			C34.8,20.8,37,18.5,37,15.8L37,15.8z"/>
	</g>
	<g>
		<path style="fill:#30323D;" d="M17.4,51.9c-3.6,0-6.5-2.9-6.5-6.5V22.4H2.6c-3.6,0-6.5-2.9-6.5-6.5S-1,9.4,2.6,9.4h29.5
			c3.6,0,6.5,2.9,6.5,6.5s-2.9,6.5-6.5,6.5h-8.3v23.1C23.9,48.9,21,51.9,17.4,51.9z M2.6,12.6c-1.8,0-3.2,1.4-3.2,3.2S0.8,19,2.6,19
			h8.6c1.6,0,2.9,1.3,2.9,2.9v23.4c0,1.8,1.4,3.2,3.2,3.2s3.2-1.4,3.2-3.2V22c0-1.6,1.3-2.9,2.9-2.9H32c1.8,0,3.2-1.4,3.2-3.2
			s-1.4-3.2-3.2-3.2H2.6V12.6z"/>
	</g>
</g>
</svg>
