<?xml version="1.0" encoding="utf-8"?>
<!-- Generator: Adobe Illustrator 18.0.0, SVG Export Plug-In . SVG Version: 6.00 Build 0)  -->
<!DOCTYPE svg PUBLIC "-//W3C//DTD SVG 1.1//EN" "http://www.w3.org/Graphics/SVG/1.1/DTD/svg11.dtd">
<svg version="1.1" id="Layer_1" xmlns="http://www.w3.org/2000/svg" xmlns:xlink="http://www.w3.org/1999/xlink" x="0px" y="0px"
	 viewBox="0 0 1500 1500" enable-background="new 0 0 1500 1500" xml:space="preserve">
<g>
	<g>
		<path fill="#30323D" d="M363.4,812.1c0,7.3-4.1,10.9-12.3,10.9h-69.5c-8.4,0-12.5-3.6-12.5-10.9c0-7,4.2-10.5,12.5-10.5h21.4
			v-93.8L283.2,720c-1.9,1.1-3.6,1.6-5.1,1.6c-2.9,0-5.3-1.2-7.3-3.7c-2-2.5-3-5.2-3-8.2c0-4,1.8-7.1,5.3-9.3l31.9-19.7
			c4.1-2.5,8-3.7,11.7-3.7c3.8,0,6.9,1.2,9.3,3.5c2.3,2.3,3.5,5.5,3.5,9.7v111.5H351C359.2,801.6,363.4,805.1,363.4,812.1z"/>
	</g>
	<path fill="#5b2cff" d="M532.8,98.3v1303.4h434.5V98.3H532.8z M789.8,823.4h-78.1c-3.6,0-6.4-1.1-8.4-3.2c-2.1-2.1-3.1-4.8-3.1-7.9
		c0-4.1,1.6-7.8,4.7-11.1l46.9-50.4c5.8-6.3,10-12.1,12.6-17.4c2.7-5.3,4-10.5,4-15.7c0-6.4-1.9-11.4-5.6-14.8
		c-3.7-3.4-9-5.1-15.8-5.1c-5.6,0-11.1,1.1-16.3,3.2c-5.3,2.1-10.6,5-15.9,8.7c-1.4,1-2.7,1.7-4.1,2.4c-1.4,0.6-2.7,0.9-4.1,0.9
		c-2.3,0-4.4-1.1-6.1-3.3c-1.7-2.2-2.6-4.8-2.6-7.8c0-2.1,0.4-3.8,1.1-5.3c0.8-1.5,2-3,3.6-4.3c6-4.8,13.1-8.6,21.2-11.4
		c8.1-2.8,16.2-4.2,24.3-4.2c14.1,0,25.4,3.6,33.8,10.7s12.6,16.7,12.6,28.8c0,8.4-1.8,16.2-5.3,23.5c-3.6,7.3-9.6,15.5-18.1,24.6
		L735.5,802h54.3c8.2,0,12.3,3.5,12.3,10.5C802.1,819.8,798,823.4,789.8,823.4z"/>
	<g>
		<path fill="#30323D" d="M1228.8,760.6c4.6,6.1,6.9,13.7,6.9,22.7c0,12.5-4.6,22.4-13.8,29.8c-9.2,7.4-21.6,11.1-37.2,11.1
			c-8.9,0-17.5-1.4-25.7-4.1c-8.2-2.7-15.2-6.6-21-11.5c-3.2-2.7-4.7-6-4.7-9.7c0-3,0.9-5.6,2.6-7.7c1.7-2.1,3.7-3.2,6.1-3.2
			c1.4,0,2.6,0.2,3.7,0.7c1.1,0.5,2.6,1.3,4.5,2.4c5.8,3.8,11.2,6.8,16.5,8.8c5.2,2.1,10.9,3.1,17.1,3.1c9,0,15.8-1.8,20.2-5.4
			c4.4-3.6,6.6-9.2,6.6-16.6c0-7.3-2.3-12.7-6.9-16.2c-4.6-3.5-11.7-5.2-21.3-5.2h-11.7c-3.2,0-5.6-1.1-7.3-3.2
			c-1.7-2.1-2.6-4.6-2.6-7.3c0-2.9,0.9-5.3,2.6-7.4c1.7-2.1,4.1-3.1,7.3-3.1h8.2c18.8,0,28.2-7.1,28.2-21.2c0-6.6-2-11.7-6-15.2
			c-4-3.6-9.5-5.3-16.5-5.3c-10,0-20.7,4-32.1,11.9c-1.9,1.1-3.4,1.9-4.5,2.4c-1.1,0.5-2.3,0.7-3.7,0.7c-2.3,0-4.4-1.1-6.1-3.2
			c-1.7-2.1-2.6-4.7-2.6-7.7c0-2.1,0.4-3.8,1.1-5.2c0.8-1.4,2-2.9,3.6-4.4c5.8-4.8,12.6-8.6,20.7-11.4c8-2.8,16.2-4.2,24.6-4.2
			c14.3,0,25.6,3.5,34,10.5c8.4,7,12.6,16.3,12.6,28c-0.1,8-2.2,14.9-6.3,20.9c-4,6-9.7,10.3-17,13.1
			C1217.6,750.3,1224.2,754.5,1228.8,760.6z"/>
	</g>
	<g>
		<path fill="#30323D" d="M532.8,1424.2H140c-35.4,0-64.2-28.8-64.2-64.2V140c0-35.4,28.8-64.2,64.2-64.2h392.8
			c12.4,0,22.5,10.1,22.5,22.5v1303.4C555.3,1414.1,545.2,1424.2,532.8,1424.2z M140,120.8c-10.6,0-19.2,8.6-19.2,19.2v1220
			c0,10.6,8.6,19.2,19.2,19.2h370.3V120.8H140z"/>
	</g>
	<g>
		<path fill="#30323D" d="M967.2,1424.2H532.8c-12.4,0-22.5-10.1-22.5-22.5V98.3c0-12.4,10.1-22.5,22.5-22.5h434.5
			c12.4,0,22.5,10.1,22.5,22.5v1303.4C989.7,1414.1,979.7,1424.2,967.2,1424.2z M555.3,1379.2h389.5V120.8H555.3V1379.2z"/>
	</g>
	<g>
		<path fill="#30323D" d="M1360,1424.2H967.2c-12.4,0-22.5-10.1-22.5-22.5V98.3c0-12.4,10.1-22.5,22.5-22.5H1360
			c35.4,0,64.2,28.8,64.2,64.2v1220C1424.2,1395.4,1395.4,1424.2,1360,1424.2z M989.7,1379.2H1360c10.6,0,19.2-8.6,19.2-19.2V140
			c0-10.6-8.6-19.2-19.2-19.2H989.7V1379.2z"/>
	</g>
</g>
</svg>
