
<svg version="1.1" id="Layer_1" xmlns="http://www.w3.org/2000/svg" xmlns:xlink="http://www.w3.org/1999/xlink" x="0px" y="0px"
	 viewBox="0 0 1500 1500" enable-background="new 0 0 1500 1500" xml:space="preserve">
<g>
	<path fill="#5b2cff" d="M750,242.5L750,242.5c-280.3,0-507.5,227.2-507.5,507.5l0,0c0,280.3,227.2,507.5,507.5,507.5l0,0
		c280.3,0,507.5-227.2,507.5-507.5l0,0C1257.5,469.7,1030.3,242.5,750,242.5z M570.6,473.5c0-12.4,10.1-22.5,22.5-22.5h313.8
		c12.4,0,22.5,10.1,22.5,22.5v69.5c0,12.4-10.1,22.5-22.5,22.5s-22.5-10.1-22.5-22.5v-47H615.6v46c0,12.4-10.1,22.5-22.5,22.5
		s-22.5-10.1-22.5-22.5V473.5z M929.4,896.2v130.2c0,12.4-10.1,22.5-22.5,22.5H593.1c-12.4,0-22.5-10.1-22.5-22.5v-66.9
		c0-12.4,10.1-22.5,22.5-22.5s22.5,10.1,22.5,22.5v44.4h268.8V899.2h-78c-12.4,0-22.5-10.1-22.5-22.5s10.1-22.5,22.5-22.5h78V719.6
		c0-12.4,10.1-22.5,22.5-22.5s22.5,10.1,22.5,22.5v130.3c43.1-12.8,74.6-52.7,74.6-99.9c0-57.5-46.7-104.2-104.2-104.2H600.2
		C542.8,645.8,496,692.5,496,750s46.7,104.2,104.2,104.2h23.1l-1.6-1.4c-9.2-8.4-9.8-22.6-1.4-31.8c8.4-9.2,22.6-9.8,31.8-1.4
		l44.2,40.5c9,8.3,9.8,22.2,1.7,31.4l-38,43.3c-4.4,5.1-10.7,7.7-16.9,7.7c-5.3,0-10.6-1.8-14.8-5.6c-9.3-8.2-10.3-22.4-2.1-31.8
		l5.2-6h-31.3C518,899.2,451,832.3,451,750S518,600.8,600.2,600.8h299.5c82.3,0,149.2,66.9,149.2,149.2
		C1049,822.1,997.5,882.5,929.4,896.2z"/>
	<g>
		<path fill="#30323D" d="M750,1280c-71.5,0-140.9-14-206.3-41.7c-63.1-26.7-119.8-64.9-168.5-113.6
			c-48.7-48.7-86.9-105.3-113.6-168.5C234,891,220,821.5,220,750c0-71.5,14-140.9,41.7-206.3c26.7-63.1,64.9-119.8,113.6-168.5
			c48.7-48.7,105.3-86.9,168.5-113.6C609,234,678.5,220,750,220c71.5,0,140.9,14,206.3,41.7c63.1,26.7,119.8,64.9,168.5,113.6
			c48.7,48.7,86.9,105.3,113.6,168.5C1266,609,1280,678.5,1280,750c0,71.5-14,140.9-41.7,206.3c-26.7,63.1-64.9,119.8-113.6,168.5
			c-48.7,48.7-105.3,86.9-168.5,113.6C891,1266,821.5,1280,750,1280z M750,265c-267.4,0-485,217.6-485,485
			c0,267.4,217.6,485,485,485h0c267.4,0,485-217.6,485-485C1235,482.6,1017.4,265,750,265z"/>
	</g>
	<g>
		<path fill="#30323D" d="M1397.5,1472.5h-1295c-41.4,0-75-33.7-75-75v-1295c0-41.4,33.7-75,75-75h1295c41.4,0,75,33.7,75,75v1295
			C1472.5,1438.8,1438.8,1472.5,1397.5,1472.5z M102.5,72.5c-16.5,0-30,13.5-30,30v1295c0,16.5,13.5,30,30,30h1295
			c16.5,0,30-13.5,30-30v-1295c0-16.5-13.5-30-30-30H102.5z"/>
	</g>
</g>
</svg>
