
<svg version="1.1" id="Layer_1" xmlns="http://www.w3.org/2000/svg" xmlns:xlink="http://www.w3.org/1999/xlink" x="0px" y="0px"
	 viewBox="0 0 1500 1500" enable-background="new 0 0 1500 1500" xml:space="preserve">
<g>
	<g>
		<g>
			<path fill="#5b2cff" d="M502.3,330.3c75.3,120.4-51.6,247.2-172,172c-9.4-5.9-17.5-14-23.4-23.4c-75.3-120.4,51.6-247.2,172-172
				C488.3,312.8,496.4,320.9,502.3,330.3z"/>
		</g>
		<g>
			<polygon fill="#5b2cff" points="1095.4,976 1134.2,1054.6 1221,1067.2 1158.2,1128.4 1173,1214.8 1095.4,1174 1017.8,1214.8
				1032.6,1128.4 969.8,1067.2 1056.6,1054.6 			"/>
		</g>
	</g>
	<g>
		<path fill="#30323D" d="M1399.4,1463.3H100.6c-35.2,0-63.9-28.7-63.9-63.9V100.6c0-35.2,28.7-63.9,63.9-63.9h1298.8
			c35.2,0,63.9,28.7,63.9,63.9v1298.8C1463.3,1434.6,1434.6,1463.3,1399.4,1463.3z M100.6,81.7c-10.4,0-18.9,8.5-18.9,18.9v1298.8
			c0,10.4,8.5,18.9,18.9,18.9h1298.8c10.4,0,18.9-8.5,18.9-18.9V100.6c0-10.4-8.5-18.9-18.9-18.9H100.6z"/>
	</g>
	<g>
		<g>
			<path fill="#30323D" d="M750,1239.9c-12.4,0-22.5-10.1-22.5-22.5V282.6c0-12.4,10.1-22.5,22.5-22.5s22.5,10.1,22.5,22.5v934.8
				C772.5,1229.8,762.4,1239.9,750,1239.9z"/>
		</g>
		<g>
			<path fill="#30323D" d="M1217.4,772.5H282.6c-12.4,0-22.5-10.1-22.5-22.5s10.1-22.5,22.5-22.5h934.8c12.4,0,22.5,10.1,22.5,22.5
				S1229.8,772.5,1217.4,772.5z"/>
		</g>
	</g>
	<g>
		<g>
			<path fill="#30323D" d="M404.6,547.4c-29.6,0-58.6-8.8-86.2-26c-12.3-7.7-22.9-18.2-30.5-30.5c-16.3-26.1-25-53.5-25.9-81.5
				c-0.8-25.9,5.3-51.4,17.7-73.9c25.2-45.4,73.1-73.7,125-73.7c29.6,0,58.6,8.8,86.2,26c12.3,7.7,22.9,18.2,30.5,30.5
				c16.3,26.1,25,53.5,25.9,81.5c0.8,25.9-5.3,51.4-17.7,73.9C504.4,519.2,456.5,547.4,404.6,547.4z M404.6,306.8
				c-35.5,0-68.3,19.3-85.6,50.5c-18.4,33.2-15.8,73.2,7,109.7c4.1,6.5,9.7,12.1,16.2,16.2c20.4,12.7,41.3,19.2,62.4,19.2
				c35.5,0,68.3-19.3,85.6-50.5c18.4-33.2,15.8-73.2-7-109.7c-4.1-6.5-9.7-12.1-16.2-16.2C446.6,313.3,425.6,306.8,404.6,306.8z"/>
		</g>
		<g>
			<path fill="#30323D" d="M1236.3,549.1C1236.3,549.1,1236.3,549.1,1236.3,549.1H954.5c-8,0-15.5-4.3-19.5-11.3c-4-7-4-15.5,0-22.5
				l140.9-244c4-7,11.4-11.3,19.5-11.3s15.5,4.3,19.5,11.3l140.4,243.2c2.2,3.5,3.5,7.6,3.5,12.1
				C1258.8,539.1,1248.7,549.1,1236.3,549.1z M993.5,504.1h203.9l-101.9-176.5L993.5,504.1z"/>
		</g>
		<g>
			<path fill="#30323D" d="M524,1237.3H285.2c-12.4,0-22.5-10.1-22.5-22.5V976c0-12.4,10.1-22.5,22.5-22.5H524
				c12.4,0,22.5,10.1,22.5,22.5v238.9C546.5,1227.3,536.5,1237.3,524,1237.3z M307.7,1192.3h193.9V998.5H307.7V1192.3z"/>
		</g>
		<g>
			<path fill="#30323D" d="M1173,1237.3c-3.6,0-7.2-0.9-10.5-2.6l-67.1-35.3l-67.1,35.3c-7.6,4-16.8,3.3-23.7-1.7
				c-6.9-5-10.4-13.6-9-22l12.8-74.8l-54.3-53c-6.1-6-8.3-14.9-5.7-23.1s9.7-14.1,18.2-15.3l75.1-10.9l33.6-68
				c3.8-7.7,11.6-12.5,20.2-12.5s16.4,4.9,20.2,12.5l33.6,68l75.1,10.9c8.5,1.2,15.5,7.2,18.2,15.3s0.4,17.1-5.7,23.1l-54.3,53
				l12.8,74.8c1.4,8.4-2,17-9,22C1182.3,1235.9,1177.7,1237.3,1173,1237.3z M1095.4,1151.5c3.6,0,7.2,0.9,10.5,2.6l37.3,19.6
				l-7.1-41.5c-1.3-7.3,1.2-14.7,6.5-19.9l30.1-29.4l-41.7-6.1c-7.3-1.1-13.7-5.7-16.9-12.3l-18.6-37.8l-18.6,37.8
				c-3.3,6.6-9.6,11.2-16.9,12.3l-41.7,6.1l30.1,29.4c5.3,5.2,7.7,12.6,6.5,19.9l-7.1,41.5l37.3-19.6
				C1088.2,1152.4,1091.8,1151.5,1095.4,1151.5z"/>
		</g>
	</g>
</g>
</svg>
