
<svg version="1.1" id="Layer_1" xmlns="http://www.w3.org/2000/svg" xmlns:xlink="http://www.w3.org/1999/xlink" x="0px" y="0px"
	 viewBox="0 0 1500 1500" enable-background="new 0 0 1500 1500" xml:space="preserve">
<g>
	<g>
		<path fill="#5b2cff" d="M798.2,1103.6H241.4c-1.1,0-2-0.9-2-2V544.8c0-1.1,0.9-2,2-2h556.8c1.1,0,2,0.9,2,2v556.8
			C800.2,1102.8,799.3,1103.6,798.2,1103.6z"/>
	</g>
	<g>
		<path fill="#30323D" d="M1350.5,1472.5H149.5c-35.3,0-64-28.7-64-64V91.5c0-35.3,28.7-64,64-64h1201.1c35.3,0,64,28.7,64,64
			v1317.1C1414.5,1443.8,1385.8,1472.5,1350.5,1472.5z M149.5,72.5c-10.5,0-19,8.5-19,19v1317.1c0,10.5,8.5,19,19,19h1201.1
			c10.5,0,19-8.5,19-19V91.5c0-10.5-8.5-19-19-19H149.5z"/>
	</g>
	<g>
		<path fill="#30323D" d="M1260.6,423H239.4c-12.4,0-22.5-10.1-22.5-22.5V245.7c0-12.4,10.1-22.5,22.5-22.5h1021.2
			c12.4,0,22.5,10.1,22.5,22.5v154.8C1283.1,413,1273,423,1260.6,423z M261.9,378h976.2V268.2H261.9V378z"/>
	</g>
	<g>
		<path fill="#30323D" d="M798.2,1126.1H241.4c-13.5,0-24.5-11-24.5-24.5V544.9c0-13.5,11-24.5,24.5-24.5h556.8
			c13.5,0,24.5,11,24.5,24.5v556.8C822.7,1115.1,811.7,1126.1,798.2,1126.1z M261.9,1081.1h515.8V565.3H261.9V1081.1z"/>
	</g>
	<g>
		<path fill="#30323D" d="M1260.6,565.3H940.9c-12.4,0-22.5-10.1-22.5-22.5s10.1-22.5,22.5-22.5h319.7c12.4,0,22.5,10.1,22.5,22.5
			S1273,565.3,1260.6,565.3z"/>
	</g>
	<g>
		<path fill="#30323D" d="M1260.6,707.6H940.9c-12.4,0-22.5-10.1-22.5-22.5c0-12.4,10.1-22.5,22.5-22.5h319.7
			c12.4,0,22.5,10.1,22.5,22.5C1283.1,697.6,1273,707.6,1260.6,707.6z"/>
	</g>
	<g>
		<path fill="#30323D" d="M1260.6,849.9H940.9c-12.4,0-22.5-10.1-22.5-22.5s10.1-22.5,22.5-22.5h319.7c12.4,0,22.5,10.1,22.5,22.5
			S1273,849.9,1260.6,849.9z"/>
	</g>
	<g>
		<path fill="#30323D" d="M1260.6,992.2H940.9c-12.4,0-22.5-10.1-22.5-22.5s10.1-22.5,22.5-22.5h319.7c12.4,0,22.5,10.1,22.5,22.5
			S1273,992.2,1260.6,992.2z"/>
	</g>
	<g>
		<path fill="#30323D" d="M1260.6,1134.5H940.9c-12.4,0-22.5-10.1-22.5-22.5s10.1-22.5,22.5-22.5h319.7c12.4,0,22.5,10.1,22.5,22.5
			S1273,1134.5,1260.6,1134.5z"/>
	</g>
	<g>
		<path fill="#30323D" d="M1260.6,1276.8H239.4c-12.4,0-22.5-10.1-22.5-22.5s10.1-22.5,22.5-22.5h1021.2c12.4,0,22.5,10.1,22.5,22.5
			S1273,1276.8,1260.6,1276.8z"/>
	</g>
</g>
</svg>
