<svg xmlns="http://www.w3.org/2000/svg" xmlns:xlink="http://www.w3.org/1999/xlink" viewBox="0 0 166.14 267.32"><defs><style>.cls-1{fill:url(#linear-gradient);}.cls-2{fill:url(#linear-gradient-2);}</style><linearGradient id="linear-gradient" y1="56.26" x2="134.12" y2="56.26" gradientUnits="userSpaceOnUse"><stop offset="0" stop-color="#fff"/><stop offset="1" stop-color="#d4d4d4"/></linearGradient><linearGradient id="linear-gradient-2" x1="0" y1="184.24" x2="166.14" y2="184.24" xlink:href="#linear-gradient"/></defs><g id="Layer_2" data-name="Layer 2"><g id="Layer_1-2" data-name="Layer 1"><path class="cls-1" d="M1.64,84.67a20.33,20.33,0,0,1,18,14.74,25.28,25.28,0,0,1,3.39-.24h60a84.57,84.57,0,0,1,45.66,13.35A83.08,83.08,0,0,0,51.05,0h-28A23.07,23.07,0,0,0,0,23.07V84.62C.54,84.62,1.09,84.63,1.64,84.67ZM71.81,53.29a7.81,7.81,0,0,1,5.88,2.57,7,7,0,0,0,5.22,2.24,6.92,6.92,0,0,0,5.18-2.34,7.81,7.81,0,0,1,6.21-2.7,7.84,7.84,0,0,1,5,13.65,7,7,0,0,0-2.22,5.22v.2A6.94,6.94,0,0,0,99.4,77.3,7.84,7.84,0,1,1,89,77.4a7,7,0,0,0,2.22-5.22V72a7.12,7.12,0,0,0-2.42-5.23c-.18-.16-.35-.33-.51-.5A7.17,7.17,0,0,0,83,63.94h0a6.92,6.92,0,0,0-5.17,2.33,7.84,7.84,0,1,1-6-13Z"/><path class="cls-2" d="M83.07,101.17h-60a22.15,22.15,0,0,0-2.95.2,18.86,18.86,0,0,1,.3,2.52A20.17,20.17,0,0,1,13.62,120a17.88,17.88,0,0,0-5.88,13.41v.4a18.76,18.76,0,0,0,6.19,13.76c.42.4.83.81,1.22,1.23a18.39,18.39,0,0,0,13.58,6.11h0A17.9,17.9,0,0,0,42.14,149a20.24,20.24,0,1,1,0,26.88,18.18,18.18,0,0,0-26.83,0A20.18,20.18,0,0,1,0,182.69v61.56a23.07,23.07,0,0,0,23.07,23.07h60a83.08,83.08,0,0,0,83.07-83.08h0A83.07,83.07,0,0,0,83.07,101.17Z"/></g></g></svg>