<svg xmlns="http://www.w3.org/2000/svg" width="16" height="14.753" viewBox="0 0 16 14.753">
  <g id="imac" transform="translate(50 -6.333)">
    <path id="Path_26" data-name="Path 26" d="M14.667,21.333H1.333A1.339,1.339,0,0,0,0,22.674v9.388A1.339,1.339,0,0,0,1.333,33.4H6A3.044,3.044,0,0,1,5.5,35.2a.653.653,0,0,1-.5.217.335.335,0,0,0,0,.671h6a.335.335,0,0,0,0-.671.651.651,0,0,1-.5-.217,3.05,3.05,0,0,1-.5-1.8h4.668A1.339,1.339,0,0,0,16,32.063V22.674A1.339,1.339,0,0,0,14.667,21.333ZM8,32.735a.672.672,0,0,1-.669-.673,1.205,1.205,0,0,1,.208-.487A1.147,1.147,0,0,1,8,31.39a.673.673,0,0,1,0,1.345ZM1.333,30.721V22.674H14.667v8.047Z" transform="translate(-50 -15)" fill="#c2cbd2"/>
  </g>
</svg>
