<svg width="250" height="35" viewBox="0 0 250 35" fill="none" xmlns="http://www.w3.org/2000/svg">
<path d="M247.434 18.1885C248.048 18.4574 248.859 18.4096 249.627 18.4096C249.627 18.4156 249.846 18.4873 250 18.5411L249.649 18.7264C249.499 18.8047 249.249 18.8655 248.946 18.8974C248.644 18.9293 248.309 18.9301 248.004 18.8998C247.653 18.8878 247.543 18.7503 246.951 18.7384C246.359 18.7264 246.666 18.9894 246.359 19.0671C245.635 19.2285 244.802 19.0791 244.056 19.1568C243.661 19.1986 243.771 19.3062 243.946 19.4078C244.026 19.4364 244.086 19.4689 244.122 19.5035C244.166 19.617 244.21 19.8023 243.881 19.8023C242.608 19.8561 241.599 20.2088 240.415 20.3642C239.886 20.4137 239.447 20.5163 239.187 20.6511C239.033 20.7586 239.362 20.9858 239.494 21.1531C239.652 21.4579 239.419 21.7682 238.836 22.0318C237.937 22.5009 237.52 23.0275 237.63 23.5559C237.651 23.5858 237.476 23.6217 237.476 23.6516C237.169 23.8249 237.213 23.9026 237.783 23.9504C238.258 24.0117 238.701 24.0901 239.099 24.1835C239.219 24.2105 239.315 24.2442 239.381 24.2825C239.447 24.3207 239.481 24.3624 239.481 24.4047C239.481 24.4469 239.447 24.4887 239.381 24.5269C239.315 24.5652 239.219 24.5989 239.099 24.6258C238.058 24.8567 237.244 25.1546 236.73 25.4925C236.292 25.7017 236.664 26.0544 237.41 26.0902C237.683 26.104 237.94 26.1349 238.161 26.1806C238.382 26.2263 238.56 26.2854 238.682 26.3532L238.703 26.3573C238.845 26.3848 238.941 26.4032 238.836 26.4489C238.726 26.4967 238.595 26.5744 238.463 26.5744C238.119 26.5975 237.76 26.5976 237.417 26.5747C237.073 26.5518 236.755 26.5066 236.489 26.4429C236.204 26.3592 235.568 26.5983 235.634 26.7418C235.699 26.8852 236.094 26.9868 235.458 27.0645C234.822 27.1422 234.954 27.2319 235.195 27.3454C235.436 27.459 235.677 27.5726 235.897 27.6921C234.866 28.0567 235.941 28.6425 235.063 29.025C234.866 29.1087 234.69 29.1446 235.173 29.1864C235.656 29.2282 236.27 29.2103 236.643 29.2282C237.015 29.2462 237.191 29.4076 237.191 29.5809C237.103 29.9216 235.831 30.3818 235.348 30.3878C234.866 30.3938 234.427 30.1487 233.879 30.4237C233.55 30.603 232.87 30.6628 232.453 30.8182C232.092 30.9793 231.595 31.1147 231.004 31.2134C230.413 31.3121 229.745 31.3713 229.054 31.386C228.461 31.386 227.935 31.6609 227.277 31.386C227.123 31.3202 226.597 31.4039 226.597 31.5294C226.115 32.0853 225.018 32.1451 223.921 32.2826C223.329 32.0136 222.956 32.2108 222.561 32.3842C222.496 32.4081 222.583 32.4141 222.32 32.4559C222.057 32.4977 221.662 32.5456 221.53 32.4977C220.894 32.2587 219.907 32.3364 219.337 32.3124C218.767 32.2885 218.175 32.3364 217.648 32.1869C217.123 32.0378 217.056 32.0792 216.511 32.4181L216.508 32.42C216.332 32.4977 216.091 32.5157 216.091 32.42C215.937 32.0614 215.608 32.1272 214.972 32.2706C214.218 32.457 213.226 32.5556 212.209 32.5455C209.072 32.5037 205.914 32.5455 202.755 32.5455C201.9 32.5455 201.001 32.4977 200.233 32.7129C199.729 32.5455 199.224 32.4738 198.654 32.683C198.588 32.7069 198.193 32.6771 198.193 32.6352C197.557 32.3125 196.987 32.2587 196 32.4977C195.336 32.6717 194.468 32.7762 193.549 32.7926C192.63 32.809 191.719 32.7363 190.977 32.5874C190.539 32.5276 190.495 32.5216 189.924 32.6472C189.362 32.7709 189.333 32.7552 188.765 32.4512L188.74 32.438C188.615 32.389 188.459 32.3465 188.279 32.3124C188.235 32.3066 188.186 32.3036 188.137 32.3036C188.087 32.3036 188.039 32.3066 187.994 32.3124C187.936 32.3183 187.883 32.3278 187.841 32.3402C187.798 32.3526 187.767 32.3676 187.75 32.384C187.733 32.4003 187.73 32.4175 187.742 32.4341C187.754 32.4508 187.78 32.4664 187.819 32.4798C188.104 32.6292 188.192 32.7667 187.556 32.7667C187.356 32.7818 187.143 32.7789 186.949 32.7585C186.756 32.738 186.591 32.7011 186.481 32.6531C185.647 32.3244 185.691 32.3065 184.902 32.5575C184.112 32.8086 183.476 32.8683 182.708 32.6412C182.489 32.5754 182.05 32.5336 181.919 32.5754C181.48 32.7308 181.019 32.6591 180.69 32.5754C180.361 32.4918 179.901 32.5754 179.813 32.7667C179.725 32.958 179.484 33.0895 178.98 32.958C178.475 32.8265 178.168 32.8922 177.708 32.958C176.786 33.1074 176.567 32.9819 176.26 32.5097C176.172 32.3423 175.997 32.3124 175.734 32.4081L174.659 32.8205C174.527 32.8743 174.352 32.958 174.198 32.958C172.465 33.0177 170.689 33.1731 169.241 32.6053C169.145 32.535 169.064 32.4632 169 32.3902C168.912 32.3304 168.649 32.3603 168.649 32.4619C168.561 32.7069 168.035 32.7966 167.64 32.7787C167.245 32.7607 166.763 32.7966 166.5 32.7129C165.666 32.42 165.118 32.5515 164.548 32.8444C164.438 32.8982 164.24 32.9221 164.087 32.964L163.67 32.6591L163.407 32.3543C163.242 32.4013 163.088 32.4512 162.946 32.5037L162.934 32.5091C162.523 32.6921 162.173 32.8478 161.565 32.5814C161.433 32.5396 161.038 32.5396 160.753 32.5396H160.753C160.687 32.426 160.512 32.3603 160.227 32.3304C159.941 32.3005 159.569 32.2706 159.371 32.3304C158.845 32.4697 158.395 32.6287 158.033 32.8026C157.631 32.9757 157.413 32.926 156.924 32.8147L156.871 32.8026C156.344 32.683 156.125 32.8265 155.643 33.0297C155.16 33.2329 154.48 33.2389 154.129 33.0835C153.778 32.9281 153.296 33.0237 153.076 33.0835C152.857 33.1433 152.418 33.2269 152.309 33.1851C151.563 32.9281 150.949 32.9341 150.225 33.1851C150.071 33.2269 149.655 33.1851 149.37 33.1851C149.008 33.2055 148.632 33.1966 148.289 33.1594C147.946 33.1223 147.651 33.0584 147.439 32.9759C146.847 33.1074 146.255 33.2449 145.663 33.3704C145.487 33.3704 145.202 33.4063 145.093 33.3704C144.062 33.0118 142.833 33.1732 141.693 33.1732C141.486 33.1758 141.28 33.1646 141.093 33.1407C140.906 33.1167 140.743 33.0807 140.618 33.0357C140.158 32.8564 139.631 32.9879 139.324 33.0775C139.017 33.1672 139.083 32.958 138.6 32.9938C138.118 33.0297 138.206 33.3943 137.745 33.3764C137.284 33.3584 136.955 33.1971 136.407 33.209C135.859 33.221 135.464 33.4899 134.806 33.4063C134.624 33.3799 134.455 33.3478 134.301 33.3106C134.388 33.2628 134.498 33.2185 134.63 33.1791C134.784 33.1373 135.025 33.1313 135.135 33.0835C135.246 33.016 135.291 32.9419 135.266 32.8683C135.244 32.7787 135.047 32.7249 134.894 32.7787C134.729 32.8331 134.521 32.8765 134.285 32.9055C134.049 32.9345 133.792 32.9484 133.534 32.946C132.788 32.946 133.007 33.3644 132.371 33.4063C131.735 33.4481 131.318 33.2987 130.792 33.2329C130.244 33.472 129.498 33.3644 128.862 33.4362C128.268 33.4838 127.636 33.4838 127.041 33.4362C126.493 33.4362 125.901 33.5676 125.287 33.4362C125.097 33.4145 124.886 33.4115 124.69 33.4279C124.493 33.4443 124.324 33.4789 124.212 33.5258C123.532 33.9263 122.699 33.7888 122.019 33.6035C121.339 33.4182 120.768 33.4899 120.198 33.6035C119.628 33.7171 119.058 33.6394 118.18 33.6573C117.303 33.6752 116.448 33.5796 115.614 33.8067C115.307 33.8964 114.759 33.5796 114.342 33.6872C113.925 33.7948 113.596 33.8725 113.004 33.8725C112.412 33.8725 111.907 33.6513 111.205 33.8725C110.811 33.9621 110.043 33.8725 109.473 33.8725H107.389C106.805 33.8605 106.218 33.8605 105.634 33.8725C105.233 33.8932 104.857 33.9404 104.538 34.01C104.143 34.1175 103.924 34.1654 103.485 34.01C103.046 33.8545 102.608 33.8605 102.169 34.01C102.103 34.0339 101.928 34.0697 101.928 34.0697C100.875 33.7111 99.822 33.8665 98.6815 34.0697C98.0235 34.1833 97.1242 34.0996 96.3346 34.0996C94.229 34.1355 92.0796 33.9502 89.9959 34.255C89.3379 33.9801 88.8115 34.1833 88.1754 34.2969C87.9984 34.3225 87.7956 34.3317 87.5977 34.3231C87.3998 34.3144 87.2176 34.2884 87.0788 34.249C86.5085 34.0936 86.0479 34.0697 85.4995 34.249C85.3884 34.2769 85.2561 34.2978 85.1121 34.3102C84.9681 34.3226 84.8158 34.3262 84.6661 34.3208H78.0861C77.7802 34.3261 77.4738 34.3127 77.1893 34.2817C76.9047 34.2507 76.6491 34.2028 76.441 34.1414C75.9366 34.01 75.2786 34.0398 74.8399 34.249C74.689 34.3436 74.4362 34.4234 74.1149 34.4778C73.7937 34.5323 73.4193 34.5588 73.0414 34.5539C70.9797 34.518 68.9179 34.5539 66.8562 34.5539C66.48 34.5564 66.1093 34.5288 65.7897 34.4747C65.4702 34.4205 65.2158 34.3421 65.0576 34.249C64.3338 33.9442 64.29 34.3626 64.2022 34.4164C64.1145 34.4702 63.8294 34.512 63.7197 34.512C63.4784 34.4532 63.1661 34.4207 62.8424 34.4207C62.5186 34.4207 62.2063 34.4532 61.965 34.512C61.8554 34.5359 61.7457 34.5359 61.4386 34.4403C61.1315 34.3447 61.1096 34.1952 60.5613 34.1414C60.013 34.0877 60.2981 34.3746 60.013 34.4463C59.8637 34.4836 59.6828 34.5103 59.4865 34.524C59.0259 34.5539 58.6311 34.4523 58.0828 34.6017C57.5345 34.7511 57.3152 34.7093 56.8984 34.524C56.4817 34.3387 56.043 34.1893 55.4069 34.4164C55.3071 34.4588 55.1752 34.4949 55.0199 34.5222C54.8646 34.5496 54.6896 34.5675 54.5067 34.5749C54.3238 34.5822 54.1373 34.5789 53.9596 34.5649C53.782 34.551 53.6173 34.5268 53.4768 34.4941C51.8757 34.0996 50.4939 34.3208 49.0901 34.6077C48.9147 34.6435 49.0682 34.6794 48.5856 34.7332C48.1031 34.787 47.5109 34.8228 47.2039 34.6555C46.6555 34.3387 45.7782 34.255 45.0105 34.0996C44.87 34.0675 44.7063 34.0437 44.5301 34.0299C44.3539 34.016 44.169 34.0123 43.9872 34.0191C43.8055 34.0258 43.6309 34.0429 43.4747 34.0691C43.3186 34.0953 43.1842 34.1301 43.0804 34.1713C43.0804 34.5598 42.0934 34.4941 41.6766 34.6914C41.4573 34.793 41.1064 34.7989 40.887 34.7272C40.694 34.6605 40.4509 34.6058 40.1741 34.5667C39.8973 34.5276 39.5931 34.505 39.2817 34.5005C38.9704 34.496 38.6591 34.5096 38.3686 34.5404C38.0781 34.5713 37.815 34.6187 37.597 34.6794C37.3996 34.7153 37.29 34.7212 37.0926 34.6495C36.6539 34.4821 36.1713 34.5479 35.8424 34.6854C35.5133 34.8228 35.0747 35.0858 34.658 34.9723C33.5174 34.6734 32.333 34.8886 31.3241 34.6734C30.8854 34.5838 30.6661 34.6316 30.3371 34.7033L30.3371 34.7033C30.2506 34.73 30.1443 34.7514 30.0252 34.7661C29.9061 34.7807 29.7769 34.7883 29.6462 34.7883C29.5155 34.7883 29.3863 34.7807 29.2671 34.7661C29.148 34.7514 29.0417 34.73 28.9553 34.7033C28.5166 34.5658 28.4069 34.4283 27.6612 34.6615C26.9155 34.8946 26.2355 34.8527 25.5775 34.5718C25.1389 34.3865 25.1169 34.4104 24.5686 34.6854C24.5232 34.7094 24.4538 34.7294 24.3684 34.7432C24.283 34.7569 24.1852 34.7638 24.086 34.7631C23.9857 34.7592 23.8906 34.7484 23.8099 34.7316C23.7293 34.7149 23.6658 34.6928 23.6255 34.6674C23.5675 34.5926 23.5675 34.5152 23.6255 34.4403C23.6035 34.2789 23.5377 34.0877 23.0771 34.0877C22.2656 34.0996 21.8927 33.9382 21.6076 33.6573C21.4321 33.484 21.0373 33.4601 21.8708 33.3525C22.7043 33.2449 23.121 33.0118 22.9894 32.6472H22.7481C22.1559 32.7667 21.6295 33.1253 21.1251 33.0775C20.6206 33.0297 20.2038 32.8026 19.7432 32.6711C19.6116 32.6352 19.3923 32.6412 19.1949 32.6711C18.9975 32.701 18.9975 32.7667 19.1949 32.8444C19.4196 32.9264 19.6247 33.0123 19.809 33.1014C19.8598 33.1625 19.8964 33.2244 19.9187 33.2867C19.1291 33.2688 18.5589 33.8187 17.5938 33.4362C17.4183 33.3525 17.0674 33.3525 16.8042 33.3525C16.6169 33.3382 16.4336 33.3202 16.2558 33.2987C16.0584 33.2807 15.9268 33.0476 16.0584 32.9938C16.2868 32.8443 16.6673 32.7157 17.1551 32.6233C17.5461 32.5581 17.8646 32.4651 18.0763 32.3543C18.2249 32.2538 18.2923 32.1457 18.2737 32.0375C18.2737 31.9957 17.9666 31.9239 17.8131 31.9239H14.874H13.4264C13.3387 31.9239 13.1852 31.8642 13.1852 31.8642C13.2181 31.7994 13.2924 31.7367 13.4045 31.6789C13.6677 31.5593 13.9747 31.4816 14.4134 31.4816C15.3127 31.5294 16.0146 31.3621 16.6068 31.0692C16.7327 31.0314 16.8909 31.0027 17.0674 30.9855C17.0016 30.9198 16.9796 30.8361 16.848 30.8002C15.9049 30.5313 14.6986 30.5432 13.7116 30.2982C13.4045 30.2264 12.9878 30.3519 12.9878 30.5552C12.9878 30.6329 13.0316 30.7464 12.9878 30.7943C12.9439 30.8421 12.7684 30.8779 12.6368 30.9198C12.5569 30.8912 12.4973 30.8587 12.4613 30.8241C12.3736 30.6747 12.4614 30.4595 12.242 30.3878C11.5621 30.1965 10.6628 30.2862 10.0487 30.0531C9.98289 30.0292 9.74161 30.0471 9.52228 30.1069C9.30294 30.1667 9.41261 30.334 8.79847 30.1667C8.18434 29.9993 7.28506 29.9515 7.59213 29.4972C7.69327 29.3981 7.65486 29.2923 7.48443 29.2005C7.314 29.1087 7.02385 29.0376 6.67093 29.0011C6.49546 28.9772 6.53933 28.8517 6.80253 28.8517C7.59213 28.7859 7.65795 28.5528 7.30702 28.3616C6.95608 28.1703 7.52633 28.0986 7.52633 27.973C7.636 27.716 7.78953 27.4351 6.73673 27.3753C6.47353 27.3574 6.36386 27.1721 6.73673 26.9808C7.1096 26.7896 7.28509 26.7955 7.72376 27.0346C7.89922 27.1303 8.14046 27.1542 8.14046 27.0645C8.26633 26.8842 8.52575 26.7128 8.90286 26.5607C9.27996 26.4086 9.76684 26.279 10.3338 26.1799C10.8602 26.0962 10.9041 25.7316 11.6717 25.642C12.1323 25.5941 11.8691 25.3849 11.6717 25.2415C11.2835 24.93 11.5103 24.8786 11.8933 24.7917L11.913 24.7872C12.3078 24.6976 12.7245 24.6199 13.1413 24.5362V24.3091C13.0755 24.1477 12.593 24.0042 12.3517 24.076C11.9551 24.1961 11.5817 24.3218 11.2331 24.4525C10.8821 24.578 10.2022 24.5242 10.1145 24.5242H10.1145C10.0268 24.5242 10.0267 24.5242 9.87322 24.4704C9.71969 24.4167 9.76355 24.3569 10.0048 24.3091C10.2461 24.2612 10.7067 24.2015 10.7067 24.1537C10.619 23.5559 11.5402 23.5201 12.6149 23.5559C13.0011 23.5679 13.3911 23.5679 13.7774 23.5559C14.1064 23.544 14.3257 23.4603 14.3257 23.3288C14.3939 23.2623 14.4896 23.1982 14.6108 23.1375C15.3566 23.4782 16.5848 23.2571 17.3744 23.4424C18.164 23.6277 18.7782 23.4543 19.0414 23.0897V22.8506C19.0266 22.763 19.1006 22.6759 19.2554 22.5989C19.4101 22.522 19.6396 22.4581 19.9187 22.4143C21.0203 22.3265 22.0184 22.1616 22.8139 21.9361C23.757 22.2529 23.6474 21.6851 24.086 21.6851C25.2485 21.6313 26.2355 21.3265 27.4419 21.3982C27.5296 21.4042 27.8586 21.2966 27.7709 21.2667C27.6831 21.2368 27.5296 21.195 27.5296 21.195C27.341 21.1858 27.1479 21.1858 26.9593 21.195C26.3673 21.1651 25.7752 21.1651 25.2051 21.1651H25.2046C25.0519 21.1627 24.9037 21.15 24.7735 21.128C24.6433 21.1061 24.5352 21.0757 24.4589 21.0396C24.344 20.9371 24.2994 20.8297 24.3273 20.7228C22.8358 20.7347 21.5856 21.1053 20.138 21.2069C19.3704 21.2607 18.7562 21.5656 18.4272 21.8943C18.237 21.9082 18.0376 21.9099 17.8446 21.8992C17.6516 21.8885 17.4703 21.8657 17.3151 21.8327C17.1599 21.7996 17.035 21.7572 16.9501 21.7088C16.8652 21.6604 16.8228 21.6073 16.8261 21.5536C16.7164 21.1233 15.8391 20.7885 16.0584 20.3283C16.1373 20.2004 16.1217 20.0695 16.0125 19.9432C15.9032 19.817 15.7026 19.6979 15.4224 19.5931C14.9965 19.4778 14.6711 19.3379 14.4699 19.1838C14.2687 19.0297 14.1969 18.8652 14.2599 18.7025L14.2409 18.6931C13.7602 18.4549 13.1125 18.1339 12.5929 18.0749C12.0665 18.0151 11.7814 17.8657 11.4305 17.7402C11.1856 17.6792 11.0024 17.6021 10.8987 17.5163C10.7949 17.4304 10.7742 17.3387 10.8383 17.2501C10.9918 17.1066 11.7814 17.1066 11.8692 17.1066H12.1543C12.3064 17.0526 12.4047 16.9888 12.4394 16.9213C12.4836 16.8515 12.4371 16.7796 12.3078 16.7181C11.913 16.6105 11.2989 16.5029 11.0576 16.4372C10.8163 16.3714 10.1803 16.497 10.3777 16.216C10.454 16.1197 10.5642 16.0257 10.7067 15.9351H9.56615C9.12982 15.6202 8.59411 15.3162 7.96503 15.0266C7.63603 14.8951 6.99994 14.8652 7.32894 14.6261C7.36411 14.5901 7.43499 14.5574 7.53379 14.5316C7.6326 14.5058 7.75554 14.4879 7.88915 14.4799C8.02277 14.4718 8.16193 14.474 8.29137 14.4861C8.42081 14.4982 8.53552 14.5197 8.623 14.5484C9.281 14.7576 9.65389 14.662 9.98289 14.4348C10.2659 14.2299 10.5004 14.0203 10.6847 13.8072C10.7505 13.7534 10.5312 13.6698 10.5312 13.598C10.4431 13.6084 10.3617 13.6225 10.29 13.6399L9.19329 13.9746C8.62302 13.7594 8.33789 13.861 8.33789 14.118C8.29402 14.2256 8.11855 14.2376 7.92115 14.1838C7.70435 14.1307 7.47739 14.0809 7.24122 14.0344C7.61409 13.7475 7.7018 13.3829 8.6888 13.2633C8.97393 13.2155 9.03974 13.0422 8.97394 12.8389C8.90814 12.6357 8.71073 12.6058 8.14046 12.5939C7.5702 12.5819 6.95606 12.6477 6.49546 12.4325C6.34193 12.3727 6.21032 12.4026 6.01292 12.4684C5.39879 12.6955 4.85046 12.4803 4.54339 12.3428C4.23632 12.2054 4.58727 12.1396 4.76274 12.1157C4.9382 12.0918 5.24527 12.0559 5.24527 12.0261C5.26721 11.8706 4.98207 11.8706 4.69694 11.8706H3.81958C3.73601 11.8723 3.65209 11.8694 3.57262 11.8621C3.49316 11.8549 3.41974 11.8434 3.35656 11.8284C3.29338 11.8135 3.2417 11.7952 3.20448 11.7747C3.16726 11.7543 3.14522 11.732 3.13965 11.7093C3.02999 11.5359 3.24933 11.4224 3.73186 11.3925C3.8854 11.3865 4.017 11.3088 4.1486 11.267C3.99701 11.2257 3.82763 11.1895 3.64415 11.1594C3.45472 11.1532 3.26328 11.1532 3.07386 11.1594C2.97975 11.1645 2.88285 11.1645 2.78874 11.1594C2.64914 11.1208 2.55239 11.0723 2.50969 11.0194C2.467 10.9665 2.4801 10.9114 2.54748 10.8605C2.78874 10.6872 3.00808 10.5437 2.54748 10.3704C2.67908 10.3286 2.92034 10.2568 2.92034 10.2568C3.66607 10.3046 4.43374 10.5377 5.11368 10.4959C5.79361 10.4541 6.67095 10.3644 7.30702 10.6453L9.14941 10.4301C9.23715 10.4182 9.4565 10.3823 9.36876 10.3525C9.28103 10.3226 9.14941 10.2688 9.14941 10.2688C8.73268 10.197 8.18433 10.0297 7.8992 10.0835C7.15346 10.2329 6.64901 10.3465 6.47354 9.89221C6.43553 9.85966 6.37607 9.82928 6.29807 9.80256C5.68393 9.96991 5.09175 10.0655 4.49955 9.80256C3.31514 10.2269 2.17459 9.91612 0.99019 9.80256C0.485722 9.74876 0.0251158 9.72485 0.0251158 9.46784C-0.0407601 9.34669 0.0236122 9.22292 0.21046 9.11154C0.397308 9.00016 0.698612 8.90593 1.07791 8.84024C1.20795 8.81978 1.35547 8.809 1.50563 8.809C1.65578 8.809 1.80331 8.81978 1.93334 8.84024C2.15268 8.88208 2.26231 9.01357 2.41585 9.10322C2.76678 9.31242 3.20545 9.34232 3.51252 9.15703C3.64822 9.05968 3.75819 8.95981 3.84154 8.85818L4.67502 9.18691C4.59702 9.21364 4.53755 9.24402 4.49955 9.27656C4.44301 9.33962 4.39905 9.40348 4.36792 9.46784C4.54339 9.51565 4.74079 9.5276 4.91625 9.51565C5.09172 9.50369 5.24526 9.44991 5.39879 9.39611C6.10066 9.12714 6.05681 9.01358 5.24527 8.7984C5.11516 8.77311 5.00557 8.74077 4.92338 8.70342C4.84119 8.66607 4.78817 8.62449 4.76759 8.5813C4.74701 8.53811 4.75931 8.49423 4.80377 8.45239C4.84822 8.41056 4.92384 8.37166 5.02593 8.33815L5.64006 8.08114V7.88986C5.50846 7.36388 5.44267 7.39378 6.47354 7.36389C7.50441 7.33401 8.62301 7.49538 9.58808 7.19055C10.2461 7.39975 10.7286 7.2563 11.3208 7.1009C11.913 6.94549 12.571 7.0471 12.8342 7.1009C13.0974 7.15469 13.4703 7.07698 13.4703 6.94548C13.5265 6.89417 13.5252 6.83945 13.4666 6.78834C13.408 6.73723 13.2947 6.69204 13.1413 6.65858C12.9 6.60478 12.4175 6.54502 12.4175 6.50318C12.5491 5.90547 11.606 5.90547 10.597 5.90547C10.3996 5.52293 11.277 5.2958 11.4524 4.96705C11.4876 4.83521 11.6475 4.70811 11.9166 4.59812C12.1856 4.48813 12.5547 4.399 12.9878 4.33945C13.4493 4.26379 13.8763 4.17351 14.2599 4.07048C14.6766 3.96887 14.9617 4.04657 15.3346 4.11829C16.3216 4.30359 16.3655 4.30359 17.0893 3.91507C17.3744 3.7776 17.5718 3.8553 17.7692 3.91507C18.2956 4.07646 18.5808 4.07647 18.9975 3.81347C19.4143 3.55048 19.7652 3.2038 20.0503 2.98862C20.3354 2.77345 20.9934 2.58217 21.3444 2.55229C21.6953 2.5224 21.805 2.50447 21.4979 2.31321C21.1909 2.12194 21.5198 2.10998 21.783 2.12193C22.0462 2.13389 22.2875 2.21757 22.5726 2.25343C23.5377 2.38493 24.2396 2.29527 24.5686 2.00837C24.8976 1.72146 25.2485 1.56607 26.0381 1.60791C26.4302 1.62585 26.8305 1.62585 27.2225 1.60791C27.9244 1.57802 28.2753 1.70353 28.4508 1.9725C28.5166 2.09802 28.6921 2.11596 28.8237 1.9725C28.9553 1.82905 28.8456 1.69756 29.4817 1.63779C30.1177 1.57801 30.6222 1.80514 31.0609 1.78123C31.4996 1.75732 31.8943 1.48837 32.3549 1.72147C32.8155 1.95458 33.1665 1.57204 33.5393 1.72147C33.6908 1.7792 33.8982 1.82431 34.1384 1.85175C34.3785 1.8792 34.642 1.88789 34.8992 1.87687C35.1611 1.87503 35.4179 1.85684 35.6499 1.82368C35.8818 1.79052 36.0828 1.74328 36.2372 1.68561C36.3977 1.65398 36.5878 1.63531 36.7855 1.6318C37.6409 1.58398 38.584 1.75136 39.2859 1.42262C40.1632 1.41066 41.0406 1.37479 41.9179 1.37479C42.0714 1.36881 42.554 1.30905 42.4004 1.27319C42.2469 1.23733 42.1153 1.15962 41.9618 1.15962C41.7657 1.15081 41.5657 1.15081 41.3696 1.15962C41.0406 1.15962 40.8651 1.10583 40.7993 0.956402C40.7335 0.806973 40.9528 0.711338 41.238 0.711338C42.0056 0.717316 42.532 0.639603 42.6636 0.292931C42.7254 0.224987 42.8544 0.162971 43.0365 0.113625C43.2451 0.0557404 43.5124 0.0161858 43.8042 5.72205e-05C44.1112 0.00603485 44.2867 0.0717735 44.2867 0.251087C44.2867 0.430401 44.1551 0.675476 44.857 0.675476C44.9008 0.555931 45.0763 0.460289 45.3614 0.460289C46.0194 0.466267 46.831 0.448338 47.3355 0.591785C47.8399 0.735237 47.8399 0.526039 47.8399 0.44236C48.0154 0.179363 48.4102 0.20327 49.0024 0.215225C49.5946 0.22718 49.5946 0.394543 49.5946 0.555927V0.914558C49.5946 1.06398 49.6165 1.12974 50.0991 1.15962C50.5816 1.18951 51.0422 1.17754 51.4809 1.31501C51.9195 1.45249 52.095 1.1895 52.4679 1.1895C52.65 1.20213 52.8266 1.22016 52.9943 1.24329C53.6961 1.35686 53.7181 1.35686 53.9374 1.24329C54.3761 1.01616 54.5515 0.687416 55.4508 0.603733C55.7359 0.573849 55.8895 0.364651 56.1088 0.233154V0.125572C56.1562 0.0947571 56.223 0.0664482 56.3062 0.0419006C56.4466 0.0984306 56.5505 0.161102 56.6133 0.227192C56.6575 0.342434 56.6575 0.458611 56.6133 0.573856C56.3939 0.938461 56.4597 1.058 57.1177 1.17157C57.2713 1.19548 57.4906 1.13571 57.6661 1.13571C57.6692 1.07268 57.6321 1.00998 57.5564 0.95042C57.5564 0.866737 57.3809 0.771111 57.5564 0.771111C58.2363 0.717319 59.0698 0.723278 59.5743 0.7173C60.0788 0.711323 60.2542 0.543972 60.32 0.424427C60.3858 0.304886 60.6929 0.251099 60.8245 0.39455C60.9561 0.538002 61.2193 0.711323 61.5044 0.7173C61.7895 0.723278 62.1186 0.759144 61.7896 0.926506L60.9122 1.38676C60.8793 1.4261 60.8793 1.46695 60.9122 1.50629C60.978 1.58997 61.1316 1.64377 61.2851 1.58998L62.6011 1.10583C62.7237 1.07118 62.8738 1.04461 63.0397 1.02813C63.1055 1.09985 63.2372 1.16559 63.2372 1.24329V1.48238C63.3062 1.52944 63.4197 1.57069 63.5662 1.60192C63.5881 1.6079 63.7416 1.54814 63.7416 1.51825C63.7636 1.25526 64.2022 1.30307 64.6847 1.15364C65.1673 1.00421 65.4305 1.08789 65.913 1.15364C66.5666 1.21683 67.267 1.2353 67.9528 1.20743C68.5012 1.19548 69.225 1.29709 69.554 1.06398C69.6913 0.867088 69.7428 0.666462 69.7075 0.46627C69.7624 0.397602 69.8509 0.331249 69.9707 0.269016C70.1115 0.318913 70.2158 0.375732 70.2778 0.436375C70.3216 0.567871 70.3875 0.687424 70.7823 0.687424H71.9666C72.4902 0.727566 73.0484 0.717396 73.5477 0.658623C74.0469 0.599846 74.4567 0.496044 74.7083 0.364655C75.0593 0.197292 75.3663 0.280983 75.7392 0.526047C76.1121 0.771111 76.6385 0.729263 76.8578 0.651562C77.0771 0.57386 77.2526 0.47224 77.4719 0.400513C77.5564 0.364182 77.6687 0.33326 77.8011 0.309841C77.9335 0.286419 78.0829 0.271065 78.2391 0.26482C78.3953 0.258579 78.5545 0.261593 78.706 0.273666C78.8575 0.285744 78.9977 0.306583 79.1169 0.334774C79.3363 0.376614 79.4021 0.567886 79.8188 0.412479C80.2355 0.257076 80.6742 0.257076 81.1129 0.412479C81.2701 0.451988 81.4388 0.487965 81.6173 0.520065C81.7928 0.561905 82.2973 0.51408 81.9683 0.699371C81.8805 0.765118 81.6174 0.735245 81.4419 0.765129C81.3416 0.785713 81.2715 0.815384 81.2445 0.848801C81.2157 0.874107 81.2157 0.901196 81.2445 0.926506C81.3103 0.980301 81.4857 0.980297 81.4857 0.980297C82.3783 0.989532 83.2408 1.07066 83.9642 1.21341C84.6661 1.28514 85.5215 1.21341 86.3111 1.21341C86.662 1.23135 87.1884 1.39871 87.32 1.42262C87.4516 1.44653 87.7148 1.41066 87.8464 1.36284C87.9705 1.2986 88.0238 1.22595 88 1.15364C87.9464 1.08374 87.8655 1.01561 87.7587 0.95042C87.6156 0.851582 87.5484 0.745808 87.5613 0.639614C87.5803 0.610176 87.6243 0.582352 87.6898 0.558388C87.7553 0.534424 87.8406 0.514988 87.9387 0.501621C88.0368 0.488258 88.145 0.481342 88.2547 0.48143C88.3643 0.481522 88.4724 0.488605 88.5702 0.502132C89.1415 0.572289 89.6674 0.667156 90.1275 0.783058C90.3322 0.877064 90.4384 0.984558 90.4346 1.09386C90.4563 1.20536 90.4563 1.31709 90.4346 1.42858C90.6205 1.43943 90.8129 1.43919 90.9984 1.42783C91.1839 1.41648 91.3582 1.39431 91.5093 1.36284C92.311 1.16779 93.1611 0.988056 94.0536 0.824905C94.7993 0.687431 95.6767 0.657536 96.2469 0.854782C96.8172 1.05203 97.7603 0.830879 98.0235 1.14169C98.2867 1.4525 98.6377 1.51227 99.2957 1.32698C99.5012 1.26378 99.7798 1.2216 100.085 1.20743C100.941 1.17754 101.862 1.30306 102.586 0.998226C103.551 1.0042 104.494 0.908577 105.437 1.13571C105.684 1.1825 105.971 1.21142 106.27 1.21978C106.569 1.22814 106.871 1.21567 107.148 1.18352L107.25 1.17347C109.714 0.932358 109.744 0.929493 111.907 1.14766C112.916 0.914547 113.859 1.31503 114.868 1.19548C115.219 1.19548 115.768 1.27319 116.009 1.19548C117.193 0.848808 118.487 1.01616 119.738 1.01616C120.089 1.01018 120.461 1.14766 120.79 1.16559C121.119 1.18352 121.602 1.04605 121.777 1.11778C121.953 1.1895 122.084 1.1895 122.26 1.11778C122.83 0.890648 123.291 1.00422 123.751 1.19548C123.949 1.27319 124.212 1.3987 124.431 1.39272C124.651 1.38675 124.804 1.28514 125.089 1.17157C125.374 1.058 125.55 0.950409 126.12 0.998226C126.69 1.04604 127.37 1.17157 127.765 1.1895C128.16 1.20743 128.511 0.920525 129.015 1.14766C129.213 1.22536 129.542 1.20145 129.827 1.14766C130.555 1.12374 131.292 1.12374 132.02 1.14766C132.305 1.19547 132.612 1.22536 132.832 1.11778C133.314 0.878693 134.082 1.35686 134.499 1.00421C134.791 0.971302 135.116 0.967648 135.418 0.993904C135.719 1.02016 135.976 1.07463 136.144 1.14766C136.977 0.872707 137.789 1.06398 138.337 1.14766C138.885 1.23133 139.302 0.92054 139.96 0.956402C141.495 1.02215 142.987 0.81892 144.347 1.17157C145.663 1.09985 147.11 1.38675 148.317 0.968349C148.975 0.998234 149.852 0.890648 150.313 1.06398C150.773 1.23732 151.146 1.17755 151.607 1.06398C152.086 0.967865 152.6 0.885723 153.142 0.81892C153.822 1.1118 154.897 0.812939 155.621 1.07593C155.906 1.17157 156.257 1.1357 156.63 1.27916C157.002 1.4226 157.266 1.44054 157.573 1.27916C158.231 0.962364 158.976 0.85479 159.876 1.14169C160.249 1.29112 160.599 1.25526 160.907 1.14169C161.024 1.09527 161.187 1.05885 161.377 1.03664C161.568 1.01443 161.777 1.00732 161.981 1.01616C162.149 1.01678 162.31 1.03321 162.438 1.06264C162.566 1.09206 162.653 1.13268 162.683 1.17755C162.771 1.27916 162.881 1.4764 163.078 1.41065C163.56 1.23134 164.021 1.48238 164.306 1.41065C164.423 1.36002 164.584 1.31827 164.776 1.28933C164.968 1.2604 165.184 1.24521 165.403 1.24521C165.622 1.24521 165.838 1.2604 166.03 1.28933C166.221 1.31827 166.383 1.36002 166.5 1.41065C167.004 1.5541 167.399 1.41066 167.53 1.21341C167.662 1.01617 167.903 0.938473 168.43 1.06997C168.956 1.20147 169.504 1.29112 169.987 1.12376C170.47 0.956402 170.799 0.884674 171.588 1.12376C172.378 1.36285 173.255 1.23133 173.672 1.03409C174.089 0.836845 174.352 0.723282 175.207 0.777077C176.063 0.830872 176.984 0.681446 177.751 0.95042C178.344 0.860764 178.958 0.669495 179.55 0.95042C180.756 0.609722 181.875 1.16559 183.059 1.02214C183.125 1.01616 183.344 1.04007 183.279 1.09386C183.213 1.14766 183.037 1.23733 183.037 1.23733C182.653 1.22718 182.268 1.25224 181.942 1.30854C181.616 1.36484 181.369 1.44916 181.239 1.54813C180.91 1.73343 180.405 1.73342 179.945 1.73342V1.96056C180.687 2.00677 181.461 1.99788 182.186 1.9348C182.912 1.87172 183.561 1.75676 184.068 1.60192C184.206 1.56117 184.377 1.5297 184.568 1.50999C184.758 1.49028 184.962 1.48288 185.165 1.48836C186.048 1.47044 186.935 1.47044 187.819 1.48836C188.477 1.51226 188.959 1.23733 189.42 1.27319C189.881 1.30905 190.078 1.47043 190.758 1.47043C191.438 1.47043 191.877 1.44652 192.82 1.47043C193.763 1.49434 194.794 1.35686 195.605 1.67963C197.406 1.71339 199.141 1.87854 200.628 2.15779C201.22 2.22354 201.988 2.15779 202.668 2.15779C203.348 2.15779 204.159 2.14584 204.729 2.15779C205.3 2.16975 205.431 2.27734 205.102 2.5762C204.971 2.67183 204.664 2.76746 205.102 2.82723C205.188 2.84148 205.287 2.84903 205.387 2.84903C205.488 2.84903 205.587 2.84148 205.673 2.82723C206.152 2.70701 206.456 2.54353 206.528 2.367C206.638 2.17573 207.054 2.13388 207.427 2.22952C207.593 2.28344 207.797 2.32767 208.027 2.35952C208.257 2.39137 208.508 2.41019 208.765 2.41483H212.582C212.779 2.41483 213.042 2.37896 213.174 2.41483C213.744 2.57621 214.27 2.76746 214.95 2.47458C216.661 2.82723 218.569 2.5224 220.324 2.68378C220.412 2.68976 220.631 2.72562 220.565 2.75551C220.5 2.78539 220.368 2.8392 220.368 2.8392C219.71 2.89897 219.096 3.15599 218.328 2.89897C218.175 2.82127 217.582 2.88104 217.473 2.89897C217.363 2.9169 217.319 2.9946 217.21 3.08426C217.1 3.17392 217.188 3.27551 217.407 3.27551C218.262 3.3054 219.14 3.34127 220.017 3.34127C220.478 3.34725 220.653 3.19185 220.96 3.08426C221.267 2.97667 221.574 2.88701 221.837 2.76149C222.101 2.63597 222.276 2.65988 222.539 2.76149C222.803 2.8631 223.11 2.83321 223.351 2.79735C223.592 2.76149 223.855 2.63596 224.097 2.69573C224.338 2.7555 224.513 2.85115 224.82 2.72563C225.128 2.60011 225.347 2.71368 225.544 2.7854C225.939 2.95874 226.334 3.11414 226.926 2.90493C227.259 2.99488 227.507 3.10553 227.648 3.22734C227.79 3.34916 227.82 3.47851 227.738 3.60427C227.496 4.10037 227.496 4.10634 228.308 4.28565C228.505 4.32749 229.032 4.28565 228.703 4.47094C228.453 4.62644 228.343 4.7959 228.381 4.9653C228.419 5.13471 228.604 5.2992 228.922 5.44522V5.55878C229.163 5.73212 229.755 5.7381 230.15 5.55878C230.326 5.47511 230.611 5.36154 230.611 5.28384C230.413 4.82958 231.291 4.65624 231.883 4.4052C232.102 4.29761 232.387 4.34544 232.387 4.50682C232.278 4.85947 233.024 5.06268 233.155 5.36751C233.155 5.39142 233.331 5.43327 233.331 5.43327C233.432 5.41049 233.502 5.37882 233.528 5.34362C233.606 5.15625 233.731 4.97052 233.901 4.78773C233.989 4.69807 234.318 4.64429 234.537 4.57256C234.65 4.64076 234.724 4.71334 234.756 4.78773C234.795 4.97679 234.951 5.16272 235.217 5.33763C235.297 5.37343 235.346 5.41386 235.358 5.45567C235.371 5.49748 235.348 5.53952 235.29 5.57843C235.233 5.61734 235.142 5.65205 235.027 5.67978C234.911 5.7075 234.774 5.72748 234.625 5.73811C234.23 5.78593 234.12 6.13856 234.23 6.24615L234.239 6.25467C234.343 6.35782 234.418 6.43144 234.888 6.43144H236.357C236.55 6.44133 236.735 6.45951 236.906 6.48525C236.961 6.50678 236.998 6.53122 237.015 6.55697C236.96 6.58632 236.886 6.61266 236.796 6.63468L236.116 6.79007C236.363 6.83419 236.628 6.87031 236.906 6.89768C237.175 6.90662 237.448 6.90662 237.717 6.89768L237.719 6.91355C237.74 7.14022 237.758 7.34106 238.573 7.38779C238.989 7.40572 238.748 7.55516 238.573 7.64482C238.397 7.73447 238.397 7.81218 238.682 7.81218C239.146 7.83496 239.615 7.84893 240.086 7.854V8.31425C240.459 8.31425 240.898 8.30828 241.227 8.31425C241.556 8.32023 241.775 8.40988 241.775 8.52942C241.962 8.7949 241.855 9.06953 241.468 9.31841C241.311 9.40095 241.252 9.49476 241.299 9.58686C241.346 9.67896 241.497 9.76477 241.731 9.83243C241.928 9.91014 241.994 10.0357 242.455 9.87428C242.916 9.71289 243.815 9.69497 243.815 9.35427C243.837 9.2945 244.561 9.28254 244.561 9.35427C244.606 9.41541 244.606 9.47842 244.561 9.53956C244.43 9.60463 244.362 9.6776 244.362 9.75175C244.362 9.82591 244.43 9.89886 244.561 9.96393C244.824 10.1193 244.955 10.3166 245.262 10.466C245.583 10.6818 245.689 10.9169 245.569 11.1474C245.547 11.3267 245.35 11.4463 244.868 11.4463C244.386 11.456 243.909 11.478 243.442 11.512C243.354 11.518 243.244 11.6196 243.244 11.6913C243.99 11.769 243.727 12.1815 244.385 12.289C244.857 12.3377 245.245 12.4328 245.473 12.5557C245.7 12.6785 245.75 12.8201 245.613 12.9525C245.61 12.9758 245.625 12.999 245.655 13.0207C245.686 13.0424 245.732 13.0622 245.792 13.079C245.851 13.0957 245.922 13.109 246.001 13.1181C246.079 13.1272 246.164 13.1318 246.249 13.1318C246.52 13.1277 246.789 13.1453 247.023 13.1825C247.257 13.2197 247.445 13.2748 247.565 13.341C247.829 13.4546 247.807 13.5084 247.258 13.616C247.117 13.6397 246.998 13.6721 246.911 13.7104C246.823 13.7488 246.77 13.7922 246.754 13.8371C246.307 13.8275 245.858 13.8444 245.438 13.8867C245.017 13.929 244.636 13.9957 244.319 14.0822C244.13 14.127 243.984 14.1835 243.892 14.2469C243.801 14.3104 243.767 14.379 243.793 14.4468C243.815 14.6859 243.573 14.8054 242.959 14.8054C242.673 14.8208 242.403 14.8535 242.17 14.9011C242.083 14.9484 242.038 15.0006 242.038 15.0535C242.038 15.1064 242.083 15.1586 242.17 15.2059C242.433 15.2371 242.704 15.2631 242.981 15.2836C243.376 15.3254 243.902 15.188 244.144 15.433C243.771 15.4689 243.398 15.4988 243.047 15.5286C242.952 15.5412 242.87 15.5597 242.806 15.5825C242.587 15.6303 242.608 15.696 242.806 15.7618C243.095 15.8526 243.418 15.9347 243.771 16.0068C243.911 16.0337 244.028 16.0684 244.115 16.1086C244.202 16.1488 244.257 16.1935 244.275 16.2399C245.898 16.3953 246.6 16.6285 246.6 17.2262C246.644 17.4951 246.776 17.6804 247.5 17.7342C247.807 17.7521 247.785 17.8298 247.5 17.8896L246.732 18.0331C246.994 18.0748 247.23 18.1272 247.434 18.1885Z" fill="#DF6239"/>
<path d="M6.16554 6.66452C7.04288 6.66452 7.8544 6.34773 8.75367 6.61073C8.75367 6.61073 8.95108 6.61073 9.03881 6.61073C9.12655 6.61073 9.28007 6.52106 9.17041 6.43738C8.53434 5.97117 7.32801 5.92336 6.29714 5.756C5.85847 5.69025 4.69602 6.05485 4.67409 6.23416V6.47325C4.64119 6.63052 4.64119 6.78817 4.67409 6.94544C4.68997 6.97651 4.73449 7.00596 4.80354 7.03105C4.87259 7.05614 4.9639 7.07604 5.06887 7.08889C5.4557 7.09765 5.84452 7.09765 6.23134 7.08889C6.51648 7.08889 6.77966 7.08889 6.8016 6.93946C6.8016 6.90958 6.49456 6.87969 6.31909 6.84382C6.16892 6.80487 6.02961 6.76292 5.90235 6.71831L6.16554 6.66452Z" fill="#DF6239"/>
<path d="M239.977 6.70631C240.034 6.65657 240.029 6.60305 239.961 6.55429C239.894 6.50553 239.768 6.46435 239.604 6.43733C239.229 6.41339 238.839 6.41339 238.464 6.43733C238.313 6.44395 238.17 6.46048 238.048 6.48547C237.926 6.51046 237.828 6.54316 237.762 6.58078C237.706 6.68581 237.706 6.79254 237.762 6.89758C238.405 6.90654 239.049 6.90654 239.692 6.89758C239.78 6.86769 239.912 6.77206 239.977 6.70631Z" fill="#DF6239"/>
<path d="M34.8341 0.215245C34.7025 0.245131 34.4392 0.269047 34.3954 0.316864C34.2078 0.464554 34.2122 0.625334 34.4079 0.772244C34.6035 0.919154 34.9786 1.04327 35.4701 1.12378C35.6017 1.12378 35.7991 1.07596 35.9746 1.04607C35.3166 0.830897 35.6895 0.448359 35.1411 0.221228C35.0973 0.203297 34.9437 0.215245 34.8341 0.215245Z" fill="#DF6239"/>
<path d="M14.4145 32.8205C13.7723 32.8056 13.1266 32.8056 12.4844 32.8205C12.7695 33.2031 13.4494 33.3346 14.3706 33.2748C14.4679 33.2591 14.5503 33.2374 14.6112 33.2114C14.6722 33.1855 14.7099 33.156 14.7216 33.1254C14.6777 32.9998 14.5461 32.8265 14.4145 32.8205Z" fill="#DF6239"/>
<path d="M11.211 32.1809C11.211 32.1809 10.9916 32.1211 10.9697 32.1271C10.8352 32.1773 10.7383 32.2341 10.6846 32.2945C10.6846 32.4857 10.6846 32.677 10.6846 32.8922C10.6846 33.1074 10.9039 33.0237 11.0794 32.9579C11.2234 32.9041 11.4165 32.8614 11.6396 32.8342C11.8628 32.8069 12.1082 32.796 12.3515 32.8025C12.2857 32.4858 11.6058 32.3662 11.211 32.1809Z" fill="#DF6239"/>
<path d="M62.885 0.274925C62.7725 0.338004 62.727 0.408386 62.7534 0.478145C62.7597 0.509438 62.7903 0.540012 62.8433 0.567835C62.8962 0.595657 62.9702 0.620104 63.0605 0.639539C63.4333 0.687356 64.3545 0.436312 64.3545 0.298838C64.3545 0.298838 64.2449 0.23907 64.1791 0.227116C63.7404 0.179299 63.1921 0.125497 62.885 0.274925Z" fill="#DF6239"/>
<path d="M84.7314 0.81885C84.7824 0.847197 84.8576 0.871792 84.9508 0.890573C85.1262 0.890573 85.3017 0.890573 85.2798 0.890573C85.6372 0.899757 85.997 0.899757 86.3545 0.890573C86.508 0.890573 86.6616 0.818851 86.8151 0.782988C86.9687 0.747125 86.5519 0.669415 86.4203 0.663438C85.9467 0.648516 85.4683 0.648516 84.9946 0.663438C84.9946 0.663438 84.7972 0.765055 84.7314 0.81885Z" fill="#DF6239"/>
<path d="M18.2744 34.249C17.9674 34.249 17.7919 34.3327 17.8358 34.4642C17.8796 34.5956 18.0112 34.6554 18.3183 34.6733C18.6253 34.6913 19.0202 34.5418 18.8886 34.3984C18.757 34.2549 18.5815 34.237 18.2744 34.249Z" fill="#DF6239"/>
<path d="M11.5412 6.66446C11.5854 6.61134 11.5854 6.5562 11.5412 6.50308C11.4792 6.48533 11.4042 6.47136 11.321 6.46209C11.2379 6.45282 11.1484 6.44846 11.0586 6.44929C10.7515 6.44929 10.5761 6.54491 10.62 6.6764L10.8173 6.86768C10.9079 6.851 10.9891 6.83087 11.0586 6.8079C11.2434 6.7665 11.4059 6.71822 11.5412 6.66446Z" fill="#DF6239"/>
<path d="M9.58834 5.82193C9.57602 5.85572 9.57602 5.88976 9.58834 5.92355C9.58834 6.05505 9.74186 6.13274 10.027 6.15665C10.3121 6.18056 10.6631 6.10884 10.707 5.94148C10.473 5.89886 10.2529 5.85086 10.049 5.79802C9.78575 5.72629 9.67607 5.72032 9.58834 5.82193Z" fill="#DF6239"/>
<path d="M246.249 14.2974C246.249 14.2974 246.424 14.2974 246.512 14.2974C246.6 14.2974 247.038 14.2376 247.082 14.124C247.126 14.0105 247.082 13.8551 246.556 13.8371L246.358 14.0164C246.293 14.124 245.854 14.1838 246.249 14.2974Z" fill="#DF6239"/>
<path d="M240.985 8.05737C241.073 7.99555 241.14 7.9315 241.182 7.86612C241.182 7.72864 241.05 7.65691 240.765 7.633C240.48 7.60909 240.085 7.68081 240.063 7.85415C240.305 7.90197 240.524 7.95576 240.743 8.00358L240.985 8.05737Z" fill="#DF6239"/>
<path d="M6.16602 14.1778C6.16602 14.2257 6.31956 14.3033 6.45116 14.3153C6.58276 14.3273 7.10914 14.2735 7.15301 14.1001C6.89026 14.0942 6.62615 14.0942 6.36341 14.1001C6.36341 14.1001 6.16602 14.1719 6.16602 14.1778Z" fill="#DF6239"/>
<path d="M229.712 4.07642C229.712 4.07642 229.58 4.11825 229.492 4.14216C229.712 4.18113 229.948 4.21321 230.194 4.23779C230.194 4.23779 230.348 4.15411 230.391 4.11824C230.194 3.98077 229.887 4.04055 229.712 4.07642Z" fill="#DF6239"/>
<path d="M18.8215 22.2051C18.9147 22.2099 19.0111 22.2067 19.0974 22.196C19.1838 22.1853 19.256 22.1676 19.304 22.1453C19.4575 21.9839 19.1066 22.0019 18.8873 21.9959C18.7207 21.9869 18.5493 21.9869 18.3828 21.9959C18.4047 22.1214 18.5363 22.2051 18.8215 22.2051Z" fill="#DF6239"/>
<path d="M7.61456 25.4806C7.39827 25.4367 7.16241 25.4006 6.91267 25.3729C6.91267 25.3729 6.78109 25.4626 6.69336 25.5164L7.1759 25.5881L7.61456 25.4806Z" fill="#DF6239"/>
<path d="M159.81 32.6351C159.81 32.6829 159.963 32.7546 160.073 32.7666C160.182 32.7785 160.753 32.7307 160.797 32.5574C160.534 32.5514 160.27 32.5514 160.007 32.5574C160.007 32.5574 159.81 32.6291 159.81 32.6351Z" fill="#DF6239"/>
<path d="M44.901 34.6137C44.901 34.6137 44.6817 34.554 44.572 34.5301C44.4751 34.5732 44.4238 34.6229 44.4238 34.6735C44.4238 34.7241 44.4751 34.7738 44.572 34.817C44.6143 34.846 44.6657 34.874 44.7256 34.9006C44.7256 34.805 44.8352 34.7154 44.901 34.6137Z" fill="#DF6239"/>
<path d="M32.4863 1.3688C32.9031 1.39868 33.1663 1.33292 33.2101 1.15361C32.9469 1.15361 32.6837 1.15361 32.4205 1.15361C32.1573 1.15361 32.2231 1.21338 32.2231 1.22533C32.2231 1.23729 32.267 1.36282 32.4863 1.3688Z" fill="#DF6239"/>
<path d="M66.4613 0.597845C66.6149 0.639685 66.7684 0.597837 66.6587 0.514157C66.5491 0.430477 66.4175 0.460366 66.2859 0.442435C66.1543 0.424503 66.3517 0.573937 66.4613 0.597845Z" fill="#DF6239"/>
<path d="M33.3425 0.974352C33.2484 1.02052 33.1888 1.0713 33.167 1.12378C33.3205 1.12378 33.496 1.09388 33.5618 1.05204C33.6276 1.0102 33.496 0.926535 33.3425 0.974352Z" fill="#DF6239"/>
<path d="M0.99012 8.27246V8.2067L0.836604 8.13498L0.661133 8.20074L0.99012 8.27246Z" fill="#DF6239"/>
<path d="M248.596 13.8372C248.644 13.8322 248.687 13.8241 248.721 13.8136C248.754 13.803 248.777 13.7902 248.788 13.7766C248.799 13.7629 248.797 13.7487 248.783 13.7352C248.769 13.7218 248.742 13.7096 248.706 13.6997C248.706 13.6997 248.596 13.6997 248.53 13.6997C248.464 13.6997 248.53 13.7475 248.53 13.7654C248.53 13.7834 248.574 13.8372 248.596 13.8372Z" fill="#DF6239"/>
<path d="M9.25984 16.1801C9.3635 16.1329 9.42371 16.0796 9.43531 16.0247C9.28178 16.0247 9.12825 16.0247 9.06245 16.0964C8.99665 16.1681 9.10631 16.2279 9.25984 16.1801Z" fill="#DF6239"/>
<path d="M4.36914 25.6598V25.7315C4.36914 25.7614 4.50076 25.8092 4.52269 25.8032C4.56003 25.7942 4.58992 25.7832 4.61041 25.7708C4.63089 25.7585 4.6415 25.745 4.6415 25.7315C4.6415 25.7179 4.63089 25.7045 4.61041 25.6921C4.58992 25.6798 4.56003 25.6687 4.52269 25.6598C4.52269 25.6598 4.43494 25.6598 4.36914 25.6598Z" fill="#DF6239"/>
<path d="M238.353 29.5509L238.703 29.5928V29.5211C238.703 29.5211 238.572 29.4852 238.528 29.4912C238.484 29.4971 238.418 29.527 238.353 29.5509Z" fill="#DF6239"/>
<path d="M20.4235 34.2668C20.4235 34.2668 20.3138 34.3087 20.248 34.3326L20.5112 34.4043V34.3385C20.5112 34.3385 20.4893 34.2668 20.4235 34.2668Z" fill="#DF6239"/>
<path d="M13.624 28.23V28.4871H14.282C14.1797 28.3317 13.9603 28.246 13.624 28.23Z" fill="#DF6239"/>
<path d="M30.324 16.305C30.478 16.1463 30.6367 16.004 30.8 15.878C30.968 15.7473 31.1453 15.6353 31.332 15.542C31.5187 15.4487 31.717 15.3763 31.927 15.325C32.137 15.2737 32.3657 15.248 32.613 15.248C33.005 15.248 33.348 15.3133 33.642 15.444C33.9407 15.5747 34.1903 15.759 34.391 15.997C34.5963 16.235 34.7503 16.522 34.853 16.858C34.9557 17.1893 35.007 17.5557 35.007 17.957V22.5H33.509V17.957C33.509 17.4763 33.397 17.103 33.173 16.837C32.9537 16.571 32.6177 16.438 32.165 16.438C31.829 16.438 31.5163 16.515 31.227 16.669C30.9423 16.823 30.674 17.033 30.422 17.299V22.5H28.917V15.36H29.827C30.0323 15.36 30.163 15.4557 30.219 15.647L30.324 16.305ZM39.8517 15.248C40.379 15.248 40.855 15.3343 41.2797 15.507C41.709 15.6797 42.073 15.9247 42.3717 16.242C42.675 16.5593 42.9083 16.9443 43.0717 17.397C43.235 17.8497 43.3167 18.3583 43.3167 18.923C43.3167 19.4877 43.235 19.9963 43.0717 20.449C42.9083 20.9017 42.675 21.289 42.3717 21.611C42.073 21.9283 41.709 22.1733 41.2797 22.346C40.855 22.5187 40.379 22.605 39.8517 22.605C39.3197 22.605 38.839 22.5187 38.4097 22.346C37.985 22.1733 37.621 21.9283 37.3177 21.611C37.0143 21.289 36.781 20.9017 36.6177 20.449C36.4543 19.9963 36.3727 19.4877 36.3727 18.923C36.3727 18.3583 36.4543 17.8497 36.6177 17.397C36.781 16.9443 37.0143 16.5593 37.3177 16.242C37.621 15.9247 37.985 15.6797 38.4097 15.507C38.839 15.3343 39.3197 15.248 39.8517 15.248ZM39.8517 21.429C40.4957 21.429 40.974 21.2143 41.2867 20.785C41.604 20.351 41.7627 19.7327 41.7627 18.93C41.7627 18.1273 41.604 17.509 41.2867 17.075C40.974 16.6363 40.4957 16.417 39.8517 16.417C39.1983 16.417 38.713 16.6363 38.3957 17.075C38.0783 17.509 37.9197 18.1273 37.9197 18.93C37.9197 19.7327 38.0783 20.351 38.3957 20.785C38.713 21.2143 39.1983 21.429 39.8517 21.429ZM46.1837 16.683C46.4077 16.2303 46.6784 15.8757 46.9957 15.619C47.313 15.3577 47.6934 15.227 48.1367 15.227C48.2907 15.227 48.4354 15.2457 48.5707 15.283C48.706 15.3157 48.8274 15.367 48.9347 15.437L48.8297 16.571C48.811 16.6503 48.7807 16.7063 48.7387 16.739C48.7014 16.767 48.65 16.781 48.5847 16.781C48.5147 16.781 48.4144 16.7693 48.2837 16.746C48.153 16.718 48.0154 16.704 47.8707 16.704C47.6607 16.704 47.474 16.7343 47.3107 16.795C47.152 16.8557 47.0074 16.9443 46.8767 17.061C46.7507 17.1777 46.6387 17.32 46.5407 17.488C46.4427 17.656 46.3517 17.8473 46.2677 18.062V22.5H44.7627V15.36H45.6377C45.7964 15.36 45.906 15.3903 45.9667 15.451C46.0274 15.507 46.0694 15.6073 46.0927 15.752L46.1837 16.683ZM49.9307 22.5V15.36H50.8407C51.046 15.36 51.1767 15.4557 51.2327 15.647L51.3307 16.27C51.4613 16.1207 51.5967 15.9853 51.7367 15.864C51.8767 15.738 52.026 15.6307 52.1847 15.542C52.348 15.4487 52.5207 15.3763 52.7027 15.325C52.8893 15.2737 53.09 15.248 53.3047 15.248C53.5333 15.248 53.7433 15.2807 53.9347 15.346C54.126 15.4113 54.294 15.5047 54.4387 15.626C54.588 15.7473 54.7163 15.8943 54.8237 16.067C54.931 16.2397 55.0197 16.4333 55.0897 16.648C55.197 16.4007 55.3323 16.1883 55.4957 16.011C55.659 15.8337 55.841 15.689 56.0417 15.577C56.2423 15.465 56.4547 15.3833 56.6787 15.332C56.9073 15.276 57.1383 15.248 57.3717 15.248C57.7543 15.248 58.095 15.3087 58.3937 15.43C58.697 15.5513 58.9513 15.7287 59.1567 15.962C59.3667 16.1907 59.5253 16.473 59.6327 16.809C59.74 17.145 59.7937 17.5277 59.7937 17.957V22.5H58.2887V17.957C58.2887 17.453 58.179 17.075 57.9597 16.823C57.745 16.5663 57.4253 16.438 57.0007 16.438C56.8093 16.438 56.6297 16.4707 56.4617 16.536C56.2937 16.6013 56.1467 16.697 56.0207 16.823C55.8947 16.949 55.7943 17.1077 55.7197 17.299C55.6497 17.4857 55.6147 17.705 55.6147 17.957V22.5H54.1097V17.957C54.1097 17.4343 54.0047 17.0517 53.7947 16.809C53.5847 16.5617 53.2767 16.438 52.8707 16.438C52.5907 16.438 52.3317 16.5103 52.0937 16.655C51.8557 16.795 51.6363 16.9887 51.4357 17.236V22.5H49.9307ZM65.3668 19.378C64.8301 19.3967 64.3774 19.441 64.0088 19.511C63.6401 19.5763 63.3414 19.6627 63.1128 19.77C62.8841 19.8727 62.7184 19.9963 62.6158 20.141C62.5178 20.2857 62.4688 20.4443 62.4688 20.617C62.4688 20.785 62.4944 20.9297 62.5458 21.051C62.6018 21.1677 62.6764 21.2657 62.7698 21.345C62.8678 21.4197 62.9798 21.4757 63.1058 21.513C63.2364 21.5457 63.3788 21.562 63.5328 21.562C63.9248 21.562 64.2608 21.4897 64.5408 21.345C64.8254 21.1957 65.1008 20.981 65.3668 20.701V19.378ZM61.3768 16.354C62.1841 15.6027 63.1454 15.227 64.2608 15.227C64.6714 15.227 65.0354 15.2947 65.3528 15.43C65.6748 15.5607 65.9431 15.7473 66.1578 15.99C66.3771 16.2327 66.5428 16.522 66.6548 16.858C66.7714 17.1893 66.8298 17.558 66.8298 17.964V22.5H66.1578C66.0131 22.5 65.9034 22.479 65.8288 22.437C65.7541 22.3903 65.6911 22.2993 65.6398 22.164L65.4928 21.583C65.3108 21.7463 65.1311 21.8933 64.9538 22.024C64.7764 22.15 64.5921 22.2573 64.4008 22.346C64.2141 22.4347 64.0111 22.5 63.7918 22.542C63.5771 22.5887 63.3391 22.612 63.0778 22.612C62.7884 22.612 62.5178 22.5723 62.2658 22.493C62.0184 22.4137 61.8038 22.2947 61.6218 22.136C61.4398 21.9727 61.2951 21.772 61.1878 21.534C61.0851 21.296 61.0338 21.016 61.0338 20.694C61.0338 20.4187 61.1061 20.1503 61.2508 19.889C61.4001 19.6277 61.6428 19.3943 61.9788 19.189C62.3194 18.979 62.7651 18.8063 63.3158 18.671C63.8711 18.5357 64.5548 18.4587 65.3668 18.44V17.964C65.3668 17.4507 65.2571 17.068 65.0378 16.816C64.8184 16.564 64.4964 16.438 64.0718 16.438C63.7824 16.438 63.5398 16.4753 63.3438 16.55C63.1478 16.62 62.9774 16.697 62.8328 16.781C62.6881 16.865 62.5598 16.9443 62.4478 17.019C62.3358 17.089 62.2168 17.124 62.0908 17.124C61.9881 17.124 61.8994 17.0983 61.8248 17.047C61.7548 16.991 61.6964 16.9233 61.6498 16.844L61.3768 16.354ZM70.1258 12.14V22.5H68.6208V12.14H70.1258ZM73.5164 12.14V22.5H72.0114V12.14H73.5164ZM81.709 15.36L77.775 24.53C77.7237 24.6373 77.6607 24.7213 77.586 24.782C77.516 24.8427 77.4064 24.873 77.257 24.873H76.144L77.46 22.017L74.548 15.36H75.857C75.983 15.36 76.0787 15.3903 76.144 15.451C76.214 15.507 76.2654 15.5747 76.298 15.654L77.999 19.707C78.041 19.8237 78.0784 19.9403 78.111 20.057C78.1484 20.169 78.1834 20.2857 78.216 20.407C78.2534 20.2857 78.2907 20.1667 78.328 20.05C78.3654 19.9333 78.4074 19.8167 78.454 19.7L80.085 15.654C80.1177 15.57 80.1714 15.5 80.246 15.444C80.3254 15.388 80.4117 15.36 80.505 15.36H81.709ZM89.27 21.324C89.8253 21.2587 90.2453 21.0767 90.53 20.778C90.8193 20.4793 90.964 20.0943 90.964 19.623C90.964 19.4223 90.9267 19.2473 90.852 19.098C90.7773 18.9487 90.6747 18.818 90.544 18.706C90.418 18.594 90.2663 18.4983 90.089 18.419C89.9117 18.335 89.7203 18.258 89.515 18.188L89.27 21.324ZM88.927 13.617C88.647 13.645 88.4067 13.7033 88.206 13.792C88.0053 13.876 87.8397 13.981 87.709 14.107C87.5783 14.2283 87.4827 14.366 87.422 14.52C87.3613 14.674 87.331 14.8373 87.331 15.01C87.331 15.206 87.366 15.3787 87.436 15.528C87.506 15.6773 87.6017 15.8103 87.723 15.927C87.849 16.039 87.996 16.1393 88.164 16.228C88.332 16.312 88.514 16.3913 88.71 16.466L88.927 13.617ZM89.627 16.76C89.963 16.8627 90.2943 16.977 90.621 17.103C90.9523 17.2243 91.2487 17.383 91.51 17.579C91.7713 17.7703 91.9813 18.0107 92.14 18.3C92.3033 18.5893 92.385 18.951 92.385 19.385C92.385 19.8097 92.3127 20.211 92.168 20.589C92.028 20.9623 91.8203 21.2937 91.545 21.583C91.2697 21.8677 90.9313 22.101 90.53 22.283C90.1333 22.4603 89.6807 22.5653 89.172 22.598L89.088 23.718C89.0833 23.816 89.0437 23.9047 88.969 23.984C88.8943 24.068 88.7987 24.11 88.682 24.11H88.122L88.241 22.577C87.6903 22.5117 87.177 22.367 86.701 22.143C86.2297 21.9143 85.826 21.6297 85.49 21.289L85.945 20.596C85.987 20.5353 86.0407 20.4863 86.106 20.449C86.176 20.407 86.2507 20.386 86.33 20.386C86.428 20.386 86.533 20.4257 86.645 20.505C86.7617 20.5843 86.897 20.6777 87.051 20.785C87.205 20.8877 87.387 20.9903 87.597 21.093C87.807 21.191 88.0543 21.2633 88.339 21.31L88.598 17.915C88.2713 17.817 87.947 17.7073 87.625 17.586C87.3077 17.46 87.0207 17.2943 86.764 17.089C86.512 16.8837 86.3067 16.627 86.148 16.319C85.994 16.011 85.917 15.6237 85.917 15.157C85.917 14.807 85.9847 14.4663 86.12 14.135C86.26 13.8037 86.4607 13.5097 86.722 13.253C86.988 12.9917 87.3147 12.7793 87.702 12.616C88.0893 12.448 88.5327 12.3523 89.032 12.329L89.102 11.391C89.1067 11.2883 89.1463 11.1973 89.221 11.118C89.2957 11.0387 89.3913 10.999 89.508 10.999H90.068L89.963 12.371C90.453 12.441 90.8777 12.5763 91.237 12.777C91.5963 12.973 91.909 13.2017 92.175 13.463L91.811 14.023C91.7083 14.1863 91.5823 14.268 91.433 14.268C91.363 14.268 91.279 14.2423 91.181 14.191C91.0877 14.1397 90.9757 14.079 90.845 14.009C90.719 13.939 90.5743 13.869 90.411 13.799C90.2477 13.729 90.0657 13.6753 89.865 13.638L89.627 16.76ZM100.226 21.359V22.5H94.7311V21.359H96.8311V15.045C96.8311 14.821 96.8381 14.5923 96.8521 14.359L95.2351 15.724C95.1651 15.78 95.0928 15.8173 95.0181 15.836C94.9481 15.85 94.8804 15.85 94.8151 15.836C94.7544 15.822 94.6984 15.801 94.6471 15.773C94.6004 15.7403 94.5631 15.7053 94.5351 15.668L94.0661 15.01L97.1041 12.399H98.3291V21.359H100.226ZM103.314 15.416C103.314 16.0133 103.473 16.473 103.79 16.795C104.112 17.1123 104.56 17.271 105.134 17.271C105.442 17.271 105.713 17.222 105.946 17.124C106.184 17.026 106.385 16.8953 106.548 16.732C106.712 16.564 106.835 16.3703 106.919 16.151C107.003 15.927 107.045 15.689 107.045 15.437C107.045 15.143 106.999 14.8817 106.905 14.653C106.817 14.4197 106.688 14.2213 106.52 14.058C106.357 13.8947 106.161 13.771 105.932 13.687C105.704 13.5983 105.454 13.554 105.183 13.554C104.899 13.554 104.642 13.6007 104.413 13.694C104.185 13.7873 103.989 13.918 103.825 14.086C103.662 14.2493 103.536 14.4453 103.447 14.674C103.359 14.898 103.314 15.1453 103.314 15.416ZM105.897 18.545C105.991 18.4283 106.077 18.3187 106.156 18.216C106.236 18.1087 106.31 18.0013 106.38 17.894C106.138 18.0667 105.867 18.1997 105.568 18.293C105.27 18.3817 104.952 18.426 104.616 18.426C104.252 18.426 103.902 18.3653 103.566 18.244C103.23 18.118 102.932 17.9337 102.67 17.691C102.409 17.4437 102.199 17.1403 102.04 16.781C101.886 16.417 101.809 15.9993 101.809 15.528C101.809 15.0847 101.891 14.667 102.054 14.275C102.222 13.883 102.456 13.5423 102.754 13.253C103.053 12.959 103.41 12.728 103.825 12.56C104.241 12.392 104.7 12.308 105.204 12.308C105.704 12.308 106.156 12.3897 106.562 12.553C106.968 12.7117 107.314 12.938 107.598 13.232C107.883 13.5213 108.102 13.869 108.256 14.275C108.41 14.6763 108.487 15.1197 108.487 15.605C108.487 15.9083 108.459 16.1953 108.403 16.466C108.352 16.7367 108.275 17.0003 108.172 17.257C108.074 17.509 107.953 17.7587 107.808 18.006C107.668 18.2487 107.51 18.496 107.332 18.748L104.959 22.15C104.889 22.2527 104.784 22.3367 104.644 22.402C104.509 22.4673 104.355 22.5 104.182 22.5H102.803L105.897 18.545ZM111.435 15.416C111.435 16.0133 111.594 16.473 111.911 16.795C112.233 17.1123 112.681 17.271 113.255 17.271C113.563 17.271 113.834 17.222 114.067 17.124C114.305 17.026 114.506 16.8953 114.669 16.732C114.833 16.564 114.956 16.3703 115.04 16.151C115.124 15.927 115.166 15.689 115.166 15.437C115.166 15.143 115.12 14.8817 115.026 14.653C114.938 14.4197 114.809 14.2213 114.641 14.058C114.478 13.8947 114.282 13.771 114.053 13.687C113.825 13.5983 113.575 13.554 113.304 13.554C113.02 13.554 112.763 13.6007 112.534 13.694C112.306 13.7873 112.11 13.918 111.946 14.086C111.783 14.2493 111.657 14.4453 111.568 14.674C111.48 14.898 111.435 15.1453 111.435 15.416ZM114.018 18.545C114.112 18.4283 114.198 18.3187 114.277 18.216C114.357 18.1087 114.431 18.0013 114.501 17.894C114.259 18.0667 113.988 18.1997 113.689 18.293C113.391 18.3817 113.073 18.426 112.737 18.426C112.373 18.426 112.023 18.3653 111.687 18.244C111.351 18.118 111.053 17.9337 110.791 17.691C110.53 17.4437 110.32 17.1403 110.161 16.781C110.007 16.417 109.93 15.9993 109.93 15.528C109.93 15.0847 110.012 14.667 110.175 14.275C110.343 13.883 110.577 13.5423 110.875 13.253C111.174 12.959 111.531 12.728 111.946 12.56C112.362 12.392 112.821 12.308 113.325 12.308C113.825 12.308 114.277 12.3897 114.683 12.553C115.089 12.7117 115.435 12.938 115.719 13.232C116.004 13.5213 116.223 13.869 116.377 14.275C116.531 14.6763 116.608 15.1197 116.608 15.605C116.608 15.9083 116.58 16.1953 116.524 16.466C116.473 16.7367 116.396 17.0003 116.293 17.257C116.195 17.509 116.074 17.7587 115.929 18.006C115.789 18.2487 115.631 18.496 115.453 18.748L113.08 22.15C113.01 22.2527 112.905 22.3367 112.765 22.402C112.63 22.4673 112.476 22.5 112.303 22.5H110.924L114.018 18.545Z" fill="white"/>
<path d="M28 18.594H117.399V19.266H28V18.594Z" fill="white"/>
<path d="M133.832 21.84C134.822 21.678 135.317 21.135 135.317 20.211C135.317 19.863 135.206 19.59 134.984 19.392C134.768 19.188 134.48 19.017 134.12 18.879L133.832 21.84ZM132.995 13.074C132.719 13.116 132.485 13.179 132.293 13.263C132.107 13.347 131.954 13.446 131.834 13.56C131.72 13.674 131.636 13.803 131.582 13.947C131.528 14.085 131.501 14.232 131.501 14.388C131.501 14.742 131.615 15.03 131.843 15.252C132.071 15.468 132.365 15.651 132.725 15.801L132.995 13.074ZM134.372 16.341C134.66 16.425 134.948 16.518 135.236 16.62C135.524 16.716 135.8 16.83 136.064 16.962C136.334 17.088 136.583 17.235 136.811 17.403C137.045 17.571 137.246 17.769 137.414 17.997C137.588 18.225 137.723 18.486 137.819 18.78C137.915 19.074 137.963 19.413 137.963 19.797C137.963 20.367 137.867 20.904 137.675 21.408C137.483 21.906 137.201 22.35 136.829 22.74C136.457 23.124 136.001 23.439 135.461 23.685C134.921 23.925 134.303 24.072 133.607 24.126L133.499 25.242C133.487 25.41 133.412 25.56 133.274 25.692C133.142 25.83 132.971 25.899 132.761 25.899H131.735L131.915 24.045C131.225 23.931 130.565 23.733 129.935 23.451C129.311 23.163 128.783 22.818 128.351 22.416L129.215 21.165C129.287 21.063 129.383 20.979 129.503 20.913C129.629 20.841 129.761 20.805 129.899 20.805C130.043 20.805 130.19 20.844 130.34 20.922C130.49 20.994 130.652 21.084 130.826 21.192C131.006 21.294 131.201 21.402 131.411 21.516C131.627 21.624 131.87 21.714 132.14 21.786L132.473 18.393C132.041 18.273 131.609 18.132 131.177 17.97C130.751 17.808 130.367 17.589 130.025 17.313C129.683 17.037 129.404 16.686 129.188 16.26C128.978 15.834 128.873 15.3 128.873 14.658C128.873 14.184 128.969 13.722 129.161 13.272C129.353 12.822 129.632 12.417 129.998 12.057C130.37 11.697 130.826 11.403 131.366 11.175C131.906 10.941 132.524 10.806 133.22 10.77L133.319 9.771C133.331 9.603 133.403 9.453 133.535 9.321C133.673 9.183 133.847 9.114 134.057 9.114H135.083L134.912 10.878C135.56 10.998 136.115 11.193 136.577 11.463C137.045 11.733 137.441 12.021 137.765 12.327L137.081 13.326C136.979 13.476 136.874 13.587 136.766 13.659C136.664 13.725 136.541 13.758 136.397 13.758C136.307 13.758 136.199 13.737 136.073 13.695C135.953 13.647 135.821 13.593 135.677 13.533C135.533 13.467 135.377 13.401 135.209 13.335C135.047 13.263 134.873 13.2 134.687 13.146L134.372 16.341ZM141.798 14.892C141.798 16.2 142.404 16.854 143.616 16.854C144.21 16.854 144.666 16.677 144.984 16.323C145.308 15.963 145.47 15.486 145.47 14.892C145.47 14.574 145.422 14.295 145.326 14.055C145.236 13.809 145.107 13.605 144.939 13.443C144.777 13.281 144.579 13.158 144.345 13.074C144.111 12.99 143.856 12.948 143.58 12.948C143.298 12.948 143.046 12.999 142.824 13.101C142.608 13.197 142.422 13.332 142.266 13.506C142.116 13.68 141.999 13.887 141.915 14.127C141.837 14.361 141.798 14.616 141.798 14.892ZM144.03 19.032C144.114 18.93 144.195 18.831 144.273 18.735C144.351 18.639 144.423 18.543 144.489 18.447C143.937 18.741 143.31 18.888 142.608 18.888C142.182 18.888 141.756 18.813 141.33 18.663C140.904 18.507 140.517 18.273 140.169 17.961C139.827 17.649 139.548 17.256 139.332 16.782C139.116 16.308 139.008 15.747 139.008 15.099C139.008 14.505 139.116 13.944 139.332 13.416C139.554 12.888 139.866 12.426 140.268 12.03C140.676 11.634 141.162 11.322 141.726 11.094C142.29 10.86 142.92 10.743 143.616 10.743C144.324 10.743 144.957 10.851 145.515 11.067C146.073 11.283 146.544 11.586 146.928 11.976C147.318 12.366 147.615 12.831 147.819 13.371C148.029 13.905 148.134 14.496 148.134 15.144C148.134 16.002 148.005 16.77 147.747 17.448C147.489 18.126 147.144 18.765 146.712 19.365L143.886 23.379C143.76 23.553 143.568 23.7 143.31 23.82C143.058 23.94 142.77 24 142.446 24H139.872L144.03 19.032ZM152.24 14.892C152.24 16.2 152.846 16.854 154.058 16.854C154.652 16.854 155.108 16.677 155.426 16.323C155.75 15.963 155.912 15.486 155.912 14.892C155.912 14.574 155.864 14.295 155.768 14.055C155.678 13.809 155.549 13.605 155.381 13.443C155.219 13.281 155.021 13.158 154.787 13.074C154.553 12.99 154.298 12.948 154.022 12.948C153.74 12.948 153.488 12.999 153.266 13.101C153.05 13.197 152.864 13.332 152.708 13.506C152.558 13.68 152.441 13.887 152.357 14.127C152.279 14.361 152.24 14.616 152.24 14.892ZM154.472 19.032C154.556 18.93 154.637 18.831 154.715 18.735C154.793 18.639 154.865 18.543 154.931 18.447C154.379 18.741 153.752 18.888 153.05 18.888C152.624 18.888 152.198 18.813 151.772 18.663C151.346 18.507 150.959 18.273 150.611 17.961C150.269 17.649 149.99 17.256 149.774 16.782C149.558 16.308 149.45 15.747 149.45 15.099C149.45 14.505 149.558 13.944 149.774 13.416C149.996 12.888 150.308 12.426 150.71 12.03C151.118 11.634 151.604 11.322 152.168 11.094C152.732 10.86 153.362 10.743 154.058 10.743C154.766 10.743 155.399 10.851 155.957 11.067C156.515 11.283 156.986 11.586 157.37 11.976C157.76 12.366 158.057 12.831 158.261 13.371C158.471 13.905 158.576 14.496 158.576 15.144C158.576 16.002 158.447 16.77 158.189 17.448C157.931 18.126 157.586 18.765 157.154 19.365L154.328 23.379C154.202 23.553 154.01 23.7 153.752 23.82C153.5 23.94 153.212 24 152.888 24H150.314L154.472 19.032ZM161.2 24.077C161.13 24.2683 161.018 24.4107 160.864 24.504C160.71 24.602 160.554 24.651 160.395 24.651H159.758L163.902 14.179C163.968 14.0063 164.068 13.8733 164.203 13.78C164.343 13.6867 164.502 13.64 164.679 13.64H165.316L161.2 24.077ZM169.111 16.748C169.639 16.748 170.115 16.8343 170.539 17.007C170.969 17.1797 171.333 17.4247 171.631 17.742C171.935 18.0593 172.168 18.4443 172.331 18.897C172.495 19.3497 172.576 19.8583 172.576 20.423C172.576 20.9877 172.495 21.4963 172.331 21.949C172.168 22.4017 171.935 22.789 171.631 23.111C171.333 23.4283 170.969 23.6733 170.539 23.846C170.115 24.0187 169.639 24.105 169.111 24.105C168.579 24.105 168.099 24.0187 167.669 23.846C167.245 23.6733 166.881 23.4283 166.577 23.111C166.274 22.789 166.041 22.4017 165.877 21.949C165.714 21.4963 165.632 20.9877 165.632 20.423C165.632 19.8583 165.714 19.3497 165.877 18.897C166.041 18.4443 166.274 18.0593 166.577 17.742C166.881 17.4247 167.245 17.1797 167.669 17.007C168.099 16.8343 168.579 16.748 169.111 16.748ZM169.111 22.929C169.755 22.929 170.234 22.7143 170.546 22.285C170.864 21.851 171.022 21.2327 171.022 20.43C171.022 19.6273 170.864 19.009 170.546 18.575C170.234 18.1363 169.755 17.917 169.111 17.917C168.458 17.917 167.973 18.1363 167.655 18.575C167.338 19.009 167.179 19.6273 167.179 20.43C167.179 21.2327 167.338 21.851 167.655 22.285C167.973 22.7143 168.458 22.929 169.111 22.929ZM175.576 17.7C175.721 17.5553 175.873 17.4223 176.031 17.301C176.195 17.175 176.365 17.07 176.542 16.986C176.724 16.8973 176.918 16.8297 177.123 16.783C177.329 16.7317 177.553 16.706 177.795 16.706C178.187 16.706 178.535 16.7737 178.838 16.909C179.142 17.0397 179.394 17.2263 179.594 17.469C179.8 17.707 179.954 17.994 180.056 18.33C180.164 18.6613 180.217 19.0277 180.217 19.429V24H178.488V19.429C178.488 18.9903 178.388 18.652 178.187 18.414C177.987 18.1713 177.681 18.05 177.27 18.05C176.972 18.05 176.692 18.1177 176.43 18.253C176.169 18.3883 175.922 18.5727 175.688 18.806V24H173.959V16.818H175.016C175.24 16.818 175.387 16.923 175.457 17.133L175.576 17.7ZM186.489 19.583C186.489 19.359 186.456 19.149 186.391 18.953C186.33 18.7523 186.237 18.5773 186.111 18.428C185.985 18.2787 185.824 18.162 185.628 18.078C185.436 17.9893 185.212 17.945 184.956 17.945C184.456 17.945 184.062 18.0873 183.773 18.372C183.488 18.6567 183.306 19.0603 183.227 19.583H186.489ZM183.192 20.626C183.22 20.9947 183.285 21.3143 183.388 21.585C183.49 21.851 183.626 22.0727 183.794 22.25C183.962 22.4227 184.16 22.5533 184.389 22.642C184.622 22.726 184.879 22.768 185.159 22.768C185.439 22.768 185.679 22.7353 185.88 22.67C186.085 22.6047 186.262 22.5323 186.412 22.453C186.566 22.3737 186.699 22.3013 186.811 22.236C186.927 22.1707 187.039 22.138 187.147 22.138C187.291 22.138 187.399 22.1917 187.469 22.299L187.966 22.929C187.774 23.153 187.56 23.342 187.322 23.496C187.084 23.6453 186.834 23.7667 186.573 23.86C186.316 23.9487 186.052 24.0117 185.782 24.049C185.516 24.0863 185.257 24.105 185.005 24.105C184.505 24.105 184.041 24.0233 183.612 23.86C183.182 23.692 182.809 23.447 182.492 23.125C182.174 22.7983 181.925 22.397 181.743 21.921C181.561 21.4403 181.47 20.885 181.47 20.255C181.47 19.765 181.549 19.3053 181.708 18.876C181.866 18.442 182.093 18.0663 182.387 17.749C182.685 17.427 183.047 17.1727 183.472 16.986C183.901 16.7993 184.384 16.706 184.921 16.706C185.373 16.706 185.791 16.7783 186.174 16.923C186.556 17.0677 186.885 17.28 187.161 17.56C187.436 17.8353 187.651 18.176 187.805 18.582C187.963 18.9833 188.043 19.443 188.043 19.961C188.043 20.2223 188.015 20.3997 187.959 20.493C187.903 20.5817 187.795 20.626 187.637 20.626H183.192ZM199.99 24H198.261V18.113H194.929V22.005C194.929 22.229 194.982 22.404 195.09 22.53C195.202 22.656 195.353 22.719 195.545 22.719C195.652 22.719 195.741 22.7073 195.811 22.684C195.885 22.656 195.948 22.628 196 22.6C196.056 22.572 196.105 22.5463 196.147 22.523C196.189 22.495 196.231 22.481 196.273 22.481C196.324 22.481 196.366 22.495 196.399 22.523C196.431 22.5463 196.466 22.5837 196.504 22.635L197.022 23.475C196.77 23.685 196.48 23.8437 196.154 23.951C195.827 24.0583 195.489 24.112 195.139 24.112C194.513 24.112 194.033 23.937 193.697 23.587C193.365 23.2323 193.2 22.7447 193.2 22.124V18.113H192.465C192.371 18.113 192.292 18.0827 192.227 18.022C192.161 17.9613 192.129 17.8703 192.129 17.749V17.063L193.284 16.867L193.648 14.914C193.671 14.8207 193.715 14.7483 193.781 14.697C193.846 14.6457 193.93 14.62 194.033 14.62H194.929V16.881H199.99V24ZM200.291 14.697C200.291 14.8463 200.26 14.9887 200.2 15.124C200.139 15.2547 200.057 15.369 199.955 15.467C199.857 15.565 199.738 15.6443 199.598 15.705C199.462 15.761 199.318 15.789 199.164 15.789C199.014 15.789 198.874 15.761 198.744 15.705C198.613 15.6443 198.499 15.565 198.401 15.467C198.303 15.369 198.223 15.2547 198.163 15.124C198.107 14.9887 198.079 14.8463 198.079 14.697C198.079 14.543 198.107 14.4007 198.163 14.27C198.223 14.1347 198.303 14.018 198.401 13.92C198.499 13.8173 198.613 13.738 198.744 13.682C198.874 13.6213 199.014 13.591 199.164 13.591C199.318 13.591 199.462 13.6213 199.598 13.682C199.738 13.738 199.857 13.8173 199.955 13.92C200.057 14.018 200.139 14.1347 200.2 14.27C200.26 14.4007 200.291 14.543 200.291 14.697ZM201.754 24V16.818H202.811C203.035 16.818 203.182 16.923 203.252 17.133L203.364 17.665C203.49 17.525 203.621 17.3967 203.756 17.28C203.896 17.1633 204.043 17.063 204.197 16.979C204.356 16.895 204.524 16.8297 204.701 16.783C204.883 16.7317 205.082 16.706 205.296 16.706C205.749 16.706 206.12 16.8297 206.409 17.077C206.703 17.3197 206.923 17.644 207.067 18.05C207.179 17.812 207.319 17.609 207.487 17.441C207.655 17.2683 207.84 17.1283 208.04 17.021C208.241 16.9137 208.453 16.8343 208.677 16.783C208.906 16.7317 209.135 16.706 209.363 16.706C209.76 16.706 210.112 16.7667 210.42 16.888C210.728 17.0093 210.987 17.1867 211.197 17.42C211.407 17.6533 211.566 17.938 211.673 18.274C211.785 18.61 211.841 18.995 211.841 19.429V24H210.112V19.429C210.112 18.9717 210.012 18.6287 209.811 18.4C209.611 18.1667 209.317 18.05 208.929 18.05C208.752 18.05 208.586 18.0803 208.432 18.141C208.283 18.2017 208.15 18.2903 208.033 18.407C207.921 18.519 207.833 18.6613 207.767 18.834C207.702 19.0067 207.669 19.205 207.669 19.429V24H205.933V19.429C205.933 18.9483 205.835 18.5983 205.639 18.379C205.448 18.1597 205.166 18.05 204.792 18.05C204.54 18.05 204.305 18.113 204.085 18.239C203.871 18.3603 203.67 18.5283 203.483 18.743V24H201.754ZM218.112 19.583C218.112 19.359 218.079 19.149 218.014 18.953C217.953 18.7523 217.86 18.5773 217.734 18.428C217.608 18.2787 217.447 18.162 217.251 18.078C217.06 17.9893 216.836 17.945 216.579 17.945C216.08 17.945 215.685 18.0873 215.396 18.372C215.111 18.6567 214.929 19.0603 214.85 19.583H218.112ZM214.815 20.626C214.843 20.9947 214.908 21.3143 215.011 21.585C215.114 21.851 215.249 22.0727 215.417 22.25C215.585 22.4227 215.783 22.5533 216.012 22.642C216.245 22.726 216.502 22.768 216.782 22.768C217.062 22.768 217.302 22.7353 217.503 22.67C217.708 22.6047 217.886 22.5323 218.035 22.453C218.189 22.3737 218.322 22.3013 218.434 22.236C218.551 22.1707 218.663 22.138 218.77 22.138C218.915 22.138 219.022 22.1917 219.092 22.299L219.589 22.929C219.398 23.153 219.183 23.342 218.945 23.496C218.707 23.6453 218.457 23.7667 218.196 23.86C217.939 23.9487 217.676 24.0117 217.405 24.049C217.139 24.0863 216.88 24.105 216.628 24.105C216.129 24.105 215.664 24.0233 215.235 23.86C214.806 23.692 214.432 23.447 214.115 23.125C213.798 22.7983 213.548 22.397 213.366 21.921C213.184 21.4403 213.093 20.885 213.093 20.255C213.093 19.765 213.172 19.3053 213.331 18.876C213.49 18.442 213.716 18.0663 214.01 17.749C214.309 17.427 214.67 17.1727 215.095 16.986C215.524 16.7993 216.007 16.706 216.544 16.706C216.997 16.706 217.414 16.7783 217.797 16.923C218.18 17.0677 218.509 17.28 218.784 17.56C219.059 17.8353 219.274 18.176 219.428 18.582C219.587 18.9833 219.666 19.443 219.666 19.961C219.666 20.2223 219.638 20.3997 219.582 20.493C219.526 20.5817 219.419 20.626 219.26 20.626H214.815Z" fill="white"/>
</svg>
