<?xml version="1.0" encoding="utf-8"?>
<!-- Generator: Adobe Illustrator 16.0.2, SVG Export Plug-In . SVG Version: 6.00 Build 0)  -->
<!DOCTYPE svg PUBLIC "-//W3C//DTD SVG 1.1//EN" "http://www.w3.org/Graphics/SVG/1.1/DTD/svg11.dtd">
<svg version="1.1" id="Layer_1" xmlns="http://www.w3.org/2000/svg" xmlns:xlink="http://www.w3.org/1999/xlink" x="0px" y="0px"
	 width="250px" height="35px" viewBox="0 0 250 35" enable-background="new 0 0 250 35" xml:space="preserve">
<path fill="#DF6239" d="M247.434,18.188c0.614,0.27,1.426,0.223,2.193,0.223c0,0.006,0.219,0.076,0.373,0.131l-0.352,0.186
	c-0.149,0.078-0.399,0.14-0.703,0.172c-0.301,0.031-0.637,0.031-0.941,0.002c-0.352-0.012-0.461-0.149-1.053-0.161
	c-0.592-0.013-0.285,0.251-0.592,0.327c-0.726,0.162-1.559,0.014-2.303,0.091c-0.396,0.043-0.285,0.149-0.111,0.252
	c0.08,0.028,0.141,0.061,0.177,0.096c0.044,0.113,0.088,0.3-0.241,0.3c-1.273,0.053-2.281,0.405-3.466,0.562
	c-0.528,0.05-0.968,0.151-1.228,0.286c-0.154,0.107,0.174,0.336,0.307,0.503c0.158,0.305-0.075,0.614-0.658,0.878
	c-0.898,0.47-1.316,0.996-1.206,1.523c0.021,0.03-0.153,0.065-0.153,0.096c-0.308,0.174-0.264,0.252,0.308,0.3
	c0.476,0.062,0.918,0.14,1.315,0.233c0.119,0.026,0.215,0.061,0.281,0.099s0.1,0.08,0.1,0.122c0,0.043-0.032,0.084-0.1,0.123
	c-0.066,0.037-0.162,0.07-0.281,0.099c-1.041,0.229-1.854,0.528-2.369,0.866c-0.438,0.209-0.065,0.563,0.681,0.598
	c0.272,0.014,0.528,0.045,0.751,0.092c0.221,0.045,0.398,0.104,0.521,0.172l0.021,0.004c0.144,0.027,0.237,0.047,0.133,0.093
	c-0.108,0.047-0.239,0.125-0.373,0.125c-0.344,0.022-0.702,0.022-1.046,0s-0.662-0.067-0.929-0.132
	c-0.284-0.084-0.921,0.154-0.854,0.3c0.065,0.144,0.461,0.244-0.176,0.321c-0.636,0.078-0.504,0.168-0.264,0.281
	s0.482,0.228,0.701,0.346c-1.029,0.365,0.045,0.951-0.834,1.334c-0.195,0.084-0.373,0.119,0.11,0.162
	c0.483,0.041,1.097,0.023,1.47,0.041c0.373,0.019,0.549,0.181,0.549,0.354c-0.088,0.341-1.359,0.801-1.844,0.807
	c-0.48,0.006-0.92-0.238-1.469,0.036c-0.329,0.181-1.009,0.238-1.426,0.396c-0.361,0.16-0.857,0.297-1.449,0.395
	c-0.591,0.1-1.259,0.158-1.949,0.174c-0.594,0-1.119,0.274-1.777,0c-0.153-0.065-0.68,0.019-0.68,0.144
	c-0.481,0.557-1.58,0.614-2.677,0.754c-0.592-0.271-0.965-0.072-1.36,0.103c-0.063,0.022,0.022,0.028-0.24,0.07
	c-0.264,0.042-0.657,0.089-0.79,0.042c-0.636-0.239-1.622-0.162-2.192-0.187c-0.568-0.022-1.162,0.023-1.688-0.125
	c-0.525-0.149-0.592-0.107-1.137,0.23l-0.005,0.002c-0.176,0.078-0.417,0.096-0.417,0c-0.152-0.357-0.482-0.293-1.117-0.148
	c-0.756,0.187-1.746,0.285-2.765,0.273c-3.137-0.041-6.295,0-9.454,0c-0.854,0-1.754-0.047-2.521,0.168
	c-0.504-0.168-1.008-0.238-1.578-0.029c-0.066,0.023-0.461-0.006-0.461-0.049c-0.637-0.322-1.207-0.375-2.193-0.137
	c-0.664,0.174-1.531,0.278-2.451,0.295c-0.919,0.016-1.83-0.057-2.572-0.205c-0.438-0.061-0.48-0.066-1.053,0.061
	c-0.563,0.123-0.591,0.107-1.158-0.196l-0.024-0.015c-0.125-0.049-0.281-0.09-0.461-0.125c-0.046-0.006-0.095-0.008-0.144-0.008
	c-0.05,0-0.098,0.002-0.143,0.008c-0.059,0.007-0.111,0.017-0.153,0.027c-0.043,0.014-0.073,0.027-0.091,0.045
	c-0.018,0.016-0.02,0.033-0.008,0.049c0.012,0.019,0.037,0.033,0.076,0.047c0.285,0.148,0.373,0.287-0.262,0.287
	c-0.201,0.015-0.414,0.013-0.607-0.01c-0.193-0.02-0.357-0.057-0.469-0.104c-0.834-0.329-0.789-0.348-1.578-0.096
	c-0.791,0.25-1.426,0.311-2.194,0.082c-0.22-0.064-0.657-0.106-0.789-0.064c-0.438,0.154-0.899,0.084-1.229,0
	c-0.327-0.083-0.789,0-0.877,0.191c-0.088,0.19-0.328,0.322-0.832,0.19c-0.506-0.132-0.813-0.065-1.271,0
	c-0.922,0.149-1.143,0.024-1.447-0.448c-0.089-0.168-0.264-0.197-0.525-0.102l-1.075,0.412c-0.132,0.054-0.308,0.138-0.461,0.138
	c-1.733,0.06-3.509,0.215-4.957-0.353c-0.097-0.07-0.177-0.144-0.241-0.215c-0.088-0.062-0.352-0.03-0.352,0.07
	c-0.088,0.245-0.613,0.335-1.008,0.317c-0.396-0.019-0.877,0.018-1.142-0.066c-0.834-0.293-1.382-0.161-1.952,0.132
	c-0.109,0.055-0.308,0.077-0.461,0.119l-0.417-0.305l-0.263-0.305c-0.165,0.047-0.319,0.097-0.462,0.148l-0.013,0.006
	c-0.41,0.182-0.761,0.338-1.369,0.072c-0.131-0.043-0.525-0.043-0.812-0.043l0,0c-0.065-0.113-0.241-0.18-0.526-0.209
	s-0.658-0.061-0.854,0c-0.524,0.141-0.978,0.299-1.338,0.473c-0.401,0.174-0.62,0.123-1.108,0.012l-0.054-0.012
	c-0.526-0.119-0.746,0.023-1.229,0.228c-0.482,0.204-1.162,0.209-1.514,0.055c-0.352-0.155-0.833-0.062-1.053,0
	c-0.219,0.06-0.658,0.144-0.768,0.103c-0.746-0.258-1.359-0.252-2.084,0c-0.154,0.041-0.57,0-0.854,0
	c-0.362,0.02-0.738,0.012-1.081-0.026c-0.344-0.037-0.639-0.101-0.85-0.183c-0.592,0.131-1.186,0.269-1.776,0.395
	c-0.177,0-0.461,0.035-0.569,0c-1.031-0.359-2.261-0.197-3.4-0.197c-0.206,0.002-0.413-0.01-0.6-0.033
	c-0.188-0.022-0.351-0.061-0.476-0.104c-0.46-0.179-0.987-0.047-1.294,0.043c-0.307,0.089-0.241-0.12-0.725-0.084
	c-0.481,0.035-0.395,0.399-0.854,0.383c-0.461-0.019-0.79-0.18-1.338-0.168c-0.548,0.013-0.943,0.281-1.601,0.197
	c-0.184-0.026-0.353-0.06-0.506-0.097c0.088-0.047,0.196-0.092,0.328-0.131c0.154-0.043,0.396-0.049,0.506-0.096
	c0.11-0.068,0.155-0.143,0.131-0.216c-0.021-0.089-0.22-0.144-0.371-0.089c-0.166,0.054-0.373,0.098-0.609,0.126
	s-0.493,0.043-0.751,0.04c-0.746,0-0.527,0.419-1.163,0.461c-0.637,0.042-1.053-0.107-1.579-0.174
	c-0.548,0.24-1.294,0.132-1.931,0.203c-0.594,0.049-1.225,0.049-1.82,0c-0.548,0-1.141,0.131-1.754,0
	c-0.19-0.021-0.401-0.023-0.597-0.008c-0.197,0.017-0.366,0.051-0.478,0.098c-0.68,0.4-1.513,0.264-2.193,0.078
	c-0.68-0.187-1.251-0.113-1.821,0c-0.57,0.112-1.14,0.035-2.018,0.054c-0.877,0.019-1.732-0.077-2.566,0.149
	c-0.307,0.09-0.855-0.228-1.272-0.119c-0.417,0.107-0.746,0.186-1.338,0.186c-0.592,0-1.097-0.223-1.799,0
	c-0.394,0.089-1.162,0-1.732,0h-2.084c-0.584-0.013-1.171-0.013-1.755,0c-0.401,0.02-0.777,0.066-1.096,0.137
	c-0.395,0.107-0.614,0.156-1.053,0c-0.439-0.154-0.877-0.148-1.316,0c-0.066,0.023-0.241,0.062-0.241,0.062
	c-1.053-0.359-2.106-0.203-3.247,0c-0.658,0.112-1.558,0.028-2.347,0.028c-2.105,0.037-4.255-0.148-6.338,0.155
	c-0.658-0.274-1.185-0.071-1.821,0.042c-0.177,0.025-0.38,0.035-0.578,0.026c-0.198-0.009-0.38-0.034-0.519-0.074
	c-0.57-0.155-1.031-0.179-1.579,0c-0.111,0.028-0.244,0.049-0.387,0.062c-0.144,0.013-0.296,0.017-0.446,0.011h-6.58
	c-0.306,0.006-0.612-0.009-0.896-0.039c-0.285-0.03-0.541-0.078-0.749-0.14c-0.504-0.133-1.162-0.103-1.601,0.106
	c-0.151,0.095-0.404,0.175-0.725,0.229c-0.321,0.055-0.695,0.08-1.073,0.076c-2.062-0.037-4.124,0-6.185,0
	c-0.376,0.002-0.747-0.024-1.067-0.08c-0.319-0.055-0.574-0.133-0.732-0.226c-0.724-0.305-0.768,0.114-0.855,0.167
	c-0.088,0.055-0.373,0.096-0.482,0.096c-0.241-0.059-0.554-0.091-0.877-0.091c-0.323,0-0.636,0.032-0.877,0.091
	c-0.109,0.024-0.219,0.024-0.526-0.07c-0.307-0.096-0.329-0.245-0.877-0.299c-0.548-0.055-0.263,0.232-0.548,0.305
	c-0.149,0.037-0.331,0.063-0.527,0.076c-0.46,0.031-0.855-0.07-1.403,0.078c-0.548,0.149-0.768,0.107-1.185-0.078
	c-0.417-0.185-0.855-0.334-1.492-0.106c-0.1,0.043-0.231,0.079-0.387,0.106c-0.156,0.027-0.331,0.045-0.513,0.052
	c-0.183,0.008-0.37,0.005-0.547-0.011c-0.177-0.014-0.342-0.036-0.483-0.069c-1.601-0.396-2.982-0.174-4.386,0.112
	c-0.176,0.037-0.022,0.072-0.505,0.127c-0.482,0.054-1.075,0.089-1.381-0.078c-0.549-0.316-1.426-0.4-2.193-0.557
	c-0.141-0.031-0.305-0.056-0.48-0.069c-0.176-0.015-0.361-0.019-0.543-0.011c-0.182,0.006-0.356,0.023-0.513,0.051
	c-0.157,0.027-0.291,0.061-0.394,0.103c0,0.388-0.987,0.322-1.404,0.521c-0.219,0.102-0.57,0.107-0.79,0.035
	c-0.193-0.066-0.437-0.121-0.713-0.16c-0.277-0.039-0.581-0.063-0.893-0.066s-0.623,0.01-0.913,0.041
	c-0.291,0.03-0.554,0.078-0.771,0.139c-0.198,0.035-0.307,0.041-0.504-0.029c-0.439-0.167-0.921-0.102-1.25,0.035
	c-0.329,0.138-0.768,0.4-1.184,0.287c-1.141-0.299-2.325-0.084-3.334-0.299c-0.439-0.09-0.658-0.041-0.987,0.029l0,0
	c-0.086,0.027-0.192,0.049-0.312,0.063c-0.119,0.017-0.249,0.022-0.379,0.022c-0.13,0-0.26-0.007-0.379-0.022
	c-0.119-0.014-0.226-0.035-0.312-0.063c-0.438-0.137-0.548-0.275-1.294-0.041c-0.746,0.232-1.426,0.189-2.083-0.09
	c-0.439-0.186-0.461-0.162-1.009,0.113c-0.045,0.022-0.115,0.043-0.2,0.058s-0.183,0.021-0.282,0.021
	c-0.1-0.004-0.195-0.016-0.276-0.031s-0.144-0.038-0.185-0.063c-0.058-0.075-0.058-0.151,0-0.228
	c-0.022-0.161-0.088-0.354-0.548-0.354c-0.812,0.012-1.185-0.148-1.47-0.431c-0.175-0.173-0.57-0.197,0.263-0.306
	c0.833-0.107,1.25-0.34,1.119-0.705h-0.241c-0.592,0.119-1.119,0.479-1.623,0.432c-0.504-0.049-0.921-0.275-1.382-0.407
	c-0.131-0.036-0.351-0.03-0.548,0c-0.197,0.03-0.197,0.097,0,0.173c0.225,0.082,0.43,0.168,0.614,0.258
	c0.051,0.062,0.087,0.123,0.109,0.187c-0.79-0.019-1.359,0.531-2.325,0.147c-0.175-0.082-0.526-0.082-0.79-0.082
	c-0.188-0.016-0.371-0.032-0.548-0.055c-0.197-0.018-0.329-0.251-0.197-0.305c0.228-0.15,0.609-0.277,1.097-0.371
	c0.391-0.064,0.709-0.158,0.921-0.27c0.149-0.101,0.216-0.209,0.198-0.316c0-0.041-0.307-0.113-0.461-0.113h-2.939h-1.448
	c-0.087,0-0.241-0.06-0.241-0.06c0.033-0.065,0.107-0.128,0.219-0.187c0.263-0.119,0.57-0.197,1.009-0.197
	c0.899,0.049,1.601-0.118,2.193-0.411c0.126-0.038,0.284-0.066,0.46-0.084c-0.066-0.065-0.088-0.149-0.219-0.185
	c-0.943-0.271-2.149-0.259-3.137-0.503c-0.307-0.071-0.724,0.054-0.724,0.257c0,0.078,0.044,0.19,0,0.239
	c-0.044,0.048-0.219,0.083-0.351,0.125c-0.08-0.028-0.14-0.062-0.175-0.096c-0.088-0.149,0-0.365-0.219-0.437
	c-0.68-0.191-1.58-0.103-2.193-0.336c-0.066-0.022-0.307-0.006-0.526,0.055c-0.22,0.06-0.11,0.228-0.724,0.06
	c-0.62-0.171-1.52-0.22-1.213-0.674c0.101-0.099,0.063-0.204-0.108-0.296s-0.46-0.164-0.813-0.2
	c-0.175-0.024-0.131-0.149,0.132-0.149c0.79-0.064,0.855-0.299,0.504-0.49c-0.351-0.19,0.219-0.262,0.219-0.389
	c0.11-0.257,0.263-0.537-0.79-0.598c-0.263-0.018-0.373-0.203,0-0.395s0.548-0.187,0.987,0.055c0.176,0.096,0.417,0.119,0.417,0.029
	c0.125-0.181,0.385-0.353,0.762-0.504c0.377-0.152,0.864-0.281,1.431-0.381c0.526-0.085,0.57-0.449,1.338-0.537
	c0.46-0.05,0.197-0.259,0-0.4c-0.388-0.313-0.162-0.363,0.221-0.451l0.02-0.004c0.395-0.09,0.812-0.167,1.228-0.251v-0.228
	c-0.065-0.162-0.548-0.306-0.79-0.232c-0.396,0.119-0.77,0.246-1.119,0.377c-0.351,0.125-1.031,0.07-1.119,0.07l0,0
	c-0.087,0-0.087,0-0.241-0.054c-0.153-0.055-0.109-0.112,0.132-0.161c0.241-0.048,0.702-0.107,0.702-0.154
	c-0.087-0.6,0.833-0.635,1.908-0.6c0.386,0.014,0.776,0.014,1.163,0c0.329-0.012,0.548-0.095,0.548-0.228
	c0.068-0.066,0.164-0.13,0.285-0.19c0.746,0.342,1.974,0.119,2.764,0.305c0.79,0.187,1.404,0.013,1.667-0.353V22.85
	c-0.015-0.086,0.059-0.175,0.214-0.252c0.155-0.076,0.384-0.141,0.663-0.185c1.102-0.088,2.1-0.252,2.896-0.479
	c0.943,0.317,0.833-0.25,1.272-0.25c1.163-0.055,2.149-0.358,3.356-0.287c0.088,0.006,0.417-0.102,0.329-0.131
	c-0.088-0.031-0.241-0.072-0.241-0.072c-0.189-0.01-0.382-0.01-0.57,0c-0.592-0.029-1.184-0.029-1.754-0.029l0,0
	c-0.153-0.003-0.301-0.016-0.431-0.037s-0.238-0.052-0.314-0.089c-0.115-0.103-0.16-0.209-0.132-0.315
	c-1.491,0.012-2.742,0.383-4.189,0.483c-0.768,0.054-1.382,0.358-1.711,0.688c-0.19,0.014-0.39,0.016-0.583,0.004
	c-0.193-0.01-0.375-0.033-0.53-0.066c-0.155-0.032-0.28-0.074-0.365-0.123s-0.127-0.102-0.124-0.154
	c-0.11-0.432-0.987-0.766-0.768-1.227c0.079-0.128,0.063-0.26-0.046-0.385c-0.109-0.127-0.31-0.246-0.59-0.351
	c-0.426-0.116-0.751-0.256-0.953-0.409c-0.202-0.154-0.273-0.318-0.21-0.48l-0.019-0.01c-0.48-0.238-1.128-0.561-1.648-0.619
	c-0.526-0.059-0.812-0.208-1.162-0.334c-0.245-0.061-0.428-0.138-0.532-0.224c-0.104-0.085-0.125-0.177-0.061-0.266
	c0.153-0.144,0.943-0.144,1.031-0.144h0.285c0.152-0.054,0.25-0.118,0.285-0.185c0.044-0.07-0.002-0.142-0.132-0.203
	c-0.395-0.108-1.009-0.215-1.25-0.281c-0.241-0.065-0.877,0.06-0.68-0.221c0.076-0.096,0.186-0.19,0.329-0.281H9.566
	c-0.436-0.315-0.972-0.619-1.601-0.909c-0.329-0.131-0.965-0.161-0.636-0.4c0.035-0.036,0.106-0.068,0.205-0.094
	c0.099-0.026,0.222-0.044,0.355-0.052c0.134-0.008,0.273-0.006,0.402,0.006c0.129,0.012,0.244,0.033,0.332,0.062
	c0.658,0.209,1.031,0.114,1.36-0.114c0.283-0.205,0.518-0.414,0.702-0.627c0.066-0.054-0.153-0.137-0.153-0.209
	c-0.088,0.01-0.169,0.024-0.241,0.042l-1.097,0.335c-0.57-0.215-0.855-0.114-0.855,0.144c-0.044,0.107-0.219,0.12-0.417,0.065
	c-0.217-0.053-0.444-0.103-0.68-0.149c0.373-0.287,0.46-0.651,1.448-0.771c0.285-0.048,0.351-0.221,0.285-0.424
	s-0.263-0.233-0.833-0.245c-0.57-0.012-1.185,0.054-1.645-0.161c-0.154-0.06-0.285-0.03-0.483,0.036
	c-0.614,0.228-1.162,0.012-1.469-0.125c-0.307-0.137,0.044-0.203,0.219-0.227c0.175-0.024,0.482-0.06,0.482-0.089
	c0.022-0.156-0.263-0.156-0.548-0.156H3.819c-0.083,0.001-0.167-0.001-0.247-0.008c-0.08-0.007-0.153-0.019-0.216-0.034
	s-0.115-0.033-0.152-0.053s-0.06-0.043-0.065-0.065c-0.11-0.173,0.11-0.287,0.592-0.317c0.153-0.006,0.285-0.084,0.417-0.125
	c-0.151-0.042-0.321-0.078-0.504-0.108c-0.189-0.006-0.381-0.006-0.57,0c-0.094,0.005-0.191,0.005-0.285,0
	c-0.14-0.039-0.236-0.087-0.279-0.14c-0.043-0.053-0.03-0.108,0.038-0.159c0.241-0.173,0.461-0.316,0-0.49
	c0.132-0.042,0.373-0.114,0.373-0.114c0.746,0.048,1.513,0.281,2.193,0.239c0.68-0.042,1.557-0.132,2.193,0.149l1.842-0.215
	c0.088-0.012,0.307-0.048,0.219-0.078c-0.087-0.03-0.219-0.084-0.219-0.084c-0.417-0.071-0.965-0.239-1.25-0.185
	c-0.746,0.149-1.25,0.263-1.426-0.191C6.436,9.86,6.376,9.829,6.298,9.803c-0.614,0.167-1.206,0.263-1.798,0
	c-1.185,0.424-2.325,0.113-3.509,0C0.486,9.749,0.025,9.725,0.025,9.468C-0.041,9.347,0.023,9.223,0.21,9.111
	C0.397,8.999,0.699,8.906,1.078,8.84c0.13-0.021,0.277-0.031,0.428-0.031c0.15,0,0.297,0.011,0.427,0.031
	c0.22,0.042,0.329,0.173,0.483,0.263c0.351,0.209,0.79,0.239,1.097,0.054C3.648,9.06,3.758,8.96,3.841,8.858l0.833,0.329
	C4.597,9.214,4.538,9.244,4.5,9.276C4.443,9.34,4.399,9.403,4.368,9.468c0.175,0.048,0.373,0.06,0.548,0.048
	c0.176-0.012,0.329-0.066,0.483-0.12c0.702-0.269,0.658-0.382-0.154-0.598c-0.13-0.025-0.24-0.058-0.322-0.095
	S4.788,8.625,4.768,8.581C4.747,8.538,4.759,8.494,4.804,8.452c0.044-0.042,0.12-0.081,0.222-0.114L5.64,8.081V7.89
	C5.508,7.364,5.443,7.394,6.474,7.364c1.031-0.03,2.149,0.131,3.114-0.174c0.658,0.209,1.141,0.066,1.733-0.089
	c0.592-0.156,1.25-0.054,1.513,0s0.636-0.024,0.636-0.156c0.056-0.051,0.055-0.106-0.003-0.157
	c-0.059-0.051-0.172-0.096-0.326-0.129c-0.241-0.054-0.724-0.114-0.724-0.156c0.132-0.598-0.812-0.598-1.82-0.598
	c-0.198-0.382,0.68-0.609,0.855-0.938c0.035-0.132,0.195-0.259,0.464-0.369c0.269-0.11,0.638-0.199,1.071-0.259
	c0.461-0.076,0.889-0.166,1.272-0.269c0.417-0.102,0.702-0.024,1.075,0.048c0.987,0.186,1.031,0.186,1.755-0.203
	c0.285-0.138,0.482-0.06,0.68,0c0.526,0.162,0.812,0.162,1.229-0.102c0.417-0.263,0.768-0.61,1.053-0.825
	c0.285-0.215,0.943-0.407,1.294-0.437c0.351-0.03,0.461-0.048,0.154-0.239s0.022-0.204,0.285-0.191
	c0.263,0.012,0.504,0.096,0.79,0.131c0.965,0.131,1.667,0.042,1.996-0.245c0.329-0.287,0.68-0.442,1.47-0.4
	c0.392,0.018,0.792,0.018,1.185,0c0.702-0.03,1.053,0.096,1.228,0.365c0.066,0.125,0.241,0.144,0.373,0
	c0.131-0.144,0.022-0.275,0.658-0.335c0.636-0.06,1.14,0.167,1.579,0.144c0.438-0.024,0.833-0.293,1.294-0.06
	c0.46,0.233,0.812-0.149,1.184,0c0.152,0.058,0.359,0.103,0.599,0.13c0.24,0.028,0.504,0.036,0.761,0.025
	c0.262-0.002,0.519-0.02,0.75-0.053c0.231-0.033,0.433-0.081,0.587-0.138c0.16-0.032,0.351-0.05,0.548-0.054
	c0.855-0.048,1.798,0.12,2.5-0.209c0.877-0.012,1.754-0.048,2.632-0.048c0.153-0.006,0.636-0.066,0.482-0.102
	c-0.153-0.036-0.285-0.114-0.438-0.114c-0.196-0.009-0.396-0.009-0.592,0c-0.329,0-0.504-0.054-0.57-0.203
	c-0.066-0.149,0.153-0.245,0.438-0.245c0.768,0.006,1.294-0.072,1.426-0.418c0.062-0.068,0.191-0.13,0.373-0.179
	C43.245,0.056,43.512,0.016,43.804,0c0.307,0.006,0.482,0.072,0.482,0.251c0,0.18-0.131,0.424,0.57,0.424
	C44.9,0.555,45.075,0.46,45.36,0.46c0.658,0.006,1.47-0.012,1.974,0.131c0.504,0.143,0.504-0.066,0.504-0.149
	c0.176-0.263,0.57-0.239,1.163-0.227c0.592,0.012,0.592,0.179,0.592,0.34v0.359c0,0.149,0.022,0.215,0.504,0.245
	c0.482,0.03,0.943,0.018,1.382,0.155c0.438,0.138,0.614-0.125,0.987-0.125c0.182,0.013,0.359,0.031,0.526,0.054
	c0.702,0.114,0.724,0.114,0.943,0c0.438-0.227,0.614-0.556,1.513-0.64c0.285-0.03,0.439-0.239,0.658-0.37V0.125
	c0.047-0.031,0.114-0.059,0.197-0.083c0.141,0.057,0.244,0.119,0.307,0.185c0.044,0.115,0.044,0.231,0,0.347
	c-0.219,0.365-0.154,0.484,0.504,0.598c0.154,0.024,0.373-0.036,0.548-0.036c0.003-0.063-0.034-0.126-0.109-0.186
	c0-0.083-0.176-0.179,0-0.179c0.68-0.054,1.513-0.048,2.018-0.054c0.505-0.006,0.68-0.173,0.746-0.293
	c0.066-0.12,0.373-0.173,0.505-0.03c0.131,0.144,0.395,0.317,0.68,0.323c0.285,0.006,0.614,0.042,0.285,0.209l-0.877,0.46
	c-0.033,0.04-0.033,0.08,0,0.12c0.066,0.083,0.22,0.137,0.373,0.083l1.316-0.484c0.123-0.035,0.273-0.062,0.438-0.078
	c0.066,0.071,0.198,0.137,0.198,0.215v0.239c0.069,0.047,0.183,0.088,0.329,0.12c0.021,0.006,0.175-0.054,0.175-0.084
	c0.022-0.263,0.46-0.215,0.943-0.364s0.746-0.066,1.229,0c0.653,0.063,1.354,0.082,2.04,0.054c0.548-0.012,1.272,0.089,1.602-0.144
	c0.137-0.197,0.188-0.397,0.153-0.598c0.055-0.069,0.144-0.135,0.263-0.197c0.141,0.05,0.245,0.107,0.307,0.167
	c0.044,0.131,0.11,0.251,0.504,0.251h1.185c0.523,0.04,1.082,0.03,1.581-0.029c0.499-0.059,0.909-0.163,1.161-0.294
	c0.351-0.167,0.658-0.083,1.031,0.161c0.373,0.245,0.899,0.204,1.119,0.125c0.219-0.078,0.395-0.179,0.614-0.251
	c0.085-0.036,0.197-0.067,0.33-0.091c0.132-0.023,0.282-0.039,0.438-0.045c0.156-0.006,0.315-0.003,0.467,0.009
	c0.151,0.012,0.292,0.033,0.411,0.062c0.22,0.042,0.286,0.233,0.702,0.078c0.417-0.156,0.855-0.156,1.294,0
	c0.157,0.04,0.326,0.075,0.504,0.107c0.176,0.042,0.68-0.006,0.351,0.179c-0.088,0.066-0.351,0.036-0.526,0.066
	c-0.1,0.021-0.17,0.05-0.197,0.083c-0.029,0.025-0.029,0.053,0,0.078c0.066,0.054,0.241,0.054,0.241,0.054
	c0.893,0.009,1.755,0.09,2.479,0.233c0.702,0.072,1.557,0,2.347,0c0.351,0.018,0.877,0.185,1.009,0.209
	c0.132,0.023,0.395-0.012,0.526-0.06C87.971,1.299,88.024,1.226,88,1.154c-0.054-0.07-0.134-0.138-0.241-0.204
	c-0.143-0.099-0.21-0.205-0.197-0.311c0.019-0.029,0.063-0.057,0.128-0.081s0.151-0.043,0.249-0.057
	c0.098-0.013,0.207-0.02,0.316-0.02s0.217,0.007,0.315,0.021c0.571,0.07,1.097,0.165,1.557,0.281
	c0.205,0.094,0.311,0.201,0.307,0.311c0.021,0.112,0.021,0.223,0,0.335c0.186,0.011,0.378,0.011,0.564-0.001
	c0.186-0.011,0.36-0.033,0.511-0.065c0.802-0.195,1.652-0.375,2.544-0.538c0.746-0.137,1.623-0.167,2.193,0.03
	c0.57,0.197,1.513-0.024,1.776,0.287s0.614,0.371,1.272,0.186c0.205-0.063,0.484-0.105,0.789-0.12
	c0.856-0.03,1.777,0.096,2.501-0.209c0.965,0.006,1.908-0.089,2.851,0.138c0.247,0.047,0.534,0.076,0.833,0.084
	c0.299,0.008,0.601-0.004,0.878-0.036l0.102-0.01c2.464-0.241,2.494-0.244,4.657-0.026c1.009-0.233,1.952,0.167,2.961,0.048
	c0.351,0,0.9,0.078,1.141,0c1.184-0.347,2.478-0.179,3.729-0.179c0.351-0.006,0.723,0.131,1.052,0.149s0.812-0.12,0.987-0.048
	c0.176,0.072,0.307,0.072,0.483,0c0.57-0.227,1.031-0.113,1.491,0.078c0.198,0.078,0.461,0.203,0.68,0.197
	c0.22-0.006,0.373-0.107,0.658-0.221c0.285-0.113,0.461-0.221,1.031-0.173c0.569,0.048,1.25,0.173,1.646,0.191
	s0.746-0.269,1.25-0.042c0.197,0.078,0.526,0.054,0.813,0c0.729-0.024,1.465-0.024,2.191,0c0.285,0.048,0.592,0.078,0.813-0.03
	c0.481-0.239,1.25,0.239,1.667-0.113c0.292-0.033,0.617-0.037,0.919-0.01c0.301,0.026,0.56,0.081,0.728,0.153
	c0.832-0.275,1.645-0.083,2.191,0c0.548,0.084,0.965-0.227,1.623-0.191c1.535,0.065,3.025-0.138,4.389,0.215
	c1.314-0.072,2.762,0.215,3.969-0.203c0.658,0.03,1.535-0.078,1.996,0.096c0.461,0.174,0.834,0.114,1.295,0
	c0.479-0.096,0.992-0.178,1.535-0.245c0.68,0.293,1.754-0.006,2.479,0.257c0.285,0.095,0.636,0.06,1.009,0.203
	c0.372,0.144,0.636,0.161,0.943,0c0.657-0.317,1.403-0.424,2.303-0.138c0.373,0.149,0.724,0.114,1.031,0
	c0.116-0.046,0.28-0.083,0.47-0.105c0.191-0.022,0.4-0.029,0.604-0.021c0.168,0,0.33,0.017,0.457,0.046
	c0.129,0.029,0.215,0.07,0.246,0.115c0.088,0.103,0.197,0.299,0.396,0.233c0.481-0.179,0.942,0.072,1.229,0
	c0.115-0.051,0.276-0.092,0.469-0.122c0.191-0.029,0.408-0.044,0.627-0.044c0.22,0,0.436,0.015,0.627,0.044
	c0.191,0.029,0.354,0.071,0.471,0.122c0.504,0.144,0.898,0,1.029-0.197c0.133-0.197,0.373-0.275,0.9-0.144
	c0.525,0.132,1.073,0.221,1.557,0.054c0.484-0.167,0.813-0.239,1.602,0c0.79,0.239,1.667,0.107,2.084-0.09
	c0.417-0.197,0.68-0.311,1.535-0.257c0.855,0.054,1.777-0.096,2.544,0.173c0.593-0.089,1.207-0.281,1.8,0
	c1.205-0.34,2.324,0.215,3.508,0.072c0.066-0.006,0.285,0.018,0.222,0.072c-0.066,0.054-0.242,0.144-0.242,0.144
	c-0.385-0.01-0.771,0.015-1.097,0.071c-0.324,0.056-0.571,0.141-0.702,0.24c-0.328,0.185-0.834,0.185-1.293,0.185V1.96
	c0.741,0.046,1.516,0.038,2.239-0.026c0.728-0.063,1.375-0.178,1.884-0.333c0.138-0.041,0.309-0.072,0.5-0.092
	c0.188-0.02,0.394-0.027,0.597-0.021c0.883-0.018,1.771-0.018,2.653,0c0.657,0.024,1.141-0.251,1.602-0.215
	c0.462,0.036,0.658,0.197,1.339,0.197c0.68,0,1.118-0.024,2.063,0c0.943,0.023,1.974-0.114,2.785,0.209
	c1.801,0.034,3.535,0.199,5.021,0.478c0.594,0.066,1.36,0,2.04,0c0.681,0,1.491-0.012,2.062,0c0.57,0.012,0.703,0.12,0.373,0.418
	c-0.131,0.096-0.438,0.191,0,0.251c0.086,0.014,0.186,0.022,0.285,0.022c0.102,0,0.199-0.008,0.285-0.022
	c0.479-0.12,0.783-0.284,0.854-0.46c0.11-0.191,0.526-0.233,0.899-0.138c0.166,0.054,0.369,0.098,0.601,0.13
	c0.229,0.032,0.479,0.051,0.737,0.056h3.816c0.197,0,0.46-0.036,0.592,0c0.57,0.161,1.096,0.353,1.776,0.06
	c1.711,0.353,3.618,0.048,5.374,0.209c0.088,0.006,0.307,0.042,0.24,0.072c-0.064,0.03-0.196,0.084-0.196,0.084
	c-0.658,0.06-1.272,0.317-2.04,0.06c-0.152-0.078-0.746-0.018-0.855,0c-0.108,0.018-0.153,0.096-0.263,0.186
	c-0.11,0.089-0.022,0.191,0.197,0.191c0.854,0.03,1.733,0.066,2.61,0.066c0.461,0.006,0.635-0.149,0.941-0.257
	c0.309-0.108,0.614-0.197,0.877-0.323c0.266-0.126,0.438-0.102,0.702,0s0.569,0.071,0.813,0.036c0.24-0.036,0.504-0.162,0.746-0.102
	c0.239,0.06,0.416,0.155,0.723,0.03c0.308-0.125,0.527-0.012,0.724,0.06c0.396,0.174,0.79,0.329,1.382,0.12
	c0.334,0.09,0.582,0.201,0.723,0.323c0.143,0.122,0.173,0.251,0.091,0.377c-0.242,0.496-0.242,0.502,0.569,0.681
	c0.197,0.042,0.725,0,0.396,0.185c-0.25,0.156-0.36,0.325-0.321,0.495c0.037,0.17,0.223,0.334,0.541,0.48V5.56
	c0.24,0.173,0.832,0.18,1.229,0c0.176-0.083,0.461-0.197,0.461-0.275c-0.198-0.454,0.68-0.627,1.271-0.878
	c0.219-0.107,0.504-0.06,0.504,0.102c-0.109,0.353,0.637,0.556,0.768,0.861c0,0.024,0.177,0.065,0.177,0.065
	c0.101-0.022,0.171-0.054,0.196-0.089c0.078-0.188,0.203-0.373,0.373-0.556c0.088-0.089,0.418-0.143,0.637-0.215
	c0.113,0.068,0.188,0.141,0.219,0.215c0.039,0.189,0.195,0.375,0.461,0.55c0.08,0.036,0.129,0.076,0.142,0.118
	c0.014,0.042-0.011,0.084-0.067,0.123c-0.058,0.039-0.146,0.073-0.263,0.101c-0.116,0.028-0.254,0.048-0.402,0.059
	c-0.396,0.048-0.505,0.4-0.396,0.508l0.009,0.009c0.104,0.103,0.18,0.177,0.649,0.177h1.47c0.192,0.01,0.377,0.028,0.549,0.054
	c0.055,0.021,0.092,0.046,0.108,0.072c-0.056,0.029-0.129,0.056-0.219,0.078l-0.681,0.155c0.247,0.044,0.512,0.08,0.79,0.107
	c0.27,0.009,0.542,0.009,0.811,0l0.002,0.016c0.021,0.227,0.039,0.427,0.854,0.474c0.415,0.018,0.175,0.167,0,0.257
	c-0.177,0.089-0.177,0.167,0.108,0.167c0.465,0.023,0.934,0.037,1.403,0.042v0.46c0.373,0,0.813-0.006,1.142,0
	c0.33,0.006,0.549,0.095,0.549,0.215c0.188,0.266,0.08,0.54-0.309,0.789c-0.156,0.083-0.216,0.176-0.168,0.269
	c0.047,0.092,0.197,0.178,0.432,0.246c0.197,0.078,0.264,0.203,0.725,0.042s1.359-0.179,1.359-0.52c0.021-0.06,0.746-0.072,0.746,0
	c0.045,0.061,0.045,0.124,0,0.185c-0.131,0.065-0.199,0.138-0.199,0.212c0,0.074,0.068,0.147,0.199,0.212
	c0.264,0.155,0.395,0.353,0.701,0.502c0.32,0.216,0.428,0.451,0.307,0.682c-0.021,0.179-0.219,0.299-0.7,0.299
	c-0.481,0.01-0.959,0.032-1.427,0.066c-0.088,0.006-0.197,0.107-0.197,0.179c0.746,0.078,0.482,0.49,1.141,0.598
	c0.474,0.049,0.86,0.144,1.088,0.267c0.229,0.123,0.277,0.265,0.142,0.397c-0.004,0.023,0.012,0.046,0.041,0.068
	c0.03,0.022,0.078,0.042,0.138,0.059c0.061,0.017,0.131,0.03,0.209,0.039s0.163,0.014,0.248,0.014
	c0.271-0.004,0.54,0.014,0.774,0.051c0.233,0.037,0.422,0.092,0.541,0.158c0.265,0.114,0.241,0.167-0.308,0.275
	c-0.141,0.023-0.26,0.056-0.347,0.094c-0.088,0.039-0.142,0.082-0.157,0.126c-0.447-0.009-0.896,0.007-1.316,0.05
	c-0.42,0.043-0.801,0.109-1.118,0.195c-0.188,0.045-0.334,0.102-0.427,0.165c-0.092,0.063-0.125,0.132-0.1,0.2
	c0.021,0.239-0.22,0.359-0.834,0.359c-0.285,0.015-0.557,0.048-0.789,0.096c-0.087,0.047-0.132,0.099-0.132,0.152
	c0,0.053,0.045,0.105,0.132,0.152c0.264,0.031,0.534,0.057,0.812,0.078c0.396,0.042,0.922-0.096,1.163,0.149
	c-0.373,0.036-0.745,0.066-1.098,0.096c-0.095,0.012-0.177,0.031-0.24,0.054c-0.219,0.048-0.198,0.113,0,0.179
	c0.289,0.091,0.611,0.173,0.965,0.245c0.141,0.027,0.257,0.063,0.345,0.102c0.087,0.041,0.142,0.085,0.16,0.131
	c1.623,0.156,2.323,0.389,2.323,0.986c0.045,0.269,0.177,0.455,0.9,0.508c0.307,0.018,0.285,0.095,0,0.155l-0.768,0.144
	C246.994,18.074,247.23,18.127,247.434,18.188z"/>
<path fill="#DF6239" d="M6.166,6.665c0.877,0,1.689-0.317,2.588-0.054c0,0,0.197,0,0.285,0s0.242-0.09,0.132-0.173
	C8.534,5.971,7.328,5.923,6.297,5.756C5.858,5.69,4.696,6.055,4.674,6.234v0.239c-0.033,0.157-0.033,0.315,0,0.472
	c0.016,0.031,0.06,0.061,0.129,0.086c0.069,0.025,0.16,0.045,0.265,0.058c0.387,0.009,0.776,0.009,1.163,0
	c0.285,0,0.548,0,0.57-0.149c0-0.03-0.307-0.06-0.483-0.096C6.169,6.805,6.03,6.763,5.902,6.718L6.166,6.665z"/>
<path fill="#DF6239" d="M239.977,6.706c0.059-0.049,0.053-0.103-0.016-0.152c-0.066-0.049-0.193-0.09-0.357-0.117
	c-0.375-0.024-0.765-0.024-1.14,0c-0.151,0.006-0.294,0.023-0.416,0.048s-0.22,0.058-0.286,0.096c-0.056,0.104-0.056,0.211,0,0.316
	c0.643,0.009,1.287,0.009,1.93,0C239.779,6.868,239.912,6.772,239.977,6.706z"/>
<path fill="#DF6239" d="M34.834,0.215c-0.131,0.03-0.395,0.054-0.438,0.102c-0.188,0.147-0.183,0.309,0.012,0.456
	c0.196,0.146,0.571,0.271,1.063,0.352c0.131,0,0.329-0.048,0.504-0.078c-0.658-0.215-0.285-0.598-0.833-0.825
	C35.097,0.203,34.944,0.215,34.834,0.215z"/>
<path fill="#DF6239" d="M14.415,32.82c-0.642-0.016-1.288-0.016-1.93,0c0.285,0.383,0.965,0.514,1.886,0.455
	c0.097-0.017,0.18-0.039,0.241-0.064s0.099-0.055,0.11-0.086C14.678,33,14.546,32.826,14.415,32.82z"/>
<path fill="#DF6239" d="M11.211,32.182c0,0-0.219-0.061-0.241-0.055c-0.135,0.051-0.231,0.107-0.285,0.168c0,0.191,0,0.382,0,0.598
	c0,0.215,0.219,0.131,0.395,0.065c0.144-0.054,0.337-0.097,0.56-0.124c0.223-0.027,0.469-0.038,0.712-0.031
	C12.286,32.486,11.606,32.366,11.211,32.182z"/>
<path fill="#DF6239" d="M62.885,0.275c-0.112,0.063-0.158,0.133-0.131,0.203c0.006,0.031,0.037,0.062,0.09,0.09
	c0.053,0.028,0.126,0.052,0.217,0.072c0.373,0.048,1.294-0.203,1.294-0.341c0,0-0.109-0.06-0.175-0.072
	C63.74,0.179,63.192,0.125,62.885,0.275z"/>
<path fill="#DF6239" d="M84.731,0.819c0.051,0.028,0.126,0.053,0.219,0.072c0.175,0,0.351,0,0.329,0
	c0.357,0.009,0.717,0.009,1.075,0c0.153,0,0.307-0.072,0.46-0.107c0.154-0.036-0.263-0.114-0.395-0.12
	c-0.474-0.015-0.952-0.015-1.426,0C84.995,0.664,84.797,0.765,84.731,0.819z"/>
<path fill="#DF6239" d="M18.274,34.249c-0.307,0-0.482,0.083-0.438,0.216c0.043,0.131,0.175,0.19,0.482,0.209
	c0.307,0.018,0.702-0.132,0.57-0.275C18.757,34.255,18.582,34.236,18.274,34.249z"/>
<path fill="#DF6239" d="M11.541,6.665c0.044-0.053,0.044-0.108,0-0.162c-0.062-0.018-0.137-0.032-0.22-0.041
	c-0.083-0.009-0.172-0.014-0.262-0.013c-0.307,0-0.482,0.096-0.438,0.227l0.197,0.191c0.09-0.017,0.172-0.037,0.241-0.06
	C11.243,6.767,11.406,6.718,11.541,6.665z"/>
<path fill="#DF6239" d="M9.588,5.822c-0.012,0.034-0.012,0.068,0,0.102c0,0.132,0.153,0.209,0.438,0.233
	c0.285,0.024,0.636-0.048,0.68-0.215c-0.234-0.042-0.454-0.091-0.658-0.144C9.786,5.727,9.676,5.72,9.588,5.822z"/>
<path fill="#DF6239" d="M246.249,14.297c0,0,0.175,0,0.263,0s0.526-0.06,0.57-0.173c0.044-0.113,0-0.269-0.525-0.287l-0.199,0.18
	C246.293,14.124,245.854,14.184,246.249,14.297z"/>
<path fill="#DF6239" d="M240.984,8.058c0.089-0.062,0.156-0.126,0.197-0.191c0-0.138-0.133-0.209-0.416-0.233
	c-0.285-0.024-0.682,0.048-0.703,0.221c0.242,0.048,0.461,0.102,0.681,0.149L240.984,8.058z"/>
<path fill="#DF6239" d="M6.166,14.178c0,0.048,0.153,0.125,0.285,0.138c0.131,0.012,0.658-0.042,0.702-0.215
	c-0.263-0.006-0.527-0.006-0.79,0C6.363,14.1,6.166,14.172,6.166,14.178z"/>
<path fill="#DF6239" d="M229.712,4.076c0,0-0.132,0.042-0.22,0.066c0.22,0.039,0.456,0.071,0.701,0.096c0,0,0.154-0.083,0.197-0.12
	C230.193,3.981,229.887,4.041,229.712,4.076z"/>
<path fill="#DF6239" d="M18.821,22.205c0.093,0.005,0.19,0.002,0.276-0.01c0.086-0.01,0.159-0.027,0.207-0.051
	c0.153-0.16-0.198-0.144-0.417-0.148c-0.167-0.01-0.338-0.01-0.504,0C18.405,22.121,18.536,22.205,18.821,22.205z"/>
<path fill="#DF6239" d="M7.615,25.48c-0.216-0.045-0.452-0.08-0.702-0.107c0,0-0.131,0.09-0.219,0.145l0.482,0.07L7.615,25.48z"/>
<path fill="#DF6239" d="M159.811,32.635c0,0.049,0.152,0.119,0.264,0.133c0.107,0.012,0.68-0.037,0.724-0.209
	c-0.263-0.008-0.526-0.008-0.79,0C160.007,32.559,159.811,32.629,159.811,32.635z"/>
<path fill="#DF6239" d="M44.901,34.613c0,0-0.219-0.059-0.329-0.083c-0.097,0.043-0.148,0.093-0.148,0.144s0.051,0.1,0.148,0.143
	c0.042,0.029,0.094,0.059,0.154,0.084C44.726,34.805,44.835,34.715,44.901,34.613z"/>
<path fill="#DF6239" d="M32.486,1.369c0.417,0.03,0.68-0.036,0.724-0.215c-0.263,0-0.526,0-0.79,0s-0.197,0.06-0.197,0.072
	C32.223,1.237,32.267,1.363,32.486,1.369z"/>
<path fill="#DF6239" d="M66.461,0.598c0.153,0.042,0.307,0,0.197-0.083c-0.109-0.083-0.241-0.054-0.373-0.072
	C66.154,0.424,66.352,0.574,66.461,0.598z"/>
<path fill="#DF6239" d="M33.342,0.975c-0.094,0.046-0.153,0.097-0.175,0.149c0.153,0,0.329-0.03,0.395-0.072
	C33.627,1.01,33.496,0.927,33.342,0.975z"/>
<path fill="#DF6239" d="M0.99,8.272V8.207L0.836,8.135L0.661,8.201L0.99,8.272z"/>
<path fill="#DF6239" d="M248.596,13.837c0.049-0.005,0.092-0.013,0.125-0.024s0.057-0.023,0.067-0.037
	c0.01-0.014,0.009-0.028-0.005-0.041c-0.014-0.014-0.041-0.026-0.077-0.036c0,0-0.11,0-0.177,0c-0.065,0,0,0.048,0,0.066
	S248.574,13.837,248.596,13.837z"/>
<path fill="#DF6239" d="M9.26,16.18c0.104-0.047,0.164-0.101,0.176-0.155c-0.154,0-0.307,0-0.373,0.071
	C8.997,16.168,9.106,16.228,9.26,16.18z"/>
<path fill="#DF6239" d="M4.369,25.66v0.07c0,0.03,0.132,0.078,0.153,0.071c0.038-0.009,0.067-0.02,0.088-0.03
	c0.021-0.015,0.031-0.026,0.031-0.041c0-0.014-0.011-0.025-0.031-0.039c-0.02-0.012-0.05-0.022-0.088-0.031
	C4.522,25.66,4.435,25.66,4.369,25.66z"/>
<path fill="#DF6239" d="M238.354,29.551l0.351,0.042v-0.071c0,0-0.131-0.035-0.177-0.029
	C238.484,29.497,238.418,29.527,238.354,29.551z"/>
<path fill="#DF6239" d="M20.423,34.268c0,0-0.109,0.041-0.175,0.064l0.263,0.072v-0.066C20.511,34.338,20.489,34.268,20.423,34.268z
	"/>
<path fill="#DF6239" d="M13.624,28.23v0.256h0.658C14.18,28.332,13.96,28.246,13.624,28.23z"/>
<g>
	<path fill="#FFFFFF" d="M45.505,20.621c-0.088,0-0.158-0.029-0.21-0.084c-0.052-0.057-0.078-0.125-0.078-0.205v-6.216l-1.824,1.404
		c-0.072,0.048-0.144,0.066-0.216,0.054c-0.072-0.012-0.136-0.054-0.192-0.126L42.481,14.8c-0.048-0.072-0.066-0.148-0.054-0.228
		c0.012-0.08,0.054-0.144,0.126-0.192l2.688-2.076c0.048-0.04,0.096-0.064,0.144-0.072c0.048-0.008,0.1-0.012,0.156-0.012h1.056
		c0.08,0,0.148,0.028,0.204,0.084c0.056,0.056,0.084,0.124,0.084,0.204v7.824c0,0.08-0.028,0.148-0.084,0.205
		c-0.056,0.055-0.124,0.084-0.204,0.084H45.505z"/>
	<path fill="#FFFFFF" d="M51.673,20.74c-0.568,0-1.052-0.084-1.452-0.252s-0.728-0.4-0.984-0.695
		c-0.256-0.297-0.448-0.639-0.576-1.027c-0.128-0.387-0.204-0.801-0.228-1.242c-0.008-0.216-0.014-0.454-0.018-0.714
		c-0.004-0.26-0.004-0.522,0-0.786c0.004-0.264,0.01-0.508,0.018-0.732c0.016-0.44,0.092-0.854,0.228-1.242
		c0.136-0.388,0.334-0.726,0.594-1.014c0.26-0.288,0.59-0.516,0.99-0.684s0.876-0.252,1.428-0.252c0.56,0,1.04,0.084,1.44,0.252
		s0.73,0.396,0.99,0.684c0.26,0.288,0.456,0.626,0.588,1.014c0.132,0.388,0.206,0.802,0.222,1.242
		c0.016,0.224,0.024,0.468,0.024,0.732c0,0.264,0,0.526,0,0.786s-0.008,0.498-0.024,0.714c-0.016,0.44-0.088,0.855-0.216,1.242
		c-0.128,0.389-0.32,0.73-0.576,1.027c-0.256,0.295-0.586,0.527-0.99,0.695C52.727,20.656,52.241,20.74,51.673,20.74z
		 M51.673,19.361c0.52,0,0.902-0.17,1.146-0.512c0.244-0.34,0.37-0.801,0.378-1.385c0.016-0.232,0.024-0.467,0.024-0.702
		c0-0.236,0-0.474,0-0.714c0-0.24-0.008-0.468-0.024-0.684c-0.008-0.568-0.134-1.026-0.378-1.374
		c-0.244-0.348-0.626-0.522-1.146-0.522c-0.512,0-0.89,0.174-1.134,0.522c-0.244,0.348-0.374,0.806-0.39,1.374
		c0,0.216-0.002,0.444-0.006,0.684c-0.004,0.24-0.004,0.478,0,0.714c0.004,0.235,0.006,0.47,0.006,0.702
		c0.016,0.584,0.148,1.045,0.396,1.385C50.793,19.191,51.169,19.361,51.673,19.361z"/>
	<path fill="#FFFFFF" d="M59.557,20.74c-0.568,0-1.052-0.084-1.452-0.252s-0.728-0.4-0.984-0.695
		c-0.256-0.297-0.448-0.639-0.576-1.027c-0.128-0.387-0.204-0.801-0.228-1.242c-0.008-0.216-0.014-0.454-0.018-0.714
		c-0.004-0.26-0.004-0.522,0-0.786c0.004-0.264,0.01-0.508,0.018-0.732c0.016-0.44,0.092-0.854,0.228-1.242
		c0.136-0.388,0.334-0.726,0.594-1.014c0.26-0.288,0.59-0.516,0.99-0.684s0.876-0.252,1.428-0.252c0.56,0,1.04,0.084,1.44,0.252
		s0.73,0.396,0.99,0.684c0.26,0.288,0.456,0.626,0.588,1.014c0.132,0.388,0.206,0.802,0.222,1.242
		c0.016,0.224,0.024,0.468,0.024,0.732c0,0.264,0,0.526,0,0.786s-0.008,0.498-0.024,0.714c-0.016,0.44-0.088,0.855-0.216,1.242
		c-0.128,0.389-0.32,0.73-0.576,1.027c-0.256,0.295-0.586,0.527-0.99,0.695C60.611,20.656,60.125,20.74,59.557,20.74z
		 M59.557,19.361c0.52,0,0.902-0.17,1.146-0.512c0.244-0.34,0.37-0.801,0.378-1.385c0.016-0.232,0.024-0.467,0.024-0.702
		c0-0.236,0-0.474,0-0.714c0-0.24-0.008-0.468-0.024-0.684c-0.008-0.568-0.134-1.026-0.378-1.374
		c-0.244-0.348-0.626-0.522-1.146-0.522c-0.512,0-0.89,0.174-1.134,0.522c-0.244,0.348-0.374,0.806-0.39,1.374
		c0,0.216-0.002,0.444-0.006,0.684c-0.004,0.24-0.004,0.478,0,0.714c0.004,0.235,0.006,0.47,0.006,0.702
		c0.016,0.584,0.148,1.045,0.396,1.385C58.677,19.191,59.053,19.361,59.557,19.361z"/>
	<path fill="#FFFFFF" d="M65.809,16.444c-0.536,0-0.96-0.14-1.272-0.42c-0.312-0.28-0.484-0.66-0.516-1.14
		c-0.008-0.208-0.012-0.39-0.012-0.546c0-0.156,0.004-0.346,0.012-0.57c0.032-0.48,0.198-0.868,0.498-1.164
		c0.3-0.296,0.73-0.444,1.29-0.444c0.568,0,1.002,0.148,1.302,0.444c0.3,0.296,0.462,0.684,0.486,1.164
		c0.016,0.224,0.024,0.414,0.024,0.57c0,0.156-0.008,0.338-0.024,0.546c-0.024,0.48-0.194,0.86-0.51,1.14
		C66.771,16.304,66.345,16.444,65.809,16.444z M64.825,20.621c-0.168,0-0.252-0.08-0.252-0.24c0-0.049,0.016-0.092,0.048-0.133
		l5.916-7.8c0.056-0.072,0.112-0.128,0.168-0.168c0.056-0.04,0.136-0.06,0.24-0.06h0.636c0.168,0,0.252,0.08,0.252,0.24
		c0,0.048-0.016,0.092-0.048,0.132l-5.916,7.8c-0.056,0.072-0.11,0.127-0.162,0.168c-0.052,0.039-0.134,0.061-0.246,0.061H64.825z
		 M65.809,15.556c0.176,0,0.313-0.036,0.414-0.108c0.1-0.072,0.174-0.164,0.222-0.276c0.048-0.112,0.072-0.228,0.072-0.348
		c0.016-0.2,0.024-0.37,0.024-0.51c0-0.14-0.008-0.302-0.024-0.486c-0.008-0.184-0.064-0.352-0.168-0.504
		c-0.104-0.152-0.284-0.228-0.54-0.228c-0.248,0-0.424,0.076-0.528,0.228s-0.16,0.32-0.168,0.504s-0.012,0.346-0.012,0.486
		c0,0.14,0.004,0.31,0.012,0.51c0.008,0.12,0.034,0.236,0.078,0.348c0.044,0.112,0.116,0.204,0.216,0.276
		C65.507,15.52,65.641,15.556,65.809,15.556z M70.597,20.691c-0.536,0-0.96-0.146-1.272-0.443c-0.312-0.295-0.484-0.684-0.516-1.164
		c-0.008-0.207-0.012-0.387-0.012-0.539s0.004-0.34,0.012-0.565c0.032-0.48,0.198-0.867,0.498-1.164
		c0.3-0.296,0.73-0.444,1.29-0.444c0.568,0,1.002,0.148,1.302,0.444c0.3,0.297,0.462,0.684,0.486,1.164
		c0.016,0.225,0.024,0.413,0.024,0.565s-0.008,0.332-0.024,0.539c-0.024,0.48-0.194,0.869-0.51,1.164
		C71.559,20.545,71.133,20.691,70.597,20.691z M70.597,19.756c0.176,0,0.314-0.035,0.414-0.107s0.174-0.164,0.222-0.275
		c0.048-0.113,0.072-0.225,0.072-0.336c0.016-0.201,0.024-0.371,0.024-0.512c0-0.139-0.008-0.301-0.024-0.484
		c-0.008-0.193-0.064-0.365-0.168-0.517c-0.104-0.151-0.284-0.228-0.54-0.228c-0.248,0-0.424,0.076-0.528,0.228
		c-0.104,0.152-0.164,0.324-0.18,0.517c-0.008,0.184-0.012,0.346-0.012,0.484c0,0.141,0.004,0.311,0.012,0.512
		c0.016,0.111,0.046,0.223,0.09,0.336c0.044,0.111,0.116,0.203,0.216,0.275S70.429,19.756,70.597,19.756z"/>
	<path fill="#FFFFFF" d="M76.897,20.621c-0.088,0-0.16-0.029-0.216-0.084c-0.056-0.057-0.084-0.125-0.084-0.205V12.52
		c0-0.088,0.028-0.16,0.084-0.216c0.056-0.056,0.128-0.084,0.216-0.084h0.948c0.112,0,0.196,0.03,0.252,0.09
		c0.056,0.06,0.092,0.106,0.108,0.138l2.316,4.32l2.34-4.32c0.016-0.032,0.052-0.078,0.108-0.138c0.056-0.06,0.14-0.09,0.252-0.09
		h0.936c0.088,0,0.16,0.028,0.216,0.084s0.084,0.128,0.084,0.216v7.812c0,0.08-0.028,0.148-0.084,0.205
		c-0.056,0.055-0.128,0.084-0.216,0.084h-1.008c-0.088,0-0.158-0.029-0.21-0.084c-0.052-0.057-0.078-0.125-0.078-0.205v-5.196
		l-1.68,3.204c-0.04,0.072-0.092,0.135-0.156,0.186c-0.064,0.053-0.148,0.078-0.252,0.078h-0.492c-0.112,0-0.198-0.025-0.258-0.078
		c-0.06-0.051-0.11-0.113-0.15-0.186l-1.68-3.204v5.196c0,0.08-0.028,0.148-0.084,0.205c-0.056,0.055-0.125,0.084-0.204,0.084
		H76.897z"/>
	<path fill="#FFFFFF" d="M88.944,20.74c-0.64,0-1.178-0.111-1.614-0.336s-0.768-0.539-0.996-0.947s-0.358-0.885-0.39-1.428
		c-0.008-0.145-0.012-0.321-0.012-0.53c0-0.207,0.004-0.383,0.012-0.527c0.032-0.552,0.166-1.03,0.402-1.434
		c0.236-0.404,0.572-0.718,1.008-0.942s0.966-0.336,1.59-0.336c0.624,0,1.154,0.112,1.59,0.336s0.772,0.538,1.008,0.942
		c0.236,0.404,0.37,0.882,0.402,1.434c0.008,0.145,0.012,0.32,0.012,0.527c0,0.209-0.004,0.385-0.012,0.53
		c-0.032,0.543-0.162,1.02-0.39,1.428s-0.56,0.723-0.996,0.947S89.584,20.74,88.944,20.74z M88.944,19.553
		c0.424,0,0.752-0.135,0.984-0.402c0.232-0.268,0.36-0.662,0.384-1.182c0.008-0.12,0.012-0.276,0.012-0.469
		c0-0.191-0.004-0.348-0.012-0.467c-0.024-0.521-0.152-0.915-0.384-1.183c-0.232-0.268-0.56-0.402-0.984-0.402
		c-0.424,0-0.752,0.134-0.984,0.402s-0.36,0.662-0.384,1.183c-0.008,0.119-0.012,0.275-0.012,0.467c0,0.192,0.004,0.349,0.012,0.469
		c0.024,0.52,0.152,0.915,0.384,1.182S88.521,19.553,88.944,19.553z"/>
	<path fill="#FFFFFF" d="M93.577,20.621c-0.08,0-0.148-0.029-0.204-0.084c-0.056-0.057-0.084-0.125-0.084-0.205v-5.664
		c0-0.08,0.028-0.148,0.084-0.204c0.056-0.056,0.124-0.084,0.204-0.084h0.984c0.08,0,0.148,0.028,0.204,0.084
		c0.056,0.056,0.084,0.124,0.084,0.204v0.492c0.208-0.256,0.474-0.47,0.798-0.642c0.324-0.172,0.726-0.258,1.206-0.258
		c0.488,0,0.912,0.11,1.272,0.33c0.36,0.22,0.638,0.53,0.834,0.93c0.196,0.4,0.294,0.88,0.294,1.44v3.372
		c0,0.08-0.028,0.148-0.084,0.205c-0.056,0.055-0.124,0.084-0.204,0.084h-1.056c-0.08,0-0.148-0.029-0.204-0.084
		c-0.056-0.057-0.084-0.125-0.084-0.205v-3.299c0-0.464-0.114-0.829-0.342-1.093c-0.228-0.264-0.558-0.396-0.99-0.396
		c-0.416,0-0.748,0.132-0.996,0.396c-0.248,0.264-0.372,0.628-0.372,1.093v3.299c0,0.08-0.028,0.148-0.084,0.205
		c-0.056,0.055-0.124,0.084-0.204,0.084H93.577z"/>
	<path fill="#FFFFFF" d="M103.464,20.74c-0.888,0-1.592-0.256-2.112-0.768c-0.521-0.512-0.8-1.24-0.84-2.184
		c-0.008-0.08-0.012-0.182-0.012-0.307c0-0.123,0.004-0.222,0.012-0.294c0.032-0.608,0.17-1.13,0.414-1.566s0.582-0.772,1.014-1.008
		s0.94-0.354,1.524-0.354c0.648,0,1.192,0.134,1.632,0.402s0.772,0.64,0.996,1.116s0.336,1.026,0.336,1.65v0.252
		c0,0.08-0.028,0.147-0.084,0.204c-0.056,0.056-0.128,0.084-0.216,0.084h-3.984c0,0.047,0,0.081,0,0.096
		c0.008,0.279,0.062,0.537,0.162,0.773s0.248,0.426,0.444,0.57c0.196,0.145,0.43,0.217,0.702,0.217c0.224,0,0.412-0.035,0.564-0.104
		c0.152-0.066,0.276-0.145,0.372-0.232c0.096-0.088,0.164-0.16,0.204-0.217c0.072-0.096,0.13-0.154,0.174-0.174
		c0.043-0.02,0.11-0.029,0.198-0.029h1.032c0.08,0,0.146,0.023,0.198,0.07c0.052,0.049,0.074,0.109,0.066,0.182
		c-0.008,0.127-0.074,0.283-0.198,0.467c-0.124,0.186-0.302,0.365-0.534,0.541s-0.522,0.322-0.87,0.438
		C104.311,20.682,103.912,20.74,103.464,20.74z M102.145,16.96h2.652v-0.036c0-0.312-0.052-0.586-0.156-0.822
		c-0.104-0.236-0.256-0.42-0.456-0.552c-0.2-0.132-0.44-0.198-0.72-0.198c-0.28,0-0.52,0.066-0.72,0.198
		c-0.2,0.132-0.35,0.316-0.45,0.552c-0.1,0.236-0.15,0.51-0.15,0.822V16.96z"/>
	<path fill="#FFFFFF" d="M108.577,22.9c-0.064,0-0.12-0.023-0.168-0.072c-0.048-0.047-0.072-0.104-0.072-0.168
		c0-0.031,0.001-0.063,0.006-0.09c0.004-0.027,0.018-0.063,0.042-0.102l0.936-2.221l-2.304-5.436
		c-0.032-0.08-0.048-0.136-0.048-0.168c0.008-0.072,0.036-0.134,0.084-0.186c0.048-0.052,0.108-0.078,0.18-0.078h0.972
		c0.096,0,0.168,0.024,0.216,0.072c0.048,0.048,0.084,0.1,0.108,0.156l1.596,3.925l1.644-3.925c0.024-0.064,0.06-0.118,0.108-0.162
		c0.048-0.044,0.12-0.066,0.216-0.066h0.96c0.064,0,0.122,0.024,0.174,0.072c0.052,0.048,0.078,0.104,0.078,0.168
		c0,0.048-0.016,0.112-0.048,0.192l-3.396,7.86c-0.032,0.064-0.072,0.119-0.12,0.162c-0.048,0.045-0.12,0.066-0.216,0.066H108.577z"
		/>
	<path fill="#FFFFFF" d="M117.205,20.621c-0.08,0-0.148-0.029-0.204-0.084c-0.056-0.057-0.084-0.125-0.084-0.205V12.52
		c0-0.088,0.028-0.16,0.084-0.216c0.056-0.056,0.124-0.084,0.204-0.084h3.48c0.648,0,1.176,0.098,1.584,0.294
		c0.408,0.196,0.71,0.466,0.906,0.81c0.195,0.344,0.293,0.744,0.293,1.2c0,0.304-0.053,0.57-0.161,0.798s-0.24,0.414-0.396,0.558
		c-0.156,0.144-0.311,0.256-0.463,0.336c0.313,0.144,0.588,0.384,0.828,0.72s0.359,0.736,0.359,1.201
		c0,0.48-0.107,0.908-0.323,1.283c-0.216,0.377-0.536,0.67-0.96,0.883c-0.424,0.211-0.948,0.318-1.572,0.318H117.205z
		 M118.584,15.664h1.883c0.425,0,0.742-0.102,0.955-0.306c0.211-0.204,0.317-0.47,0.317-0.798c0-0.336-0.106-0.6-0.317-0.792
		c-0.213-0.192-0.53-0.288-0.955-0.288h-1.883V15.664z M118.584,19.348h2.004c0.432,0,0.76-0.117,0.983-0.354
		s0.337-0.521,0.337-0.857c0-0.352-0.115-0.645-0.343-0.876s-0.554-0.349-0.978-0.349h-2.004V19.348z"/>
	<path fill="#FFFFFF" d="M126.816,20.74c-0.416,0-0.792-0.082-1.128-0.246s-0.602-0.383-0.798-0.66
		c-0.196-0.275-0.294-0.586-0.294-0.93c0-0.561,0.228-1.006,0.684-1.338s1.053-0.554,1.788-0.666l1.644-0.24v-0.251
		c0-0.336-0.084-0.596-0.252-0.78c-0.168-0.184-0.455-0.276-0.863-0.276c-0.288,0-0.522,0.058-0.702,0.174
		c-0.181,0.116-0.313,0.27-0.402,0.462c-0.063,0.104-0.155,0.156-0.276,0.156h-0.947c-0.088,0-0.154-0.024-0.198-0.072
		c-0.044-0.048-0.065-0.112-0.065-0.192c0.008-0.127,0.062-0.284,0.162-0.468c0.1-0.184,0.252-0.362,0.455-0.534
		c0.204-0.172,0.471-0.318,0.799-0.438c0.328-0.12,0.724-0.18,1.188-0.18c0.504,0,0.93,0.062,1.277,0.186
		c0.349,0.124,0.627,0.29,0.834,0.498c0.209,0.208,0.361,0.452,0.457,0.732c0.096,0.28,0.144,0.576,0.144,0.888v3.768
		c0,0.08-0.028,0.148-0.084,0.205c-0.056,0.055-0.124,0.084-0.204,0.084h-0.972c-0.089,0-0.158-0.029-0.21-0.084
		c-0.053-0.057-0.078-0.125-0.078-0.205v-0.467c-0.104,0.143-0.244,0.283-0.42,0.42c-0.176,0.135-0.391,0.246-0.643,0.33
		S127.16,20.74,126.816,20.74z M127.225,19.6c0.28,0,0.534-0.059,0.762-0.18c0.228-0.119,0.408-0.305,0.54-0.557
		s0.198-0.57,0.198-0.956v-0.252l-1.2,0.192c-0.473,0.071-0.824,0.189-1.057,0.349c-0.231,0.16-0.348,0.355-0.348,0.588
		c0,0.176,0.055,0.326,0.162,0.449c0.108,0.125,0.246,0.217,0.414,0.275C126.864,19.57,127.04,19.6,127.225,19.6z"/>
	<path fill="#FFFFFF" d="M134.557,20.74c-0.576,0-1.082-0.107-1.519-0.324c-0.436-0.215-0.775-0.529-1.02-0.941
		s-0.378-0.91-0.402-1.495c-0.008-0.119-0.012-0.277-0.012-0.474s0.004-0.358,0.012-0.486c0.024-0.584,0.158-1.082,0.402-1.494
		c0.244-0.412,0.584-0.726,1.02-0.942c0.437-0.216,0.942-0.324,1.519-0.324c0.512,0,0.948,0.07,1.308,0.21
		c0.36,0.14,0.656,0.32,0.889,0.54c0.231,0.22,0.405,0.448,0.521,0.684c0.115,0.236,0.178,0.45,0.186,0.642
		c0.008,0.088-0.018,0.158-0.078,0.21c-0.06,0.052-0.129,0.078-0.209,0.078h-1.057c-0.08,0-0.143-0.02-0.186-0.06
		c-0.045-0.04-0.086-0.1-0.126-0.18c-0.12-0.32-0.278-0.546-0.474-0.678c-0.197-0.132-0.447-0.198-0.75-0.198
		c-0.4,0-0.719,0.126-0.955,0.378c-0.235,0.252-0.361,0.65-0.377,1.193c-0.017,0.305-0.017,0.584,0,0.84
		c0.016,0.553,0.142,0.954,0.377,1.202c0.236,0.248,0.555,0.371,0.955,0.371c0.312,0,0.563-0.066,0.756-0.197
		c0.191-0.133,0.348-0.359,0.468-0.678c0.04-0.08,0.081-0.141,0.126-0.182c0.043-0.039,0.105-0.059,0.186-0.059h1.057
		c0.08,0,0.149,0.025,0.209,0.078c0.061,0.051,0.086,0.121,0.078,0.209c-0.008,0.145-0.045,0.307-0.113,0.486
		s-0.176,0.363-0.324,0.553c-0.148,0.188-0.334,0.359-0.559,0.516c-0.224,0.156-0.494,0.281-0.81,0.377S134.972,20.74,134.557,20.74
		z"/>
	<path fill="#FFFFFF" d="M139.009,20.621c-0.08,0-0.148-0.029-0.204-0.084c-0.056-0.057-0.084-0.125-0.084-0.205v-7.944
		c0-0.08,0.028-0.148,0.084-0.204c0.056-0.056,0.124-0.084,0.204-0.084h0.972c0.088,0,0.157,0.028,0.21,0.084
		c0.053,0.056,0.078,0.124,0.078,0.204v4.104l2.016-1.908c0.08-0.064,0.146-0.114,0.198-0.15s0.134-0.054,0.246-0.054h1.116
		c0.08,0,0.144,0.024,0.191,0.072c0.049,0.048,0.072,0.112,0.072,0.192c0,0.032-0.008,0.068-0.023,0.108
		c-0.017,0.041-0.049,0.076-0.097,0.108l-2.472,2.316l2.771,2.976c0.08,0.08,0.12,0.148,0.12,0.203c0,0.08-0.025,0.145-0.078,0.193
		c-0.052,0.047-0.113,0.072-0.186,0.072h-1.14c-0.121,0-0.207-0.02-0.258-0.055c-0.053-0.035-0.115-0.086-0.187-0.15l-2.292-2.412
		v2.328c0,0.08-0.025,0.148-0.078,0.205c-0.053,0.055-0.122,0.084-0.21,0.084H139.009z"/>
	<path fill="#FFFFFF" d="M151.381,20.74c-0.736,0-1.362-0.127-1.878-0.385c-0.517-0.256-0.916-0.625-1.2-1.109
		s-0.438-1.063-0.462-1.734c-0.008-0.344-0.012-0.714-0.012-1.11s0.004-0.77,0.012-1.122c0.023-0.664,0.178-1.232,0.462-1.704
		s0.688-0.836,1.212-1.092c0.523-0.256,1.146-0.384,1.866-0.384c0.584,0,1.096,0.078,1.536,0.234c0.439,0.156,0.806,0.356,1.098,0.6
		s0.512,0.506,0.66,0.786c0.147,0.28,0.226,0.54,0.233,0.78c0.009,0.072-0.012,0.132-0.06,0.18s-0.112,0.072-0.192,0.072h-1.235
		c-0.08,0-0.141-0.016-0.181-0.048c-0.04-0.032-0.076-0.08-0.107-0.144c-0.064-0.168-0.164-0.334-0.3-0.498
		c-0.137-0.164-0.32-0.302-0.553-0.414c-0.231-0.112-0.531-0.168-0.899-0.168c-0.544,0-0.979,0.144-1.302,0.432
		c-0.324,0.288-0.498,0.764-0.522,1.428c-0.024,0.696-0.024,1.399,0,2.112c0.024,0.68,0.202,1.168,0.534,1.463
		c0.332,0.297,0.77,0.445,1.313,0.445c0.36,0,0.683-0.064,0.967-0.193c0.283-0.127,0.508-0.328,0.672-0.6
		c0.163-0.271,0.246-0.62,0.246-1.044v-0.372h-1.465c-0.08,0-0.147-0.027-0.203-0.084c-0.057-0.056-0.084-0.127-0.084-0.216v-0.636
		c0-0.088,0.027-0.16,0.084-0.216c0.056-0.056,0.123-0.084,0.203-0.084h2.868c0.088,0,0.158,0.028,0.21,0.084
		c0.053,0.056,0.078,0.128,0.078,0.216v1.26c0,0.672-0.146,1.252-0.438,1.741s-0.708,0.863-1.248,1.127S152.116,20.74,151.381,20.74
		z"/>
	<path fill="#FFFFFF" d="M158.688,20.74c-0.488,0-0.91-0.109-1.267-0.33c-0.355-0.221-0.63-0.531-0.822-0.936
		c-0.191-0.404-0.287-0.883-0.287-1.434v-3.373c0-0.08,0.027-0.148,0.084-0.204c0.056-0.056,0.123-0.084,0.203-0.084h1.057
		c0.088,0,0.157,0.028,0.21,0.084c0.052,0.056,0.078,0.124,0.078,0.204v3.3c0,0.993,0.436,1.489,1.308,1.489
		c0.416,0,0.746-0.133,0.99-0.396s0.366-0.629,0.366-1.092v-3.3c0-0.08,0.027-0.148,0.084-0.204
		c0.056-0.056,0.124-0.084,0.204-0.084h1.056c0.08,0,0.147,0.028,0.204,0.084c0.056,0.056,0.084,0.124,0.084,0.204v5.664
		c0,0.08-0.028,0.148-0.084,0.205c-0.057,0.055-0.124,0.084-0.204,0.084h-0.972c-0.089,0-0.158-0.029-0.21-0.084
		c-0.053-0.057-0.078-0.125-0.078-0.205V19.84c-0.216,0.281-0.484,0.5-0.805,0.66C159.568,20.66,159.168,20.74,158.688,20.74z"/>
	<path fill="#FFFFFF" d="M165.636,20.74c-0.416,0-0.792-0.082-1.128-0.246s-0.602-0.383-0.798-0.66
		c-0.196-0.275-0.294-0.586-0.294-0.93c0-0.561,0.229-1.006,0.685-1.338s1.052-0.554,1.788-0.666l1.644-0.24v-0.251
		c0-0.336-0.084-0.596-0.252-0.78c-0.168-0.184-0.456-0.276-0.864-0.276c-0.288,0-0.521,0.058-0.702,0.174
		c-0.18,0.116-0.313,0.27-0.401,0.462c-0.064,0.104-0.156,0.156-0.276,0.156h-0.948c-0.088,0-0.153-0.024-0.197-0.072
		c-0.045-0.048-0.066-0.112-0.066-0.192c0.008-0.127,0.062-0.284,0.162-0.468c0.1-0.184,0.252-0.362,0.456-0.534
		c0.204-0.172,0.47-0.318,0.798-0.438c0.328-0.12,0.724-0.18,1.188-0.18c0.504,0,0.93,0.062,1.277,0.186
		c0.349,0.124,0.626,0.29,0.834,0.498s0.36,0.452,0.456,0.732c0.096,0.28,0.145,0.576,0.145,0.888v3.768
		c0,0.08-0.028,0.148-0.084,0.205c-0.057,0.055-0.125,0.084-0.204,0.084h-0.973c-0.088,0-0.158-0.029-0.21-0.084
		c-0.052-0.057-0.078-0.125-0.078-0.205v-0.467c-0.104,0.143-0.244,0.283-0.42,0.42c-0.176,0.135-0.39,0.246-0.642,0.33
		S165.98,20.74,165.636,20.74z M166.044,19.6c0.28,0,0.534-0.059,0.763-0.18c0.228-0.119,0.407-0.305,0.54-0.557
		c0.132-0.252,0.197-0.57,0.197-0.956v-0.252l-1.2,0.192c-0.472,0.071-0.823,0.189-1.056,0.349s-0.348,0.355-0.348,0.588
		c0,0.176,0.054,0.326,0.162,0.449c0.107,0.125,0.246,0.217,0.414,0.275C165.685,19.57,165.86,19.6,166.044,19.6z"/>
	<path fill="#FFFFFF" d="M170.964,20.621c-0.08,0-0.148-0.029-0.204-0.084c-0.056-0.057-0.084-0.125-0.084-0.205V14.68
		c0-0.088,0.028-0.16,0.084-0.216c0.056-0.056,0.124-0.084,0.204-0.084h0.972c0.08,0,0.15,0.028,0.21,0.084
		c0.061,0.056,0.09,0.128,0.09,0.216v0.492c0.185-0.256,0.422-0.452,0.715-0.588c0.292-0.136,0.63-0.204,1.014-0.204h0.492
		c0.088,0,0.157,0.028,0.21,0.084c0.052,0.056,0.078,0.124,0.078,0.204v0.864c0,0.08-0.026,0.148-0.078,0.204
		c-0.053,0.056-0.122,0.084-0.21,0.084h-0.937c-0.384,0-0.682,0.106-0.894,0.318s-0.318,0.51-0.318,0.895v3.299
		c0,0.08-0.028,0.148-0.084,0.205c-0.056,0.055-0.128,0.084-0.216,0.084H170.964z"/>
	<path fill="#FFFFFF" d="M177.396,20.74c-0.416,0-0.792-0.082-1.128-0.246s-0.602-0.383-0.798-0.66
		c-0.196-0.275-0.294-0.586-0.294-0.93c0-0.561,0.229-1.006,0.685-1.338s1.052-0.554,1.788-0.666l1.644-0.24v-0.251
		c0-0.336-0.084-0.596-0.252-0.78c-0.168-0.184-0.456-0.276-0.864-0.276c-0.288,0-0.521,0.058-0.702,0.174
		c-0.18,0.116-0.313,0.27-0.401,0.462c-0.064,0.104-0.156,0.156-0.276,0.156h-0.948c-0.088,0-0.153-0.024-0.197-0.072
		c-0.045-0.048-0.066-0.112-0.066-0.192c0.008-0.127,0.062-0.284,0.162-0.468c0.1-0.184,0.252-0.362,0.456-0.534
		c0.204-0.172,0.47-0.318,0.798-0.438c0.328-0.12,0.724-0.18,1.188-0.18c0.504,0,0.93,0.062,1.277,0.186
		c0.349,0.124,0.626,0.29,0.834,0.498s0.36,0.452,0.456,0.732c0.096,0.28,0.145,0.576,0.145,0.888v3.768
		c0,0.08-0.028,0.148-0.084,0.205c-0.057,0.055-0.125,0.084-0.204,0.084h-0.973c-0.088,0-0.158-0.029-0.21-0.084
		c-0.052-0.057-0.078-0.125-0.078-0.205v-0.467c-0.104,0.143-0.244,0.283-0.42,0.42c-0.176,0.135-0.39,0.246-0.642,0.33
		S177.74,20.74,177.396,20.74z M177.804,19.6c0.28,0,0.534-0.059,0.763-0.18c0.228-0.119,0.407-0.305,0.54-0.557
		c0.132-0.252,0.197-0.57,0.197-0.956v-0.252l-1.2,0.192c-0.472,0.071-0.823,0.189-1.056,0.349s-0.348,0.355-0.348,0.588
		c0,0.176,0.054,0.326,0.162,0.449c0.107,0.125,0.246,0.217,0.414,0.275C177.444,19.57,177.62,19.6,177.804,19.6z"/>
	<path fill="#FFFFFF" d="M182.724,20.621c-0.08,0-0.148-0.029-0.204-0.084c-0.056-0.057-0.084-0.125-0.084-0.205v-5.664
		c0-0.08,0.028-0.148,0.084-0.204c0.056-0.056,0.124-0.084,0.204-0.084h0.984c0.079,0,0.147,0.028,0.203,0.084
		c0.057,0.056,0.084,0.124,0.084,0.204v0.492c0.208-0.256,0.475-0.47,0.799-0.642c0.323-0.172,0.726-0.258,1.206-0.258
		c0.487,0,0.911,0.11,1.271,0.33c0.36,0.22,0.638,0.53,0.834,0.93c0.196,0.4,0.294,0.88,0.294,1.44v3.372
		c0,0.08-0.028,0.148-0.084,0.205c-0.056,0.055-0.124,0.084-0.204,0.084h-1.056c-0.08,0-0.148-0.029-0.204-0.084
		c-0.056-0.057-0.084-0.125-0.084-0.205v-3.299c0-0.464-0.114-0.829-0.342-1.093c-0.229-0.264-0.559-0.396-0.99-0.396
		c-0.416,0-0.748,0.132-0.996,0.396c-0.248,0.264-0.372,0.628-0.372,1.093v3.299c0,0.08-0.028,0.148-0.084,0.205
		c-0.056,0.055-0.124,0.084-0.204,0.084H182.724z"/>
	<path fill="#FFFFFF" d="M192.672,20.621c-0.48,0-0.885-0.084-1.212-0.252c-0.328-0.168-0.572-0.418-0.732-0.75
		s-0.24-0.746-0.24-1.242v-2.725h-0.947c-0.08,0-0.148-0.028-0.204-0.084c-0.057-0.056-0.084-0.128-0.084-0.216v-0.684
		c0-0.08,0.027-0.148,0.084-0.204c0.056-0.056,0.124-0.084,0.204-0.084h0.947v-1.992c0-0.08,0.026-0.148,0.078-0.204
		c0.052-0.056,0.122-0.084,0.21-0.084h0.973c0.079,0,0.147,0.028,0.203,0.084c0.057,0.056,0.084,0.124,0.084,0.204v1.992h1.5
		c0.08,0,0.148,0.028,0.204,0.084c0.057,0.056,0.084,0.124,0.084,0.204v0.684c0,0.088-0.027,0.16-0.084,0.216
		c-0.056,0.056-0.124,0.084-0.204,0.084h-1.5v2.604c0,0.328,0.059,0.584,0.175,0.768c0.115,0.186,0.317,0.277,0.605,0.277h0.828
		c0.08,0,0.148,0.027,0.204,0.084c0.056,0.055,0.084,0.123,0.084,0.203v0.744c0,0.08-0.028,0.148-0.084,0.205
		c-0.056,0.055-0.124,0.084-0.204,0.084H192.672z"/>
	<path fill="#FFFFFF" d="M197.688,20.74c-0.889,0-1.593-0.256-2.112-0.768c-0.521-0.512-0.8-1.24-0.84-2.184
		c-0.009-0.08-0.013-0.182-0.013-0.307c0-0.123,0.004-0.222,0.013-0.294c0.031-0.608,0.17-1.13,0.414-1.566
		c0.243-0.436,0.582-0.772,1.014-1.008s0.939-0.354,1.524-0.354c0.647,0,1.191,0.134,1.632,0.402
		c0.439,0.268,0.771,0.64,0.996,1.116c0.224,0.476,0.336,1.026,0.336,1.65v0.252c0,0.08-0.028,0.147-0.084,0.204
		c-0.057,0.056-0.128,0.084-0.217,0.084h-3.983c0,0.047,0,0.081,0,0.096c0.008,0.279,0.062,0.537,0.162,0.773
		c0.1,0.236,0.248,0.426,0.443,0.57c0.196,0.145,0.431,0.217,0.702,0.217c0.224,0,0.412-0.035,0.564-0.104
		c0.151-0.066,0.275-0.145,0.372-0.232c0.096-0.088,0.164-0.16,0.204-0.217c0.071-0.096,0.13-0.154,0.174-0.174
		s0.109-0.029,0.198-0.029h1.031c0.08,0,0.146,0.023,0.198,0.07c0.052,0.049,0.074,0.109,0.066,0.182
		c-0.009,0.127-0.074,0.283-0.198,0.467c-0.124,0.186-0.302,0.365-0.534,0.541s-0.521,0.322-0.87,0.438
		C198.534,20.682,198.136,20.74,197.688,20.74z M196.368,16.96h2.651v-0.036c0-0.312-0.052-0.586-0.155-0.822
		c-0.104-0.236-0.257-0.42-0.456-0.552c-0.2-0.132-0.44-0.198-0.72-0.198c-0.28,0-0.521,0.066-0.721,0.198
		c-0.2,0.132-0.35,0.316-0.45,0.552c-0.1,0.236-0.149,0.51-0.149,0.822V16.96z"/>
	<path fill="#FFFFFF" d="M204.612,20.74c-0.889,0-1.593-0.256-2.112-0.768c-0.521-0.512-0.8-1.24-0.84-2.184
		c-0.009-0.08-0.013-0.182-0.013-0.307c0-0.123,0.004-0.222,0.013-0.294c0.031-0.608,0.17-1.13,0.414-1.566
		c0.243-0.436,0.582-0.772,1.014-1.008s0.939-0.354,1.524-0.354c0.647,0,1.191,0.134,1.632,0.402
		c0.439,0.268,0.771,0.64,0.996,1.116c0.224,0.476,0.336,1.026,0.336,1.65v0.252c0,0.08-0.028,0.147-0.084,0.204
		c-0.057,0.056-0.128,0.084-0.217,0.084h-3.983c0,0.047,0,0.081,0,0.096c0.008,0.279,0.062,0.537,0.162,0.773
		c0.1,0.236,0.248,0.426,0.443,0.57c0.196,0.145,0.431,0.217,0.702,0.217c0.224,0,0.412-0.035,0.564-0.104
		c0.151-0.066,0.275-0.145,0.372-0.232c0.096-0.088,0.164-0.16,0.204-0.217c0.071-0.096,0.13-0.154,0.174-0.174
		s0.109-0.029,0.198-0.029h1.031c0.08,0,0.146,0.023,0.198,0.07c0.052,0.049,0.074,0.109,0.066,0.182
		c-0.009,0.127-0.074,0.283-0.198,0.467c-0.124,0.186-0.302,0.365-0.534,0.541s-0.521,0.322-0.87,0.438
		C205.458,20.682,205.06,20.74,204.612,20.74z M203.292,16.96h2.651v-0.036c0-0.312-0.052-0.586-0.155-0.822
		c-0.104-0.236-0.257-0.42-0.456-0.552c-0.2-0.132-0.44-0.198-0.72-0.198c-0.28,0-0.521,0.066-0.721,0.198
		c-0.2,0.132-0.35,0.316-0.45,0.552c-0.1,0.236-0.149,0.51-0.149,0.822V16.96z"/>
</g>
</svg>
