<svg xmlns="http://www.w3.org/2000/svg" xmlns:xlink="http://www.w3.org/1999/xlink" version="1.1" role="img" id="Layer_1" x="0px" y="0px" width="120.5px" height="81px" viewBox="0 0 120.5 81" enable-background="new 0 0 120.5 81" xml:space="preserve">
	<g>
		<g>
			<g>
				<g>
					<path fill="#1d39d8" d="M116.701,80.796H3.799c-1.957,0-3.549-1.592-3.549-3.549V3.753c0-1.957,1.592-3.549,3.549-3.549h112.902 c1.956,0,3.549,1.592,3.549,3.549v73.494C120.25,79.204,118.657,80.796,116.701,80.796z M3.799,1.979 c-0.979,0-1.773,0.797-1.773,1.774v73.494c0,0.979,0.795,1.772,1.773,1.772h112.902c0.979,0,1.773-0.797,1.773-1.772V3.753 c0-0.979-0.795-1.774-1.773-1.774H3.799z"></path>
				</g>
			</g>
		</g>
		<g>
			<g>
				<path fill="#1d39d8" d="M93.548,38.73c0,0.977-0.823,1.77-1.84,1.77H28.79c-1.016,0-1.838-0.793-1.838-1.77V20.037 c0-0.977,0.822-1.77,1.838-1.77h62.918c1.017,0,1.84,0.793,1.84,1.77V38.73z"></path>
			</g>
			<g>
				<path fill="#1d39d8" d="M91.846,53.198H28.655c-0.807,0-1.456-0.692-1.456-1.541s0.649-1.541,1.456-1.541h63.191 c0.805,0,1.454,0.692,1.454,1.541C93.301,52.506,92.65,53.198,91.846,53.198z"></path>
			</g>
			<g>
				<path fill="#1d39d8" d="M87.941,62.732H32.766c-0.808,0-1.456-0.691-1.456-1.541s0.648-1.541,1.456-1.541h55.177 c0.808,0,1.457,0.691,1.457,1.541S88.75,62.732,87.941,62.732z"></path>
			</g>
		</g>
	</g>
</svg>