<svg xmlns="http://www.w3.org/2000/svg" xmlns:xlink="http://www.w3.org/1999/xlink" version="1.1" role="img" id="Layer_1" x="0px" y="0px" width="120.5px" height="81px" viewBox="0 0 120.5 81" enable-background="new 0 0 120.5 81" xml:space="preserve">
	<g>
		<g>
			<g>
				<g>
					<path fill="#1d39d8" d="M116.701,80.796H3.799c-1.957,0-3.549-1.592-3.549-3.549V3.753c0-1.957,1.592-3.549,3.549-3.549h112.902 c1.956,0,3.549,1.592,3.549,3.549v73.494C120.25,79.204,118.657,80.796,116.701,80.796z M3.799,1.979 c-0.979,0-1.773,0.797-1.773,1.774v73.494c0,0.979,0.795,1.772,1.773,1.772h112.902c0.979,0,1.773-0.797,1.773-1.772V3.753 c0-0.979-0.795-1.774-1.773-1.774H3.799z"></path>
				</g>
			</g>
		</g>
		<g>
			<g>
				<g>
					<path fill="#1d39d8" d="M21.129,42.385h31.36c0.874,0,1.583-0.708,1.583-1.582c0-0.873-0.709-1.582-1.583-1.582h-31.36 c-0.873,0-1.58,0.709-1.58,1.582C19.549,41.677,20.257,42.385,21.129,42.385z"></path>
				</g>
				<g>
					<path fill="#1d39d8" d="M21.129,31.667h31.36c0.874,0,1.583-0.708,1.583-1.582c0-0.873-0.709-1.582-1.583-1.582h-31.36 c-0.873,0-1.58,0.709-1.58,1.582S20.257,31.667,21.129,31.667z"></path>
				</g>
				<g>
					<path fill="#1d39d8" d="M21.129,53.104h24.36c0.874,0,1.583-0.709,1.583-1.582s-0.709-1.582-1.583-1.582h-24.36 c-0.873,0-1.58,0.709-1.58,1.582S20.257,53.104,21.129,53.104z"></path>
				</g>
			</g>
			<g>
				<path fill="#1d39d8" d="M66.889,59.336c0,1.217,0.987,2.203,2.204,2.203h29.654c1.217,0,2.204-0.986,2.204-2.203v-37.67 c0-1.217-0.987-2.205-2.204-2.205H69.093c-1.217,0-2.204,0.987-2.204,2.205V59.336z"></path>
			</g>
		</g>
	</g>
</svg>