<svg xmlns="http://www.w3.org/2000/svg" xmlns:xlink="http://www.w3.org/1999/xlink" version="1.1" role="img" id="Layer_1" x="0px" y="0px" width="120.5px" height="81px" viewBox="0 0 120.5 81" enable-background="new 0 0 120.5 81" xml:space="preserve">
	<g>
		<g>
			<g>
				<g>
					<path fill="#1d39d8" d="M0.25,77.247V3.753c0-1.957,1.593-3.549,3.549-3.549h112.902c1.957,0,3.549,1.592,3.549,3.549v73.494 c0,1.957-1.592,3.549-3.549,3.549H3.799C1.843,80.796,0.25,79.204,0.25,77.247z M3.799,1.979c-0.979,0-1.773,0.795-1.773,1.774 v73.494c0,0.976,0.795,1.772,1.773,1.772h112.902c0.979,0,1.773-0.793,1.773-1.772V3.753c0-0.977-0.795-1.774-1.773-1.774H3.799 z"></path>
				</g>
			</g>
		</g>
		<g>
			<g>
				<g>
					<path fill="#1d39d8" d="M99.371,42.385h-31.36c-0.874,0-1.583-0.708-1.583-1.582c0-0.873,0.709-1.582,1.583-1.582h31.36 c0.873,0,1.58,0.709,1.58,1.582C100.951,41.677,100.243,42.385,99.371,42.385z"></path>
				</g>
				<g>
					<path fill="#1d39d8" d="M99.371,31.667h-31.36c-0.874,0-1.583-0.708-1.583-1.582c0-0.873,0.709-1.582,1.583-1.582h31.36 c0.873,0,1.58,0.709,1.58,1.582S100.243,31.667,99.371,31.667z"></path>
				</g>
				<g>
					<path fill="#1d39d8" d="M99.371,53.104H75.012c-0.875,0-1.584-0.709-1.584-1.582s0.709-1.582,1.584-1.582h24.359 c0.873,0,1.58,0.709,1.58,1.582S100.243,53.104,99.371,53.104z"></path>
				</g>
			</g>
			<g>
				<path fill="#1d39d8" d="M53.611,59.336c0,1.217-0.987,2.203-2.204,2.203H21.753c-1.217,0-2.204-0.986-2.204-2.203v-37.67 c0-1.217,0.987-2.205,2.204-2.205h29.654c1.217,0,2.204,0.987,2.204,2.205V59.336z"></path>
			</g>
		</g>
	</g>
</svg>