
<svg version="1.1" id="Layer_1" xmlns="http://www.w3.org/2000/svg" xmlns:xlink="http://www.w3.org/1999/xlink" x="0px" y="0px"
	 viewBox="0 0 1500 1500" enable-background="new 0 0 1500 1500" xml:space="preserve">
<g>
	<g>
		<g>
			<path fill="#30323D" d="M140.2,896.5c-6.5,0-13-2.8-17.5-8.3L41,787.9c-17.9-22-17.9-53.9,0-75.8l81.7-100.3
				c7.9-9.6,22-11.1,31.7-3.2c9.6,7.9,11.1,22,3.2,31.7L75.9,740.5c-4.5,5.5-4.5,13.5,0,19l81.7,100.3c7.9,9.6,6.4,23.8-3.2,31.7
				C150.2,894.8,145.2,896.5,140.2,896.5z"/>
		</g>
		<g>
			<path fill="#30323D" d="M1359.8,896.5c-5,0-10-1.7-14.2-5.1c-9.6-7.9-11.1-22-3.2-31.7l81.7-100.3c4.5-5.5,4.5-13.5,0-19
				l-81.7-100.3c-7.9-9.6-6.4-23.8,3.2-31.7c9.6-7.9,23.8-6.4,31.7,3.2l81.7,100.3c17.9,22,17.9,53.9,0,75.8l-81.7,100.3
				C1372.8,893.6,1366.3,896.5,1359.8,896.5z"/>
		</g>
	</g>
	<g>
		<path fill="#30323D" d="M1202.2,1310.4H297.8c-35.1,0-63.7-28.6-63.7-63.7V253.3c0-35.1,28.6-63.7,63.7-63.7h904.3
			c35.1,0,63.7,28.6,63.7,63.7v993.5C1265.9,1281.9,1237.3,1310.4,1202.2,1310.4z M297.8,234.6c-10.3,0-18.7,8.4-18.7,18.7v993.5
			c0,10.3,8.4,18.7,18.7,18.7h904.3c10.3,0,18.7-8.4,18.7-18.7V253.3c0-10.3-8.4-18.7-18.7-18.7H297.8z"/>
	</g>
	<g>
		<g>
			<g>
				<path fill="#30323D" d="M465.5,573.7c-4.7,0-9.3-1.4-13.2-4.3c-6.9-5-10.4-13.6-9-22l7.8-45.4l-33-32.1
					c-6.1-6-8.3-14.9-5.7-23.1s9.7-14.1,18.2-15.3l45.5-6.6l20.4-41.3c3.8-7.7,11.6-12.5,20.2-12.5s16.4,4.9,20.2,12.5l20.4,41.3
					l45.5,6.6c8.5,1.2,15.5,7.2,18.2,15.3c2.6,8.1,0.4,17.1-5.7,23.1l-33,32.1l7.8,45.4c1.4,8.4-2,17-9,22s-16.1,5.7-23.7,1.7
					l-40.7-21.4L476,571.1C472.7,572.8,469.1,573.7,465.5,573.7z M516.7,501.8c3.6,0,7.2,0.9,10.5,2.6l10.8,5.7L536,498
					c-1.3-7.3,1.2-14.7,6.5-19.9l8.8-8.6l-12.1-1.8c-7.3-1.1-13.7-5.7-16.9-12.3l-5.4-11l-5.4,11c-3.3,6.6-9.6,11.2-16.9,12.3
					l-12.1,1.8l8.8,8.6c5.3,5.2,7.7,12.6,6.5,19.9l-2.1,12.1l10.8-5.7C509.5,502.6,513.1,501.8,516.7,501.8z"/>
			</g>
			<g>
				<path fill="#30323D" d="M801.2,573.7c-3.6,0-7.2-0.9-10.5-2.6L750,549.7l-40.7,21.4c-7.6,4-16.8,3.3-23.7-1.7
					c-6.9-5-10.4-13.6-9-22l7.8-45.4l-33-32.1c-6.1-6-8.3-14.9-5.7-23.1c2.6-8.1,9.7-14.1,18.2-15.3l45.5-6.6l20.4-41.3
					c3.8-7.7,11.6-12.5,20.2-12.5s16.4,4.9,20.2,12.5l20.4,41.3l45.5,6.6c8.5,1.2,15.5,7.2,18.2,15.3c2.6,8.1,0.4,17.1-5.7,23.1
					l-33,32.1l7.8,45.4c1.4,8.4-2,17-9,22C810.5,572.2,805.9,573.7,801.2,573.7z M750,501.8c3.6,0,7.2,0.9,10.5,2.6l10.8,5.7
					l-2.1-12.1c-1.3-7.3,1.2-14.7,6.5-19.9l8.8-8.6l-12.1-1.8c-7.3-1.1-13.7-5.7-16.9-12.3l-5.4-11l-5.4,11
					c-3.3,6.6-9.6,11.2-16.9,12.3l-12.1,1.8l8.8,8.6c5.3,5.2,7.7,12.6,6.5,19.9l-2.1,12.1l10.8-5.7
					C742.8,502.6,746.4,501.8,750,501.8z"/>
			</g>
			<g>
				<path fill="#30323D" d="M1034.5,573.7c-3.6,0-7.2-0.9-10.5-2.6l-40.7-21.4l-40.7,21.4c-7.6,4-16.8,3.3-23.7-1.7
					c-6.9-5-10.4-13.6-9-22l7.8-45.4l-33-32.1c-6.1-6-8.3-14.9-5.7-23.1c2.6-8.1,9.7-14.1,18.2-15.3l45.5-6.6l20.4-41.3
					c3.8-7.7,11.6-12.5,20.2-12.5s16.4,4.9,20.2,12.5l20.4,41.3l45.5,6.6c8.5,1.2,15.5,7.2,18.2,15.3s0.4,17.1-5.7,23.1l-33,32.1
					l7.8,45.4c1.4,8.4-2,17-9,22C1043.8,572.2,1039.2,573.7,1034.5,573.7z M983.3,501.8c3.6,0,7.2,0.9,10.5,2.6l10.8,5.7l-2.1-12.1
					c-1.3-7.3,1.2-14.7,6.5-19.9l8.8-8.6l-12.1-1.8c-7.3-1.1-13.7-5.7-16.9-12.3l-5.4-11l-5.4,11c-3.3,6.6-9.6,11.2-16.9,12.3
					l-12.1,1.8l8.8,8.6c5.3,5.2,7.7,12.6,6.5,19.9l-2.1,12.1l10.8-5.7C976.1,502.6,979.7,501.8,983.3,501.8z"/>
			</g>
		</g>
		<g>
			<g>
				<path fill="#5b2cff" d="M924,805.6c93.8,185.4-90.2,369.3-275.5,275.5c-31.2-15.8-56.7-41.3-72.4-72.4
					c-93.8-185.4,90.2-369.3,275.5-275.5C882.7,748.9,908.2,774.4,924,805.6z"/>
			</g>
			<g>
				<path fill="#30323D" d="M750,1128.9c-37.8,0-75.4-9.3-111.7-27.7c-35.3-17.8-64.5-47.1-82.4-82.4c-38.7-76.5-36.9-159.5,5-227.7
					c19.5-31.7,46.9-58.2,79.1-76.7c33.3-19,71.3-29.1,109.9-29.1c37.8,0,75.4,9.3,111.7,27.7c35.3,17.8,64.5,47.1,82.4,82.4
					c38.7,76.5,36.9,159.5-5,227.7c-19.5,31.7-46.9,58.2-79.1,76.7C826.6,1118.8,788.6,1128.9,750,1128.9z M750,730.3
					c-61.9,0-118.2,31.5-150.7,84.3c-33.5,54.5-34.7,121.6-3.2,183.8c13.5,26.8,35.7,49,62.5,62.5c30,15.2,60.7,22.9,91.4,22.9
					c61.9,0,118.2-31.5,150.7-84.3c33.5-54.5,34.7-121.6,3.2-183.8c-13.5-26.8-35.7-49-62.5-62.5C811.4,738,780.7,730.3,750,730.3z"
					/>
			</g>
		</g>
	</g>
</g>
</svg>
