
<svg xmlns="http://www.w3.org/2000/svg" xmlns:xlink="http://www.w3.org/1999/xlink" x="0px" y="0px"
	 viewBox="0 0 1500 1500" enable-background="new 0 0 1500 1500" xml:space="preserve">
<g>
	<g>
		<polygon fill="#5b2cff" points="338.9,133.7 428.2,314.6 627.8,343.6 483.4,484.4 517.5,683.2 338.9,589.4 160.4,683.2
			194.5,484.4 50,343.6 249.6,314.6 		"/>
	</g>
	<g>
		<path fill="#30323D" d="M1162.2,1388.8c-4.4,0-8.8-1.3-12.6-3.8l-292.4-197.1H263.9c-38,0-69-30.9-69-69V731.1
			c0-12.4,10.1-22.5,22.5-22.5s22.5,10.1,22.5,22.5v387.8c0,13.2,10.8,24,24,24h600.2c4.5,0,8.9,1.3,12.6,3.8l263.3,177.5l1.2-159
			c0.1-12.4,10.1-22.3,22.5-22.3h239.9c13.2,0,24-10.8,24-24V347.6c0-13.2-10.8-24-24-24H707.1c-12.4,0-22.5-10.1-22.5-22.5
			c0-12.4,10.1-22.5,22.5-22.5h696.4c38,0,69,30.9,69,69v771.3c0,38-30.9,69-69,69H1186l-1.3,178.6c-0.1,8.3-4.7,15.9-12,19.7
			C1169.4,1387.9,1165.8,1388.8,1162.2,1388.8z"/>
	</g>
	<g>
		<path fill="#30323D" d="M517.4,705.7c-3.6,0-7.2-0.9-10.5-2.6l-168.1-88.4l-168.1,88.4c-7.6,4-16.8,3.3-23.7-1.7
			c-6.9-5-10.4-13.6-9-22l32.1-187.2l-136-132.5c-6.1-6-8.3-14.9-5.7-23.1c2.6-8.1,9.7-14.1,18.2-15.3L234.7,294l84-170.3
			c3.8-7.7,11.6-12.5,20.2-12.5s16.4,4.9,20.2,12.5l84,170.3L631,321.3c8.5,1.2,15.5,7.2,18.2,15.3c2.6,8.1,0.4,17.1-5.7,23.1
			l-136,132.5l32.1,187.2c1.4,8.4-2,17-9,22C526.8,704.3,522.1,705.7,517.4,705.7z M338.9,566.9c3.6,0,7.2,0.9,10.5,2.6l138.2,72.7
			l-26.4-153.9c-1.3-7.3,1.2-14.7,6.5-19.9l111.8-109l-154.5-22.5c-7.3-1.1-13.7-5.7-16.9-12.3l-69.1-140l-69.1,140
			c-3.3,6.6-9.6,11.2-16.9,12.3L98.4,359.3l111.8,109c5.3,5.2,7.7,12.6,6.5,19.9l-26.4,153.9l138.2-72.7
			C331.7,567.7,335.3,566.9,338.9,566.9z"/>
	</g>
	<g>
		<g>
			<path fill="#30323D" d="M1323.1,630.1H769.3c-12.4,0-22.5-10.1-22.5-22.5V484c0-12.4,10.1-22.5,22.5-22.5h553.8
				c12.4,0,22.5,10.1,22.5,22.5v123.7C1345.6,620.1,1335.6,630.1,1323.1,630.1z M791.8,585.1h508.8v-78.7H791.8V585.1z"/>
		</g>
		<g>
			<path fill="#30323D" d="M1323.1,778H680.6c-12.4,0-22.5-10.1-22.5-22.5s10.1-22.5,22.5-22.5h642.6c12.4,0,22.5,10.1,22.5,22.5
				S1335.6,778,1323.1,778z"/>
		</g>
		<g>
			<path fill="#30323D" d="M1323.1,888.2H344.3c-12.4,0-22.5-10.1-22.5-22.5s10.1-22.5,22.5-22.5h978.8c12.4,0,22.5,10.1,22.5,22.5
				S1335.6,888.2,1323.1,888.2z"/>
		</g>
		<g>
			<path fill="#30323D" d="M1323.1,998.5H344.3c-12.4,0-22.5-10.1-22.5-22.5s10.1-22.5,22.5-22.5h978.8c12.4,0,22.5,10.1,22.5,22.5
				S1335.6,998.5,1323.1,998.5z"/>
		</g>
	</g>
</g>
</svg>
