
<svg version="1.1" id="Layer_1" xmlns="http://www.w3.org/2000/svg" xmlns:xlink="http://www.w3.org/1999/xlink" x="0px" y="0px"
	 viewBox="0 0 1500 1500" enable-background="new 0 0 1500 1500" xml:space="preserve">
<g>
	<g>
		<path fill="#5b2cff" d="M897.3,360.7H50v-286c0-1.1,0.9-2,2-2h845.3V360.7z"/>
	</g>
	<g>
		<path fill="#30323D" d="M1450,383.2H50c-12.4,0-22.5-10.1-22.5-22.5v-286c0-13.5,11-24.5,24.5-24.5h1396c13.5,0,24.5,11,24.5,24.5
			v286C1472.5,373.1,1462.4,383.2,1450,383.2z M72.5,338.2h1355v-243H72.5V338.2z"/>
	</g>
	<g>
		<path fill="#30323D" d="M1450,916.5H50c-12.4,0-22.5-10.1-22.5-22.5V606c0-12.4,10.1-22.5,22.5-22.5h1400
			c12.4,0,22.5,10.1,22.5,22.5v288C1472.5,906.4,1462.4,916.5,1450,916.5z M72.5,871.5h1355v-243H72.5V871.5z"/>
	</g>
	<g>
		<path fill="#5b2cff" d="M399.8,1427.3H52c-1.1,0-2-0.9-2-2v-286h349.8V1427.3z"/>
	</g>
	<g>
		<path fill="#30323D" d="M1448,1449.8H52c-13.5,0-24.5-11-24.5-24.5v-286c0-12.4,10.1-22.5,22.5-22.5h1400
			c12.4,0,22.5,10.1,22.5,22.5v286C1472.5,1438.8,1461.5,1449.8,1448,1449.8z M72.5,1404.8h1355v-243H72.5V1404.8z"/>
	</g>
	<g>
		<path fill="#30323D" d="M399.8,1449.8c-12.4,0-22.5-10.1-22.5-22.5v-288c0-12.4,10.1-22.5,22.5-22.5s22.5,10.1,22.5,22.5v288
			C422.3,1439.7,412.3,1449.8,399.8,1449.8z"/>
	</g>
	<g>
		<path fill="#30323D" d="M1094,916.5c-12.4,0-22.5-10.1-22.5-22.5V606c0-12.4,10.1-22.5,22.5-22.5s22.5,10.1,22.5,22.5v288
			C1116.5,906.4,1106.4,916.5,1094,916.5z"/>
	</g>
	<g>
		<path fill="#30323D" d="M897.3,383.2c-12.4,0-22.5-10.1-22.5-22.5v-288c0-12.4,10.1-22.5,22.5-22.5s22.5,10.1,22.5,22.5v288
			C919.8,373.1,909.7,383.2,897.3,383.2z"/>
	</g>
</g>
</svg>
