
<svg version="1.1" id="Layer_1" xmlns="http://www.w3.org/2000/svg" xmlns:xlink="http://www.w3.org/1999/xlink" x="0px" y="0px"
	 viewBox="0 0 1500 1500" enable-background="new 0 0 1500 1500" xml:space="preserve">
<g>
	<g>
		<path fill="#5b2cff" d="M337.1,1261v-226.4l-61.1-22l-48-33.9c0,0-90.1,55.9-124.9,63.6c-29.7,6.6-56.4,99.4-52.8,178.8
			c1,22.3,19.3,39.9,41.7,39.9C215.5,1261,337.1,1261,337.1,1261z"/>
	</g>
	<g>
		<path fill="#5b2cff" d="M1162.9,1261v-226.4l61.1-22l48-33.9c0,0,90.1,55.9,124.9,63.6c29.7,6.6,56.4,99.4,52.8,178.8
			c-1,22.3-19.3,39.9-41.7,39.9C1284.5,1261,1162.9,1261,1162.9,1261z"/>
	</g>
	<g>
		<g>
			<g>
				<g>
					<path fill="#30323D" d="M754.7,918V895V918c-0.2,0-0.4,0-0.6,0c-1.7,0-43-1.5-90.7-32.2c-27.4-17.6-51.6-41.4-72-70.6
						c-23.1-33.2-41.3-73.6-54.1-120.2c-18-10.5-33.5-32.1-42.1-46c-8.7-13.9-28.6-49.6-26.1-80.9c2-25.3,18.3-42.1,43.3-45.5
						c-3.9-28.1-7.7-66.1-7.3-104.5c0.7-60.1,11.9-103.5,33.4-129c15.2-18,35.7-27.6,59.4-27.6c10.9,0,22.5,2,34.9,6
						c14.1-13.1,32.2-24.4,53-33.1c27.9-11.8,59-18,89.7-18c52.1,0,101,17.6,141.6,50.8c47.9,39.3,83.4,99.2,105.3,178
						c2.1,7.5,0.2,15.5-5.1,21.2c-5.2,5.7-13.1,8.3-20.7,6.9l-15.9-2.9l12.5,52.2c13.7,4.9,29.3,15,37.1,33.2
						c14,32.5-1.3,76.2-46.5,133.5c-2,4.3-4.2,9.2-6.7,14.8c-15.1,33.9-38,85-72.5,129.3C860.6,889.5,810.2,918,754.7,918z
						 M560.6,656.5c8.5,1.7,15.3,8.1,17.4,16.6c20.2,80.2,57.3,140.1,107.4,173.4c35.7,23.7,66.6,26.3,69.7,26.5
						c97.1-0.4,153.5-126.6,180.7-187.3c3.1-6.9,5.7-12.8,8.2-18c0.7-1.6,1.7-3.1,2.8-4.4c38.4-48.2,47-77.9,42.1-89.6
						c-3.3-8-15.3-9.9-16.6-10.1c-9.8-0.7-17.5-7.6-19.8-17.2l-23.7-99.2c-1.8-7.4,0.3-15.2,5.6-20.7c5.2-5.5,12.9-8,20.4-6.6
						l13,2.4C917.1,283.2,827,261.4,775.4,261.4c-55,0-100.6,24.3-119.6,46.9c-6.4,7.6-17,10.1-26.1,6.2
						c-12.2-5.3-22.9-7.9-31.9-7.9c-10.5,0-18.2,3.6-25,11.6c-10,11.9-22.2,39-22.9,100.6c-0.6,49.6,6.6,98.9,10.9,123.9
						c1.3,7.3-1.2,14.8-6.5,19.9s-12.8,7.4-20.1,6c-4.7-0.9-8.9-1.4-12.4-1.4c-5,0-6.9,0.9-7.3,1.2c-0.7,1.2-2.1,7.9,2.1,21.9
						c4.2,13.8,12.4,29.9,22.4,44C550.1,649.3,558.2,655.3,560.6,656.5z"/>
				</g>
			</g>
			<g>
				<g>
					<path fill="#30323D" d="M534.1,538.4c-5.7,0-11.5-2.2-15.9-6.5c-8.8-8.8-8.9-23-0.1-31.8l120.7-121.6
						c5.1-5.1,12.4-7.5,19.5-6.4l295.8,47.6c12.3,2,20.6,13.5,18.6,25.8c-2,12.3-13.5,20.6-25.8,18.6l-284.4-45.8L550.1,531.7
						C545.7,536.2,539.9,538.4,534.1,538.4z"/>
				</g>
			</g>
			<g>
				<g>
					<path fill="#30323D" d="M1165.6,1283.6C1165.6,1283.6,1165.6,1283.6,1165.6,1283.6l-827.4-0.1c-12.4,0-22.5-10.1-22.5-22.5
						l0-207.5c0-76.7,48.4-142,140.1-188.9c47.5-24.3,94.5-37.6,118.2-43.3l5.4-35c1.9-12,12.9-20.3,25-18.9
						c6.8,0.8,12.8,4.7,16.4,10.4c30.2,48.5,66,71.8,90.7,82.8c24,10.7,41.6,12,43.6,12.2c47.5-0.2,89.8-29.3,129.4-89
						c5.1-7.7,14.5-11.5,23.6-9.6c9.1,2,16,9.3,17.4,18.5l4.4,28.5c23.7,5.7,70.7,19,118.2,43.3c91.6,46.9,140.1,112.2,140,188.9
						l0,207.5c0,6-2.4,11.7-6.6,15.9C1177.3,1281.2,1171.6,1283.6,1165.6,1283.6z M360.7,1238.5l782.4,0.1l0-185
						c0-145.2-234.9-191.1-237.3-191.5c-6.9-1.3-12.7-5.7-15.8-11.7c-40.4,44.9-85.8,67.6-135.4,67.6c-0.2,0-0.4,0-0.6,0
						c-3.5-0.1-74.3-3-138.3-72.5c-2.1,8.5-9,15-17.7,16.6c-2.4,0.4-237.3,46.6-237.3,191.5L360.7,1238.5z"/>
				</g>
			</g>
		</g>
		<g>
			<g>
				<g>
					<g>
						<path fill="#30323D" d="M1187.1,1050.9C1187.1,1050.9,1187.1,1050.9,1187.1,1050.9c-12.4,0-22.5-10.1-22.5-22.5
							c0-12.4,10.1-22.5,22.5-22.5c0,0,0,0,0,0c56.7,0,91.3-77.3,107.9-114.4c2-4.4,3.7-8.2,5.3-11.6c0.7-1.6,1.7-3.1,2.8-4.4
							c27.4-34.3,25.9-47.5,25.7-48.7c-0.9-0.8-3.5-1.5-3.6-1.5c-9.7-0.8-17.7-7.8-20-17.2l-15.1-63.1c-1.8-7.4,0.3-15.2,5.6-20.7
							c3.8-4.1,9-6.5,14.5-6.9c-19.7-45.6-49.4-73.7-87.1-81.9c-41.9-9.1-79.2,8.9-92.4,24.5c-6.4,7.6-17,10.1-26.1,6.2
							c-8-3.5-18.8-6.6-24.5-2.1c-3.1,2.5-13.4,13.8-14.7,55.8c-1,33.6,4.4,69,6.7,82.6c1.3,7.3-1.2,14.8-6.5,19.9
							c-5.3,5.2-12.8,7.4-20.1,6c-1.6-0.3-2.9-0.5-4-0.6c0.7,4.8,3.1,12.9,8.7,23.4c7.5,14.1,15.8,23.2,18.7,25.1
							c11,5.6,15.4,19.1,9.8,30.1c-5.6,11.1-19.1,15.6-30.2,10c-18.5-9.3-33.8-36.1-38.1-44.1c-9.3-17.4-18.9-42.6-11.8-63.3
							c1.9-5.4,8.1-19,25.3-24.3c-2.3-18.9-4.3-42.7-3.6-66.3c1.4-44.6,11.8-73.9,31.9-89.7c10.9-8.6,28.9-16.3,55.5-9
							c27.8-23.3,75.4-39,124.9-28.2c29.5,6.4,55.7,21.3,77.7,44.2c24.5,25.5,43.1,60.5,55.2,104c2.1,7.5,0.2,15.5-5.1,21.2
							c-4.7,5.2-11.6,7.8-18.5,7.2l4.1,17c8.7,3.9,18.6,11,24.2,23.9c10.1,23.5,0.3,53.8-30.1,92.5c-1.1,2.5-2.4,5.3-3.8,8.5
							c-9.8,21.9-24.6,55.1-47.2,84C1259.3,1031.7,1225.1,1050.9,1187.1,1050.9z"/>
					</g>
				</g>
				<g>
					<g>
						<path fill="#30323D" d="M1046.7,809.2c-5.7,0-11.5-2.2-15.9-6.5c-8.8-8.8-8.9-23-0.1-31.8l76.9-77.4
							c5.1-5.1,12.4-7.5,19.5-6.4l188.3,30.3c12.3,2,20.6,13.5,18.6,25.8c-2,12.3-13.5,20.6-25.8,18.6l-176.9-28.5l-68.7,69.2
							C1058.2,807,1052.4,809.2,1046.7,809.2z"/>
					</g>
				</g>
				<g>
					<g>
						<path fill="#30323D" d="M1407.1,1283.6C1407.1,1283.6,1407.1,1283.6,1407.1,1283.6l-242.9,0c-12.4,0-22.5-10.1-22.5-22.5
							c0-12.4,10.1-22.5,22.5-22.5c0,0,0,0,0,0l242.9,0h0c5.1,0,9.9-2,13.5-5.6c3.6-3.6,5.6-8.4,5.6-13.5l0-90.5
							c0-85.4-143-113.6-144.4-113.9c-3.1-0.6-6-1.8-8.5-3.6c-25.8,26.1-54.7,39.2-86.2,39.2c-0.2,0-0.4,0-0.6,0
							c-2-0.1-13-0.6-28.5-5.8c-11.8-3.9-18.2-16.6-14.3-28.4c3.9-11.8,16.6-18.2,28.4-14.3c8.4,2.8,14.3,3.4,15.6,3.5
							c27.2-0.2,51.8-17.6,75.2-53c5.1-7.7,14.5-11.5,23.6-9.6c9.1,2,16,9.3,17.4,18.5l2,12.8c16.6,4.3,44,12.7,71.7,26.9
							c61.2,31.3,93.6,75.5,93.6,127.6l0,90.5c0,17.1-6.7,33.2-18.8,45.3C1440.3,1277,1424.2,1283.6,1407.1,1283.6z"/>
					</g>
				</g>
			</g>
			<g>
				<g>
					<g>
						<path fill="#30323D" d="M320.3,1050.8c-0.2,0-0.4,0-0.6,0c-3-0.1-30.2-1.4-61.9-21.8c-27.1-17.4-62.8-52.8-82.9-123.2
							c-18-12.3-32.9-38.2-39.2-55.3c-10.7-28.8-3.8-45.6,3.9-54.5c3.7-4.3,9.3-8.8,17.4-11.4c-2.4-18.9-4.3-42.7-3.6-66.4
							c1.4-44.6,11.8-73.9,31.9-89.7c10.9-8.6,28.9-16.3,55.5-9c27.8-23.3,75.4-39,124.9-28.2c29.5,6.4,55.7,21.3,77.7,44.2
							c24.5,25.5,43.1,60.5,55.2,104c2.1,7.5,0.2,15.5-5.1,21.2c-4.7,5.2-11.6,7.8-18.5,7.2l4.1,17c8.7,3.9,18.6,11,24.2,23.9
							c10.3,24-0.1,54.9-31.8,94.7c-7.8,9.7-21.9,11.3-31.6,3.6c-9.7-7.8-11.3-21.9-3.6-31.6c27.4-34.3,25.9-47.5,25.7-48.7
							c-0.6-0.6-2.5-1.3-3.9-1.5c-10-0.5-17.4-7.4-19.7-17.2l-15.1-63.1c-1.8-7.4,0.3-15.2,5.6-20.7c3.9-4.1,9-6.5,14.5-6.9
							c-19.7-45.6-49.4-73.7-87.1-81.9c-41.9-9.1-79.2,8.9-92.4,24.5c-6.4,7.6-17,10.1-26.1,6.2c-8-3.5-18.7-6.6-24.5-2.1
							c-3.1,2.5-13.4,13.8-14.7,55.8c-1,33.6,4.4,69,6.7,82.6c1.3,7.3-1.2,14.8-6.5,19.9c-5.3,5.2-12.8,7.4-20.1,6
							c-1-0.2-2-0.4-2.8-0.5c0.9,4.4,3.2,11.1,7.8,19.5c6.4,11.6,13.5,19.2,16.5,21.4c7.7,2.1,13.8,8.3,15.8,16.2
							c12.5,49.8,35.5,86.6,66.3,106.4c21.1,13.6,38.6,14.6,38.8,14.6c12.4,0.3,22.2,10.7,21.9,23.1
							C342.4,1041.1,332.4,1050.8,320.3,1050.8z"/>
					</g>
				</g>
				<g>
					<g>
						<path fill="#30323D" d="M179.8,809.1c-5.7,0-11.5-2.2-15.9-6.5c-8.8-8.8-8.9-23-0.1-31.8l76.9-77.4c5.1-5.1,12.4-7.5,19.5-6.4
							l188.3,30.3c12.3,2,20.6,13.5,18.6,25.8c-2,12.3-13.5,20.6-25.8,18.6l-176.9-28.5l-68.7,69.2
							C191.4,806.9,185.6,809.1,179.8,809.1z"/>
					</g>
				</g>
				<g>
					<g>
						<path fill="#30323D" d="M337.1,1283.5C337.1,1283.5,337.1,1283.5,337.1,1283.5l-240.4,0c-35.3,0-64.1-28.8-64.1-64.1l0-90.5
							c0-52.1,32.4-96.2,93.6-127.5c27.7-14.2,55.1-22.6,71.7-26.9l2.6-16.9c1.9-11.9,12.8-20.2,24.7-18.9c6.8,0.8,13,4.6,16.6,10.5
							c32.3,51.9,74.4,56.3,78.8,56.6c4.2,0,8.3-0.5,12.4-1.3c12.2-2.5,24.1,5.3,26.6,17.4s-5.3,24.1-17.4,26.6
							c-7.2,1.5-14.7,2.3-22.1,2.3c-0.2,0-0.4,0-0.6,0c-2.2-0.1-45.4-1.8-86.5-41.3c-3,2.8-6.8,4.8-11.1,5.6
							c-1.4,0.3-144.4,28.4-144.4,113.8l0,90.5c0,10.5,8.6,19.1,19.1,19.1l240.4,0c12.4,0,22.5,10.1,22.5,22.5
							C359.6,1273.5,349.5,1283.5,337.1,1283.5z"/>
					</g>
				</g>
			</g>
		</g>
	</g>
</g>
</svg>
