
<svg version="1.1" id="Layer_1" xmlns="http://www.w3.org/2000/svg" xmlns:xlink="http://www.w3.org/1999/xlink" x="0px" y="0px"
	 viewBox="0 0 1500 1500" enable-background="new 0 0 1500 1500" xml:space="preserve">
<g>
	<g>
		<path fill="#30323D" d="M750,1472.5c-12.4,0-22.5-10.1-22.5-22.5V50c0-12.4,10.1-22.5,22.5-22.5s22.5,10.1,22.5,22.5v1400
			C772.5,1462.4,762.4,1472.5,750,1472.5z"/>
	</g>
	<g>
		<g>
			<g>
				<path fill="#5b2cff" d="M1149.5,1046.9L1149.5,1046.9c-103.6,0-187.5-84-187.5-187.5V640.6c0-103.6,84-187.5,187.5-187.5h0
					c103.6,0,187.5,84,187.5,187.5v218.8C1337,962.9,1253,1046.9,1149.5,1046.9z"/>
			</g>
		</g>
		<g>
			<g>
				<path fill="#30323D" d="M1149.5,1069.4c-115.8,0-210-94.2-210-210V640.6c0-115.8,94.2-210,210-210s210,94.2,210,210v218.8
					C1359.5,975.2,1265.3,1069.4,1149.5,1069.4z M1149.5,475.6c-91,0-165,74-165,165v218.8c0,91,74,165,165,165c91,0,165-74,165-165
					V640.6C1314.5,549.6,1240.5,475.6,1149.5,475.6z"/>
			</g>
			<g>
				<path fill="#30323D" d="M350.5,1069.4c-115.8,0-210-94.2-210-210V640.6c0-115.8,94.2-210,210-210s210,94.2,210,210v218.8
					C560.5,975.2,466.3,1069.4,350.5,1069.4z M350.5,475.6c-91,0-165,74-165,165v218.8c0,91,74,165,165,165c91,0,165-74,165-165
					V640.6C515.5,549.6,441.5,475.6,350.5,475.6z"/>
			</g>
		</g>
	</g>
</g>
</svg>
