<svg version="1.1" id="Layer_1" xmlns="http://www.w3.org/2000/svg" xmlns:xlink="http://www.w3.org/1999/xlink" x="0px" y="0px"
	 viewBox="0 0 1500 1500" enable-background="new 0 0 1500 1500" xml:space="preserve">
<g>
	<g>
		<g>
			<path fill="#5b2cff" d="M286.2,754.8c-2.9-2.1-2.9-7.5,0-9.7l88.5-65.3l88.5-65.3c2.9-2.1,6.6,0.5,6.6,4.8V750v130.5
				c0,4.3-3.6,7-6.6,4.8l-88.5-65.3L286.2,754.8z"/>
		</g>
	</g>
	<g>
		<g>
			<path fill="#30323D" d="M465.4,908.6c-5.6,0-11-1.8-15.5-5.1l-177-130.5c-7.1-5.2-11.3-13.8-11.3-22.9s4.2-17.7,11.3-22.9
				l177-130.5c4.6-3.4,9.9-5.1,15.5-5.1c14.8,0,26.9,12.6,26.9,28.1v261C492.3,896,480.2,908.6,465.4,908.6z M317.6,750l129.7,95.6
				V654.4L317.6,750z"/>
		</g>
		<g>
			<path fill="#30323D" d="M1034.6,908.6c-14.8,0-26.9-12.6-26.9-28.1v-261c0-15.5,12.1-28.1,26.9-28.1c5.6,0,11,1.8,15.5,5.1
				l177,130.5c7.1,5.2,11.3,13.8,11.3,22.9s-4.2,17.7-11.3,22.9l-177,130.5C1045.6,906.8,1040.2,908.6,1034.6,908.6z M1052.7,654.4
				v191.2l129.7-95.6L1052.7,654.4z"/>
		</g>
	</g>
	<g>
		<g>
			<path fill="#30323D" d="M1413.6,1400.6H954.6c-12.4,0-22.5-10.1-22.5-22.5s10.1-22.5,22.5-22.5h458.9c6.6,0,13.9-8.5,13.9-20.6
				V165c0-12.1-7.4-20.6-13.9-20.6H946.4c-12.4,0-22.5-10.1-22.5-22.5c0-12.4,10.1-22.5,22.5-22.5h467.1c32.5,0,58.9,29.4,58.9,65.6
				V1335C1472.5,1371.1,1446.1,1400.6,1413.6,1400.6z"/>
		</g>
		<g>
			<path fill="#30323D" d="M543.9,1400.6H86.4c-32.5,0-58.9-29.4-58.9-65.6V165c0-36.2,26.4-65.6,58.9-65.6h457.5
				c12.4,0,22.5,10.1,22.5,22.5c0,12.4-10.1,22.5-22.5,22.5H86.4c-6.6,0-13.9,8.5-13.9,20.6V1335c0,12.1,7.4,20.6,13.9,20.6h457.5
				c12.4,0,22.5,10.1,22.5,22.5S556.4,1400.6,543.9,1400.6z"/>
		</g>
	</g>
	<g>
		<path fill="#30323D" d="M750,1302.3c-12.4,0-22.5-10.1-22.5-22.5V220.2c0-12.4,10.1-22.5,22.5-22.5s22.5,10.1,22.5,22.5v1059.6
			C772.5,1292.2,762.4,1302.3,750,1302.3z"/>
	</g>
</g>
</svg>
