
<svg version="1.1" id="Layer_1" xmlns="http://www.w3.org/2000/svg" xmlns:xlink="http://www.w3.org/1999/xlink" x="0px" y="0px"
	 viewBox="0 0 1500 1500" enable-background="new 0 0 1500 1500" xml:space="preserve">
<g>
	<g>
		<g>
			<path fill="#30323D" d="M146.6,890.9c-6.5,0-13-2.8-17.5-8.3L32.6,764.2c-6.7-8.3-6.7-20.2,0-28.4l96.5-118.4
				c7.9-9.6,22-11.1,31.7-3.2c9.6,7.9,11.1,22,3.2,31.7L79,750l85,104.2c7.9,9.6,6.4,23.8-3.2,31.7
				C156.6,889.3,151.6,890.9,146.6,890.9z"/>
		</g>
		<g>
			<path fill="#30323D" d="M1353.4,890.9c-5,0-10-1.7-14.2-5.1c-9.6-7.9-11.1-22-3.2-31.7l85-104.2l-85-104.2
				c-7.9-9.6-6.4-23.8,3.2-31.7c9.6-7.9,23.8-6.4,31.7,3.2l96.5,118.4c6.7,8.3,6.7,20.2,0,28.4l-96.5,118.4
				C1366.4,888.1,1360,890.9,1353.4,890.9z"/>
		</g>
	</g>
	<g>
		<path fill="#30323D" d="M917.3,1286.4H582.7c-35.1,0-63.7-28.6-63.7-63.7V277.3c0-35.1,28.6-63.7,63.7-63.7h334.6
			c35.1,0,63.7,28.6,63.7,63.7v945.4C981,1257.8,952.4,1286.4,917.3,1286.4z M582.7,258.6c-10.3,0-18.7,8.4-18.7,18.7v945.4
			c0,10.3,8.4,18.7,18.7,18.7h334.6c10.3,0,18.7-8.4,18.7-18.7V277.3c0-10.3-8.4-18.7-18.7-18.7H582.7z"/>
	</g>
	<g>
		<g>
			<g>
				<path fill="#5b2cff" d="M398.1,1068.7h-97.7c-22.7,0-41.2-18.4-41.2-41.2v-555c0-22.7,18.4-41.2,41.2-41.2h97.7
					c22.7,0,41.2,18.4,41.2,41.2v555C439.2,1050.3,420.8,1068.7,398.1,1068.7z"/>
			</g>
		</g>
		<g>
			<g>
				<path fill="#30323D" d="M1199.6,1091.2h-97.7c-35.1,0-63.7-28.6-63.7-63.7v-555c0-35.1,28.6-63.7,63.7-63.7h97.7
					c35.1,0,63.7,28.6,63.7,63.7v555C1263.3,1062.6,1234.8,1091.2,1199.6,1091.2z M1101.9,453.8c-10.3,0-18.7,8.4-18.7,18.7v555
					c0,10.3,8.4,18.7,18.7,18.7h97.7c10.3,0,18.7-8.4,18.7-18.7v-555c0-10.3-8.4-18.7-18.7-18.7H1101.9z"/>
			</g>
			<g>
				<path fill="#30323D" d="M398.1,1091.2h-97.7c-35.1,0-63.7-28.6-63.7-63.7v-555c0-35.1,28.6-63.7,63.7-63.7h97.7
					c35.1,0,63.7,28.6,63.7,63.7v555C461.7,1062.6,433.2,1091.2,398.1,1091.2z M300.4,453.8c-10.3,0-18.7,8.4-18.7,18.7v555
					c0,10.3,8.4,18.7,18.7,18.7h97.7c10.3,0,18.7-8.4,18.7-18.7v-555c0-10.3-8.4-18.7-18.7-18.7H300.4z"/>
			</g>
		</g>
	</g>
</g>
</svg>
