
<svg version="1.1" id="Layer_1" xmlns="http://www.w3.org/2000/svg" xmlns:xlink="http://www.w3.org/1999/xlink" x="0px" y="0px"
	 viewBox="0 0 1500 1500" enable-background="new 0 0 1500 1500" xml:space="preserve">
<g>
	<g>
		<path fill="#30323D" d="M750,1472.5c-97.5,0-192.1-19.1-281.2-56.8c-86-36.4-163.3-88.5-229.6-154.8
			c-66.3-66.3-118.4-143.6-154.8-229.6C46.6,942.1,27.5,847.5,27.5,750s19.1-192.1,56.8-281.2c36.4-86,88.5-163.3,154.8-229.6
			c66.3-66.3,143.6-118.4,229.6-154.8C557.9,46.6,652.5,27.5,750,27.5s192.1,19.1,281.2,56.8c86,36.4,163.3,88.5,229.6,154.8
			c66.3,66.3,118.4,143.6,154.8,229.6c37.7,89.1,56.8,183.7,56.8,281.2c0,49-4.9,98-14.7,145.6c-2.5,12.2-14.4,20-26.6,17.5
			c-12.2-2.5-20-14.4-17.5-26.6c9.1-44.6,13.8-90.6,13.8-136.6c0-373.6-303.9-677.5-677.5-677.5S72.5,376.4,72.5,750
			s303.9,677.5,677.5,677.5c52.2,0,104.2-6,154.5-17.7c12.1-2.8,24.2,4.7,27,16.8c2.8,12.1-4.7,24.2-16.8,27
			C861.1,1466.2,805.6,1472.5,750,1472.5z"/>
	</g>
	<g>
		<path fill="#30323D" d="M949.4,772.5H750c-12.4,0-22.5-10.1-22.5-22.5V368.6c0-12.4,10.1-22.5,22.5-22.5s22.5,10.1,22.5,22.5
			v358.9h176.9c12.4,0,22.5,10.1,22.5,22.5S961.8,772.5,949.4,772.5z"/>
	</g>
	<g>
		<g>
			<rect x="1022.4" y="1217.7" fill="#5b2cff" width="249.6" height="35.6"/>
			<rect x="1106.2" y="1041" fill="#5b2cff" width="82" height="9.3"/>
			<path fill="#5b2cff" d="M1147.2,844.3c-167.3,0-302.8,135.6-302.8,302.8S979.9,1450,1147.2,1450s302.8-135.6,302.8-302.8
				S1314.4,844.3,1147.2,844.3z M1317,1275.8c0,12.4-10.1,22.5-22.5,22.5H999.9c-12.4,0-22.5-10.1-22.5-22.5v-203.1
				c0-12.4,10.1-22.5,22.5-22.5h61.3v-31.8c0-12.4,10.1-22.5,22.5-22.5h127c12.4,0,22.5,10.1,22.5,22.5v31.8h61.3
				c12.4,0,22.5,10.1,22.5,22.5V1275.8z"/>
		</g>
		<path fill="#5b2cff" d="M1210.7,1095.2h-127h-61.3v77.5H1272v-77.5H1210.7z M1181.3,1160.4H1113c-12.4,0-22.5-10.1-22.5-22.5
			s10.1-22.5,22.5-22.5h68.2c12.4,0,22.5,10.1,22.5,22.5S1193.7,1160.4,1181.3,1160.4z"/>
	</g>
	<g>
		<path fill="#30323D" d="M1147.2,1472.5c-86.9,0-168.6-33.8-230.1-95.3c-61.4-61.4-95.3-143.1-95.3-230s33.8-168.6,95.3-230
			c61.4-61.4,143.1-95.3,230.1-95.3s168.6,33.8,230.1,95.3c61.4,61.4,95.3,143.1,95.3,230s-33.8,168.6-95.3,230
			C1315.8,1438.7,1234.1,1472.5,1147.2,1472.5z M1147.2,866.8c-154.6,0-280.3,125.8-280.3,280.3s125.8,280.3,280.3,280.3
			c154.6,0,280.3-125.8,280.3-280.3S1301.7,866.8,1147.2,866.8z"/>
	</g>
</g>
</svg>
