
<svg xmlns="http://www.w3.org/2000/svg" xmlns:xlink="http://www.w3.org/1999/xlink" x="0px" y="0px"
	 viewBox="0 0 1500 1500" enable-background="new 0 0 1500 1500" xml:space="preserve">
<g>
	<g>
		<path fill="#30323D" d="M668.1,1138.7c-58.3,0-114.8-16.3-163.4-47.1c-14.3-9-20.7-26-16-42.3c4.7-16.3,19.1-27.3,35.8-27.3
			c1.7,0,3.4,0.1,5,0.3c5.6,0.7,11.4,1,17.2,1c8.5,0,16.9-0.7,25.3-2.1c-14.5-14.3-25.5-31.9-32.1-51.6c-1.9-5.7-2.4-11.8-1.5-17.6
			c-21.2-23.7-33.1-54.3-33.1-86.1c0-8.7,2.9-16.7,7.8-23.2c-12.5-35.3-8.9-74.6,10.8-108.3c6.7-11.5,19.2-18.7,32.5-18.7
			c11.2,0,21.8,5,29,13.6c32.3,39.1,76.1,65.9,125,77.1c2.5-14.5,7.5-28.5,14.8-41.2c11.9-20.8,29.9-38,52-49.9
			c19.7-10.6,41.7-16.3,63.7-16.3c31.9,0,62.3,11.6,86.2,32.7c1.6,0.2,3.3,0.4,4.9,0.4c7.3,0,15.1-2.5,23.9-7.7c0,0,0.1,0,0.1-0.1
			c5.8-3.4,12.3-5.1,18.9-5.1c20.8,0,37.7,16.9,37.7,37.7c0,34.5-20.9,67.1-41.5,87.6c-1.2,74.3-31.1,147.2-82.8,201.5
			C831.7,1105.9,753.4,1138.7,668.1,1138.7z M555.2,1068.3c34.9,16.7,73.4,25.5,112.9,25.5c72.9,0,139.6-27.9,187.9-78.6
			c46-48.3,71.6-113.9,70.4-179.9c-0.1-6.7,2.8-13.2,7.9-17.5c13.4-11.5,26.9-30.1,31.8-47.8c-11.4,4.9-22.5,7.3-33.8,7.3
			c-7.2,0-14.6-1-21.8-3.1c-3.6-1-6.9-2.9-9.6-5.5c-16.2-15.8-37.4-24.5-59.7-24.5c-14.5,0-29.1,3.8-42.3,10.9
			c-29.6,15.9-46.3,44.7-44.8,76.9c0.3,6.6-2.3,13-7.2,17.5c-4.9,4.5-11.5,6.6-18,5.8c-34.5-4.2-67.5-14.8-98.1-31.5
			c-27.4-15-51.8-34.2-72.5-57.3c-10.4,23.8-9.5,50.4,2.7,73.1c3.5,6.4,3.6,14,0.5,20.5c-2.3,4.7-6.1,8.5-10.8,10.6
			c1.3,22.6,11.8,44,29.4,59.1c4.8,4.1,7.6,10.1,7.8,16.4c0.1,4.6-1.2,9.1-3.7,13c8.4,21.9,25.6,39.5,47.6,48.7
			c8.2,3.4,13.6,11.3,13.9,20.2s-4.8,17.1-12.8,20.9C608.5,1060.5,581.9,1067.1,555.2,1068.3z"/>
	</g>
	<g>
		<g>
			<path fill="#5b2cff" d="M432.8,370.6H50V141.7c0-1.1,0.9-2,2-2h380.8V370.6z"/>
		</g>
		<g>
			<path fill="#30323D" d="M432.8,393.1H50c-12.4,0-22.5-10.1-22.5-22.5V141.7c0-13.5,11-24.5,24.5-24.5h380.8
				c12.4,0,22.5,10.1,22.5,22.5v230.8C455.3,383,445.2,393.1,432.8,393.1z M72.5,348.1h337.8V162.2H72.5V348.1z"/>
		</g>
		<g>
			<path fill="#30323D" d="M1450,393.1H489c-12.4,0-22.5-10.1-22.5-22.5V139.7c0-12.4,10.1-22.5,22.5-22.5h959
				c13.5,0,24.5,11,24.5,24.5v228.8C1472.5,383,1462.4,393.1,1450,393.1z M511.5,348.1h916V162.2h-916V348.1z"/>
		</g>
	</g>
	<g>
		<path fill="#30323D" d="M1448,1382.8H52c-13.5,0-24.5-11-24.5-24.5V477.6c0-12.4,10.1-22.5,22.5-22.5h1400
			c12.4,0,22.5,10.1,22.5,22.5v880.7C1472.5,1371.8,1461.5,1382.8,1448,1382.8z M72.5,1337.8h1355V500.1H72.5V1337.8z"/>
	</g>
</g>
</svg>
