
<svg version="1.1" id="Layer_1" xmlns="http://www.w3.org/2000/svg" xmlns:xlink="http://www.w3.org/1999/xlink" x="0px" y="0px"
	 viewBox="0 0 1500 1500" enable-background="new 0 0 1500 1500" xml:space="preserve">
<g>
	<g>
		<path fill="#5b2cff" d="M750,1450L750,1450c-27.6,0-49.9-22.3-49.9-49.9V99.9c0-27.6,22.3-49.9,49.9-49.9h0
			c27.6,0,49.9,22.3,49.9,49.9v1300.2C799.9,1427.7,777.6,1450,750,1450z"/>
	</g>
	<g>
		<g>
			<path fill="#30323D" d="M326.5,988.3c-5,0-10-1.7-14.2-5.1c-9.6-7.9-11.1-22-3.2-31.7L473.4,750L309.1,548.5
				c-7.9-9.6-6.4-23.8,3.2-31.7c9.6-7.9,23.8-6.4,31.7,3.2l175.9,215.8c6.7,8.3,6.7,20.2,0,28.4L344,980
				C339.5,985.4,333,988.3,326.5,988.3z"/>
		</g>
		<g>
			<path fill="#30323D" d="M1173.5,988.3c-6.5,0-13-2.8-17.5-8.3L980.1,764.2c-6.7-8.3-6.7-20.2,0-28.4L1156,520
				c7.9-9.6,22-11.1,31.7-3.2c9.6,7.9,11.1,22,3.2,31.7L1026.6,750l164.3,201.5c7.9,9.6,6.4,23.8-3.2,31.7
				C1183.5,986.6,1178.5,988.3,1173.5,988.3z"/>
		</g>
	</g>
	<g>
		<g>
			<path fill="#30323D" d="M1407.5,1405.2H890.7c-12.4,0-22.5-10.1-22.5-22.5s10.1-22.5,22.5-22.5h516.8c9.7,0,17.5-7.9,17.5-17.5
				V157.3c0-9.7-7.9-17.5-17.5-17.5h-517c-12.4,0-22.5-10.1-22.5-22.5s10.1-22.5,22.5-22.5h517c34.5,0,62.5,28.1,62.5,62.5v1185.4
				C1470.1,1377.2,1442,1405.2,1407.5,1405.2z"/>
		</g>
		<g>
			<path fill="#30323D" d="M615,1405.2H92.5c-34.5,0-62.5-28.1-62.5-62.5V157.3c0-34.5,28.1-62.5,62.5-62.5H616
				c12.4,0,22.5,10.1,22.5,22.5s-10.1,22.5-22.5,22.5H92.5c-9.7,0-17.5,7.9-17.5,17.5v1185.4c0,9.7,7.9,17.5,17.5,17.5H615
				c12.4,0,22.5,10.1,22.5,22.5S627.5,1405.2,615,1405.2z"/>
		</g>
	</g>
	<g>
		<path fill="#30323D" d="M750,1472.5c-39.9,0-72.4-32.5-72.4-72.4V99.9c0-39.9,32.5-72.4,72.4-72.4s72.4,32.5,72.4,72.4v1300.2
			C822.4,1440,789.9,1472.5,750,1472.5z M750,72.5c-15.1,0-27.4,12.3-27.4,27.4v1300.2c0,15.1,12.3,27.4,27.4,27.4
			s27.4-12.3,27.4-27.4V99.9C777.4,84.8,765.1,72.5,750,72.5z"/>
	</g>
</g>
</svg>
