
<svg xmlns="http://www.w3.org/2000/svg" xmlns:xlink="http://www.w3.org/1999/xlink" x="0px" y="0px"
	 viewBox="0 0 1500 1500" enable-background="new 0 0 1500 1500" xml:space="preserve">
<g>
	<g>
		<path fill="#5b2cff" d="M1129.1,564.7v370.6l295.1,170.4c11.5,6.6,25.9-1.7,25.9-14.9V409.3c0-13.3-14.4-21.6-25.9-14.9
			L1129.1,564.7z"/>
	</g>
	<g>
		<path fill="#30323D" d="M1088.7,1312H90.3c-34.6,0-62.8-28.2-62.8-62.8V250.8c0-34.6,28.2-62.8,62.8-62.8h998.4
			c34.6,0,62.8,28.2,62.8,62.8v998.4C1151.6,1283.8,1123.4,1312,1088.7,1312z M90.3,233c-9.8,0-17.8,8-17.8,17.8v998.4
			c0,9.8,8,17.8,17.8,17.8h998.4c9.8,0,17.8-8,17.8-17.8V250.8c0-9.8-8-17.8-17.8-17.8H90.3z"/>
	</g>
	<g>
		<path fill="#30323D" d="M1432.7,1130.5C1432.7,1130.5,1432.7,1130.5,1432.7,1130.5c-6.9,0-13.8-1.9-19.8-5.4l-295.1-170.4
			c-7-4-11.2-11.4-11.2-19.5V564.7c0-8,4.3-15.5,11.3-19.5l295.1-170.4c6.1-3.5,12.9-5.3,19.8-5.3c21.9,0,39.8,17.8,39.8,39.8v681.5
			c0,10.9-4.3,21.1-12.2,28.7C1452.8,1126.5,1443,1130.5,1432.7,1130.5z M1151.6,922.3l275.9,159.3V418.4l-275.9,159.3V922.3z"/>
	</g>
	<g>
		<g>
			<path fill="#30323D" d="M823.6,1001.4H693.3c-12.4,0-22.5-10.1-22.5-22.5c0-12.4,10.1-22.5,22.5-22.5h107.8V848.3
				c0-12.4,10.1-22.5,22.5-22.5s22.5,10.1,22.5,22.5v130.6C846.1,991.3,836.1,1001.4,823.6,1001.4z"/>
		</g>
		<g>
			<path fill="#30323D" d="M823.6,673.5c-12.4,0-22.5-10.1-22.5-22.5V543.6h-108c-12.4,0-22.5-10.1-22.5-22.5s10.1-22.5,22.5-22.5
				h130.5c12.4,0,22.5,10.1,22.5,22.5V651C846.1,663.5,836.1,673.5,823.6,673.5z"/>
		</g>
		<g>
			<path fill="#30323D" d="M355.4,673.8c-12.4,0-22.5-10.1-22.5-22.5V521.1c0-12.4,10.1-22.5,22.5-22.5h129
				c12.4,0,22.5,10.1,22.5,22.5c0,12.4-10.1,22.5-22.5,22.5H377.9v107.7C377.9,663.8,367.8,673.8,355.4,673.8z"/>
		</g>
		<g>
			<path fill="#30323D" d="M485.5,1001.4H355.4c-12.4,0-22.5-10.1-22.5-22.5V848.3c0-12.4,10.1-22.5,22.5-22.5s22.5,10.1,22.5,22.5
				v108.1h107.6c12.4,0,22.5,10.1,22.5,22.5S497.9,1001.4,485.5,1001.4z"/>
		</g>
		<g>
			<path fill="#30323D" d="M823.6,1001.4c-5.7,0-11.4-2.1-15.7-6.4L627,818.1c-8.9-8.7-9-22.9-0.4-31.8c8.7-8.9,22.9-9,31.8-0.4
				l180.9,176.9c8.9,8.7,9,22.9,0.4,31.8C835.3,999.1,829.5,1001.4,823.6,1001.4z"/>
		</g>
		<g>
			<path fill="#30323D" d="M536.3,720.5c-5.7,0-11.4-2.1-15.7-6.4L339.7,537.2c-8.9-8.7-9-22.9-0.4-31.8c8.7-8.9,22.9-9,31.8-0.4
				l180.9,176.9c8.9,8.7,9,22.9,0.4,31.8C548,718.2,542.2,720.5,536.3,720.5z"/>
		</g>
		<g>
			<path fill="#30323D" d="M355.4,1001.4c-5.8,0-11.7-2.3-16.1-6.8c-8.7-8.9-8.5-23.1,0.4-31.8l181-177c8.9-8.7,23.1-8.5,31.8,0.4
				c8.7,8.9,8.5,23.1-0.4,31.8l-181,177C366.8,999.3,361.1,1001.4,355.4,1001.4z"/>
		</g>
		<g>
			<path fill="#30323D" d="M642.6,720.6c-5.8,0-11.7-2.3-16.1-6.8c-8.7-8.9-8.5-23.1,0.4-31.8l181-177c8.9-8.7,23.1-8.5,31.8,0.4
				c8.7,8.9,8.5,23.1-0.4,31.8l-181,177C654,718.5,648.3,720.6,642.6,720.6z"/>
		</g>
	</g>
</g>
</svg>
