<?xml version="1.0" encoding="utf-8"?>
<!-- Generator: Adobe Illustrator 19.0.0, SVG Export Plug-In . SVG Version: 6.00 Build 0)  -->
<svg version="1.1" id="Layer_1" xmlns="http://www.w3.org/2000/svg" xmlns:xlink="http://www.w3.org/1999/xlink" x="0px" y="0px"
	 viewBox="270 -470 1500 1500" style="enable-background:new 270 -470 1500 1500;" xml:space="preserve">
<g>
	<ellipse style="fill:#5b2cff;" cx="1015.8" cy="848.9" rx="180" ry="138"/>
	<g>
		<path style="fill:#30323D;" d="M1661.9,188.3c-16.9,0-30.6-13.7-30.6-30.6c0-179.6-69.9-348.5-197-475.5
			c-11.9-11.9-11.9-31.3,0-43.2c11.9-11.9,31.3-11.9,43.2,0c138.6,138.5,214.9,322.7,214.9,518.7
			C1692.4,174.6,1678.8,188.3,1661.9,188.3z"/>
	</g>
	<g>
		<path style="fill:#30323D;" d="M378.1,188.3c-16.9,0-30.6-13.7-30.6-30.6c0-196,76.3-380.2,214.9-518.7
			c11.9-11.9,31.3-11.9,43.2,0s11.9,31.3,0,43.2c-127,127-197,295.9-197,475.5C408.8,174.6,395,188.3,378.1,188.3z"/>
	</g>
	<g>
		<path style="fill:#30323D;" d="M1111.8-198c-16.9,0-30.6-13.7-30.6-30.6v-102.7c0-33.7-27.4-61.1-61.1-61.1
			c-33.7,0-61.1,27.4-61.1,61.1v102.7c0,16.9-13.7,30.6-30.6,30.6s-30.6-13.6-30.6-30.6v-102.7c0-67.4,54.8-122.3,122.3-122.3
			s122.3,54.8,122.3,122.3v102.7C1142.4-211.7,1128.6-198,1111.8-198z"/>
	</g>
	<g>
		<path style="fill:#30323D;" d="M1020,1013.6c-118,0-214-96-214-214c0-16.9,13.7-30.6,30.6-30.6s30.6,13.7,30.6,30.6
			c0,84.2,68.6,152.8,152.8,152.8s152.8-68.6,152.8-152.8c0-16.9,13.7-30.6,30.6-30.6c16.9,0,30.6,13.7,30.6,30.6
			C1234.1,917.6,1138.1,1013.6,1020,1013.6z"/>
	</g>
	<path style="fill:#5b2cff;" d="M1020-230.7c-209.2,0-379.3,170.1-379.3,379.3v192c0,148.4-178.3,384.2-178.3,384.2
		c-7.3,6.2-11.3,15-11.3,24.2c0,17.4,14.2,31.6,31.6,31.6h1074.5c17.4,0,31.6-14.2,31.6-31.6c0-9.2-4-18-11.1-24
		c-90.6-100.3-178.6-236.1-178.6-384.4v-192C1399.4-60.6,1229.3-230.7,1020-230.7L1020-230.7z"/>
	<path style="fill:#30323D;" d="M1539.6,830.2H500.4c-50.6,0-91.7-41.1-91.7-91.7c0-26.8,11.7-52.2,32.1-69.7
		c96.3-81.4,151.3-199.9,151.3-325.3V157.7c0-236,192-427.9,427.9-427.9s427.9,192,427.9,427.9v185.7c0,125.5,55,243.9,150.8,324.9
		c20.9,17.9,32.6,43.3,32.6,70.1C1631.4,789,1590.3,830.2,1539.6,830.2z M1020-209c-202.3,0-366.8,164.5-366.8,366.8v185.7
		c0,143.5-62.8,278.9-172.4,371.6c-7,6-10.9,14.5-10.9,23.4c0,16.9,13.7,30.6,30.6,30.6h1039.2c16.9,0,30.6-13.7,30.6-30.6
		c0-8.9-3.9-17.4-10.7-23.2c-109.8-92.9-172.7-228.3-172.7-371.8V157.7C1386.9-44.5,1222.4-209,1020-209L1020-209z"/>
</g>
</svg>
