
<svg version="1.1" id="Layer_1" xmlns="http://www.w3.org/2000/svg" xmlns:xlink="http://www.w3.org/1999/xlink" x="0px" y="0px"
	 viewBox="0 0 1500 1500" enable-background="new 0 0 1500 1500" xml:space="preserve">
<g>
	<g>
		<polygon fill="#5b2cff" points="1361.7,492.1 798.7,492.1 701.3,492.1 138.3,492.1 50,683.2 701.3,683.2 798.7,683.2 1450,683.2
					"/>
	</g>
	<g>
		<path fill="#30323D" d="M1450,705.7H50c-7.7,0-14.8-3.9-19-10.4s-4.7-14.6-1.5-21.6l88.3-191.1c3.7-8,11.7-13.1,20.4-13.1h1223.3
			c8.8,0,16.7,5.1,20.4,13.1l88.3,191.1c3.2,7,2.7,15.1-1.5,21.6S1457.7,705.7,1450,705.7z M85.2,660.7h1329.6l-67.5-146.1H152.7
			L85.2,660.7z"/>
	</g>
	<g>
		<g>
			<path fill="#30323D" d="M750.1,1209.9c-109.6,0-198.7-89.2-198.7-198.7s89.2-198.7,198.7-198.7c109.6,0,198.7,89.2,198.7,198.7
				S859.6,1209.9,750.1,1209.9z M750.1,857.4c-84.8,0-153.7,69-153.7,153.7c0,84.8,69,153.7,153.7,153.7s153.7-69,153.7-153.7
				C903.8,926.4,834.8,857.4,750.1,857.4z"/>
		</g>
		<g>
			<g>
				<g>
					<path fill="#30323D" d="M842.5,987.2h-44.7c-12.4,0-22.5-10.1-22.5-22.5s10.1-22.5,22.5-22.5h44.7c12.4,0,22.5,10.1,22.5,22.5
						S855,987.2,842.5,987.2z"/>
				</g>
				<g>
					<path fill="#30323D" d="M702.3,987.2h-44.7c-12.4,0-22.5-10.1-22.5-22.5s10.1-22.5,22.5-22.5h44.7c12.4,0,22.5,10.1,22.5,22.5
						S714.7,987.2,702.3,987.2z"/>
				</g>
			</g>
			<g>
				<path fill="#30323D" d="M701,1063.5h98.2c4.2,0,6.6,4.8,4,8.1c-15.3,19.2-58.6,61.6-106.2,0
					C694.4,1068.3,696.9,1063.5,701,1063.5z"/>
			</g>
		</g>
	</g>
	<g>
		<path fill="#30323D" d="M1361.8,409.2H138.3c-12.4,0-22.5-10.1-22.5-22.5V176.6c0-34.7,28.3-63,63-63h1142.5c34.7,0,63,28.3,63,63
			v210.1C1384.3,399.2,1374.2,409.2,1361.8,409.2z M160.8,364.2h1178.4V176.6c0-9.9-8.1-18-18-18H178.8c-9.9,0-18,8.1-18,18V364.2z"
			/>
	</g>
	<g>
		<path fill="#30323D" d="M1321.3,1386.4H178.8c-34.7,0-63-28.3-63-63V683.2c0-12.4,10.1-22.5,22.5-22.5h1223.4
			c12.4,0,22.5,10.1,22.5,22.5v640.1C1384.3,1358.1,1356,1386.4,1321.3,1386.4z M160.8,705.7v617.6c0,9.9,8.1,18,18,18h1142.5
			c9.9,0,18-8.1,18-18V705.7H160.8z"/>
	</g>
</g>
</svg>
