
<svg version="1.1" id="Layer_1" xmlns="http://www.w3.org/2000/svg" xmlns:xlink="http://www.w3.org/1999/xlink" x="0px" y="0px"
	 viewBox="0 0 1500 1500" enable-background="new 0 0 1500 1500" xml:space="preserve">
<g>
	<g>
		<path fill="#5b2cff" d="M264.2,925.2v313.8c0,22.5,18.2,40.8,40.8,40.8h890.1c22.5,0,40.8-18.2,40.8-40.8V439.1L799.5,842.8
			l-263-122.2L264.2,925.2z"/>
	</g>
	<g>
		<path fill="#30323D" d="M1195.1,1302.2H304.9c-34.9,0-63.3-28.4-63.3-63.3V261.1c0-34.9,28.4-63.3,63.3-63.3h890.1
			c34.9,0,63.3,28.4,63.3,63.3v977.9C1258.3,1273.8,1229.9,1302.2,1195.1,1302.2z M304.9,242.8c-10.1,0-18.3,8.2-18.3,18.3v977.9
			c0,10.1,8.2,18.3,18.3,18.3h890.1c10.1,0,18.3-8.2,18.3-18.3V261.1c0-10.1-8.2-18.3-18.3-18.3H304.9z"/>
	</g>
	<g>
		<path fill="#30323D" d="M264.2,947.7c-6.8,0-13.6-3.1-18-9c-7.5-9.9-5.5-24,4.5-31.5L523,702.7c6.6-5,15.5-5.9,23-2.4l249.3,115.8
			l425.3-393.5c9.1-8.4,23.4-7.9,31.8,1.2c8.4,9.1,7.9,23.4-1.2,31.8L814.7,859.3c-6.7,6.2-16.5,7.7-24.8,3.9L539.2,746.7
			L277.7,943.2C273.7,946.2,268.9,947.7,264.2,947.7z"/>
	</g>
	<g>
		<path fill="#30323D" d="M491.3,561.5c-53.3,0-96.6-43.3-96.6-96.6c0-53.3,43.3-96.6,96.6-96.6c53.3,0,96.6,43.3,96.6,96.6
			C587.9,518.2,544.5,561.5,491.3,561.5z M491.3,413.3c-28.5,0-51.6,23.2-51.6,51.6s23.2,51.6,51.6,51.6h0
			c28.5,0,51.6-23.2,51.6-51.6C542.9,436.4,519.7,413.3,491.3,413.3z"/>
	</g>
	<g>
		<g>
			<path fill="#30323D" d="M149.5,894.6c-6.5,0-13-2.8-17.5-8.3L32.6,764.2c-6.7-8.3-6.7-20.2,0-28.4l99.5-122.1
				c7.9-9.6,22-11.1,31.7-3.2c9.6,7.9,11.1,22,3.2,31.7L79,750L167,857.9c7.9,9.6,6.4,23.8-3.2,31.7
				C159.6,892.9,154.5,894.6,149.5,894.6z"/>
		</g>
		<g>
			<path fill="#30323D" d="M1350.5,894.6c-5,0-10-1.7-14.2-5.1c-9.6-7.9-11.1-22-3.2-31.7L1421,750L1333,642.1
				c-7.9-9.6-6.4-23.8,3.2-31.7c9.6-7.9,23.8-6.4,31.7,3.2l99.5,122.1c6.7,8.3,6.7,20.2,0,28.4l-99.5,122.1
				C1363.5,891.7,1357,894.6,1350.5,894.6z"/>
		</g>
	</g>
</g>
</svg>
