<svg xmlns="http://www.w3.org/2000/svg" x="0px" y="0px"
	 viewBox="0 0 1500 1500" enable-background="new 0 0 1500 1500" xml:space="preserve">
<g>
	<g>
		<g>
			<g>
				<path fill="#1D39D6" d="M997.3,429.4H50V221.9c0-23.9,19.4-43.3,43.3-43.3h904V429.4z"/>
			</g>
		</g>
		<g>
			<g>
				<path fill="#5b2cff" d="M997.3,451.9H50c-12.4,0-22.5-10.1-22.5-22.5V221.9c0-36.3,29.5-65.8,65.8-65.8h904
					c12.4,0,22.5,10.1,22.5,22.5v250.8C1019.8,441.8,1009.7,451.9,997.3,451.9z M72.5,406.9h902.3V201.1H93.3
					c-11.5,0-20.8,9.3-20.8,20.8V406.9z"/>
			</g>
			<g>
				<path fill="#5b2cff" d="M1450,451.9h-343.1c-12.4,0-22.5-10.1-22.5-22.5V178.6c0-12.4,10.1-22.5,22.5-22.5h299.8
					c36.3,0,65.8,29.5,65.8,65.8v207.5C1472.5,441.8,1462.4,451.9,1450,451.9z M1129.4,406.9h298.1v-185c0-11.5-9.3-20.8-20.8-20.8
					h-277.3V406.9z"/>
			</g>
		</g>
	</g>
	<g>
		<g>
			<g>
				<g>
					<path fill="#5b2cff" d="M792.5,803c4.4,4.6,6.6,10.6,6.6,18.2v229.1c0,7.6-2.3,13.7-6.8,18.3c-4.6,4.7-10.5,7-17.8,7
						c-7.6,0-13.5-2.3-18-7c-4.4-4.7-6.6-10.8-6.6-18.3v-96.4H609.1v96.4c0,7.6-2.3,13.7-6.8,18.3c-4.6,4.7-10.6,7-18.1,7
						c-7.3,0-13.2-2.3-17.8-7c-4.6-4.7-6.8-10.8-6.8-18.3V821.2c0-7.5,2.2-13.6,6.6-18.2c4.4-4.5,10.4-6.8,18-6.8
						c7.5,0,13.6,2.3,18.1,6.8c4.5,4.6,6.8,10.6,6.8,18.2v92.1H750v-92.1c0-7.5,2.2-13.6,6.6-18.2c4.4-4.5,10.4-6.8,18-6.8
						C782.1,796.2,788.1,798.5,792.5,803z"/>
				</g>
				<g>
					<path fill="#5b2cff" d="M865.2,1075.4c-2.9,2-6.2,3-9.8,3c-4.5,0-8.5-1.5-12-4.6c-3.5-3-5.2-6.9-5.2-11.7c0-2,0.3-4,1-6.1
						l78.4-245.8c1.4-4.3,3.5-7.4,6.4-9.5c2.9-2,6.2-3,9.8-3c4.5,0,8.5,1.5,12,4.6c3.5,3,5.2,6.9,5.2,11.7c0,2-0.3,4-1,6.1
						L871.6,1066C870.3,1070.2,868.1,1073.4,865.2,1075.4z"/>
				</g>
			</g>
			<g>
				<g>
					<path fill="#5b2cff" d="M486.8,1031.4c-6.2,0-12.3-2.5-16.7-7.4l-64.5-71.6c-7.7-8.6-7.7-21.6,0-30.1l64.5-71.6
						c8.3-9.2,22.5-10,31.8-1.7c9.2,8.3,10,22.5,1.7,31.8l-50.9,56.5l50.9,56.5c8.3,9.2,7.6,23.5-1.7,31.8
						C497.5,1029.5,492.1,1031.4,486.8,1031.4z"/>
				</g>
				<g>
					<path fill="#5b2cff" d="M1013.2,1031.4c-5.4,0-10.7-1.9-15-5.8c-9.2-8.3-10-22.5-1.7-31.8l50.9-56.5l-50.9-56.5
						c-8.3-9.2-7.6-23.5,1.7-31.8c9.2-8.3,23.5-7.6,31.8,1.7l64.5,71.6c7.7,8.6,7.7,21.6,0,30.1l-64.5,71.6
						C1025.5,1028.9,1019.4,1031.4,1013.2,1031.4z"/>
				</g>
			</g>
		</g>
		<g>
			<path fill="#5b2cff" d="M1448,1343.9H52c-13.5,0-24.5-11-24.5-24.5V553.3c0-12.4,10.1-22.5,22.5-22.5h1400
				c12.4,0,22.5,10.1,22.5,22.5v766.2C1472.5,1332.9,1461.5,1343.9,1448,1343.9z M72.5,1298.9h1355V575.8H72.5V1298.9z"/>
		</g>
	</g>
</g>
</svg>
