
<svg version="1.1" id="Layer_1" xmlns="http://www.w3.org/2000/svg" xmlns:xlink="http://www.w3.org/1999/xlink" x="0px" y="0px"
	 viewBox="0 0 1500 1500" enable-background="new 0 0 1500 1500" xml:space="preserve">
<g>
	<g>
		<rect x="334.2" y="335.1" fill="#5b2cff" width="207.5" height="207.5"/>
	</g>
	<g>
		<path fill="#30323D" d="M1313.4,1472.5H186.6c-34.5,0-62.6-28.1-62.6-62.6V90.1c0-34.5,28.1-62.6,62.6-62.6h1126.9
			c34.5,0,62.6,28.1,62.6,62.6v1319.8C1376.1,1444.4,1348,1472.5,1313.4,1472.5z M186.6,72.5c-9.7,0-17.6,7.9-17.6,17.6v1319.8
			c0,9.7,7.9,17.6,17.6,17.6h1126.9c9.7,0,17.6-7.9,17.6-17.6V90.1c0-9.7-7.9-17.6-17.6-17.6H186.6z"/>
	</g>
	<g>
		<path fill="#30323D" d="M541.7,565H334.2c-12.4,0-22.5-10.1-22.5-22.5V335.1c0-12.4,10.1-22.5,22.5-22.5h207.5
			c12.4,0,22.5,10.1,22.5,22.5v207.5C564.2,555,554.1,565,541.7,565z M356.7,520h162.5V357.6H356.7V520z"/>
	</g>
	<g>
		<path fill="#30323D" d="M1168.9,357.6H666.2c-12.4,0-22.5-10.1-22.5-22.5s10.1-22.5,22.5-22.5h502.7c12.4,0,22.5,10.1,22.5,22.5
			S1181.4,357.6,1168.9,357.6z"/>
	</g>
	<g>
		<path fill="#30323D" d="M1168.9,565H666.2c-12.4,0-22.5-10.1-22.5-22.5s10.1-22.5,22.5-22.5h502.7c12.4,0,22.5,10.1,22.5,22.5
			S1181.4,565,1168.9,565z"/>
	</g>
	<g>
		<path fill="#30323D" d="M1168.9,772.5H331.1c-12.4,0-22.5-10.1-22.5-22.5s10.1-22.5,22.5-22.5h837.9c12.4,0,22.5,10.1,22.5,22.5
			S1181.4,772.5,1168.9,772.5z"/>
	</g>
	<g>
		<path fill="#30323D" d="M1168.9,980H331.1c-12.4,0-22.5-10.1-22.5-22.5s10.1-22.5,22.5-22.5h837.9c12.4,0,22.5,10.1,22.5,22.5
			S1181.4,980,1168.9,980z"/>
	</g>
	<g>
		<path fill="#30323D" d="M1168.9,1187.4H991.9c-12.4,0-22.5-10.1-22.5-22.5s10.1-22.5,22.5-22.5h177.1c12.4,0,22.5,10.1,22.5,22.5
			S1181.4,1187.4,1168.9,1187.4z"/>
	</g>
</g>
</svg>
