<svg version="1.1" id="Layer_1" xmlns="http://www.w3.org/2000/svg" xmlns:xlink="http://www.w3.org/1999/xlink" x="0px" y="0px"
	 viewBox="500 -500 1500 1500" style="enable-background:new 500 -500 1500 1500;" xml:space="preserve">
<style type="text/css">
	.st0{fill:#5b2cff;}
	.st1{fill:#30323D;}
</style>
<g>
	<path class="st0" d="M819,386.2v238.6c0,20.4,18.9,37,42.2,37h777.6c23.3,0,42.2-16.6,42.2-37V8.3l-387.1,313.9l-233.3-95
		L819,386.2z"/>
</g>
<g>
	<path class="st1" d="M1679,684.2H821c-13.5,0-24.6-11-24.6-24.6v-819.2c0-13.5,11-24.6,24.6-24.6h858c13.5,0,24.6,11,24.6,24.6
		v819.3C1703.5,673.2,1692.5,684.2,1679,684.2z M841.5,639.2h817.1v-778.4H841.5V639.2z"/>
</g>
<g>
	<path class="st1" d="M819,408.7c-7.3,0-14.5-3.6-18.8-10.1c-6.8-10.4-4-24.3,6.4-31.2l241.6-159c6.2-4.1,14-4.8,20.9-2l221,90
		L1666.9-9c9.7-7.8,23.8-6.3,31.6,3.3c7.8,9.7,6.3,23.8-3.3,31.6l-387.1,313.7c-6.4,5.2-15.1,6.5-22.7,3.4L1063,252.5L831.3,405
		C827.5,407.5,823.2,408.7,819,408.7z"/>
</g>
<g>
	<g>
		<g>
			<path class="st1" d="M1341.2-353.8c-5,0-10-1.6-14.1-5l-77.1-62.3l-77.1,62.3c-9.7,7.8-23.8,6.3-31.6-3.4
				c-7.8-9.7-6.3-23.8,3.4-31.6l91.2-73.7c8.3-6.7,20-6.7,28.3,0l91.2,73.7c9.7,7.8,11.2,22,3.4,31.6
				C1354.3-356.6,1347.8-353.8,1341.2-353.8z"/>
		</g>
		<g>
			<path class="st1" d="M1250-304.6c-12.4,0-22.5-10.1-22.5-22.5V-450c0-12.4,10.1-22.5,22.5-22.5s22.5,10.1,22.5,22.5v122.9
				C1272.5-314.7,1262.4-304.6,1250-304.6z"/>
		</g>
		<g>
			<path class="st1" d="M1250-223.5c-12.4,0-22.5-10.1-22.5-22.5v-7.8c0-12.4,10.1-22.5,22.5-22.5s22.5,10.1,22.5,22.5v7.8
				C1272.5-233.6,1262.4-223.5,1250-223.5z"/>
		</g>
	</g>
	<g>
		<g>
			<path class="st1" d="M1250,972.5c-5,0-10-1.7-14.1-5l-91.2-73.7c-9.7-7.8-11.2-22-3.4-31.6c7.8-9.7,22-11.2,31.6-3.4l77.1,62.3
				l77.1-62.3c9.7-7.8,23.8-6.3,31.6,3.4c7.8,9.7,6.3,23.8-3.4,31.6l-91.2,73.7C1260,970.8,1255,972.5,1250,972.5z"/>
		</g>
		<g>
			<path class="st1" d="M1250,972.5c-12.4,0-22.5-10.1-22.5-22.5V827.1c0-12.4,10.1-22.5,22.5-22.5s22.5,10.1,22.5,22.5V950
				C1272.5,962.4,1262.4,972.5,1250,972.5z"/>
		</g>
		<g>
			<path class="st1" d="M1250,776.4c-12.4,0-22.5-10.1-22.5-22.5v-7.8c0-12.4,10.1-22.5,22.5-22.5s22.5,10.1,22.5,22.5v7.8
				C1272.5,766.3,1262.4,776.4,1250,776.4z"/>
		</g>
	</g>
</g>
<g>
	<g>
		<g>
			<path class="st1" d="M646.3,158.8c0,5-1.6,10-5,14.1L579,250l62.3,77.1c7.8,9.7,6.3,23.8-3.4,31.6s-23.8,6.3-31.6-3.4l-73.7-91.2
				c-6.7-8.3-6.7-20,0-28.3l73.7-91.2c7.8-9.7,22-11.2,31.6-3.4C643.5,145.7,646.3,152.2,646.3,158.8z"/>
		</g>
		<g>
			<path class="st1" d="M695.5,250c0,12.4-10.1,22.5-22.5,22.5H550.1c-12.4,0-22.5-10.1-22.5-22.5c0-12.4,10.1-22.5,22.5-22.5H673
				C685.4,227.5,695.5,237.6,695.5,250z"/>
		</g>
		<g>
			<path class="st1" d="M776.6,250c0,12.4-10.1,22.5-22.5,22.5h-7.8c-12.4,0-22.5-10.1-22.5-22.5c0-12.4,10.1-22.5,22.5-22.5h7.8
				C766.5,227.5,776.6,237.6,776.6,250z"/>
		</g>
	</g>
	<g>
		<g>
			<path class="st1" d="M1972.6,250c0,5-1.7,10-5,14.1l-73.7,91.2c-7.8,9.7-22,11.2-31.6,3.4c-9.7-7.8-11.2-22-3.4-31.6l62.3-77.1
				l-62.3-77.1c-7.8-9.7-6.3-23.8,3.4-31.6c9.7-7.8,23.8-6.3,31.6,3.4l73.7,91.2C1970.9,240,1972.6,245,1972.6,250z"/>
		</g>
		<g>
			<path class="st1" d="M1972.6,250c0,12.4-10.1,22.5-22.5,22.5h-122.9c-12.4,0-22.5-10.1-22.5-22.5c0-12.4,10.1-22.5,22.5-22.5
				h122.9C1962.5,227.5,1972.6,237.6,1972.6,250z"/>
		</g>
		<g>
			<path class="st1" d="M1776.5,250c0,12.4-10.1,22.5-22.5,22.5h-7.8c-12.4,0-22.5-10.1-22.5-22.5c0-12.4,10.1-22.5,22.5-22.5h7.8
				C1766.4,227.5,1776.5,237.6,1776.5,250z"/>
		</g>
	</g>
</g>
</svg>
