
<svg version="1.1" id="Layer_1" xmlns="http://www.w3.org/2000/svg" xmlns:xlink="http://www.w3.org/1999/xlink" x="0px" y="0px"
	 viewBox="0 0 1500 1500" enable-background="new 0 0 1500 1500" xml:space="preserve">
<g>
	<g>
		<path fill="#5b2cff" d="M250.9,647.5v205.1H456V647.5H250.9z M399.8,764.5c8.8,8.8,8.8,23,0,31.8c-4.4,4.4-10.2,6.6-15.9,6.6
			s-11.5-2.2-15.9-6.6l-14.5-14.5l-14.5,14.5c-4.4,4.4-10.2,6.6-15.9,6.6c-5.8,0-11.5-2.2-15.9-6.6c-8.8-8.8-8.8-23,0-31.8
			l14.5-14.5l-14.5-14.5c-8.8-8.8-8.8-23,0-31.8c8.8-8.8,23-8.8,31.8,0l14.5,14.5l14.5-14.5c8.8-8.8,23-8.8,31.8,0
			c8.8,8.8,8.8,23,0,31.8L385.3,750L399.8,764.5z"/>
		<path fill="#5b2cff" d="M250.9,1027.3v205.1H456v-205.1H250.9z M415,1115.3l-60.9,60.9c-4.4,4.4-10.2,6.6-15.9,6.6
			c-5.8,0-11.5-2.2-15.9-6.6l-30.4-30.4c-8.8-8.8-8.8-23,0-31.8c8.8-8.8,23-8.8,31.8,0l14.5,14.5l45-45c8.8-8.8,23-8.8,31.8,0
			C423.8,1092.3,423.8,1106.5,415,1115.3z"/>
	</g>
	<g>
		<path fill="#30323D" d="M1409.3,1472.5H90.7c-34.9,0-63.2-28.4-63.2-63.2V90.7c0-34.9,28.4-63.2,63.2-63.2h1318.5
			c34.9,0,63.2,28.4,63.2,63.2v1318.5C1472.5,1444.1,1444.1,1472.5,1409.3,1472.5z M90.7,72.5c-10.1,0-18.2,8.2-18.2,18.2v1318.5
			c0,10.1,8.2,18.2,18.2,18.2h1318.5c10.1,0,18.2-8.2,18.2-18.2V90.7c0-10.1-8.2-18.2-18.2-18.2H90.7z"/>
	</g>
	<g>
		<path fill="#30323D" d="M1248,495.2H250.9c-12.4,0-22.5-10.1-22.5-22.5V267.6c0-12.4,10.1-22.5,22.5-22.5H1248
			c12.4,0,22.5,10.1,22.5,22.5v205.1C1270.5,485.1,1260.5,495.2,1248,495.2z M273.4,450.2h952.1V290.1H273.4V450.2z"/>
	</g>
	<g>
		<path fill="#30323D" d="M1249.1,670H571.7c-12.4,0-22.5-10.1-22.5-22.5s10.1-22.5,22.5-22.5h677.4c12.4,0,22.5,10.1,22.5,22.5
			S1261.5,670,1249.1,670z"/>
	</g>
	<g>
		<path fill="#30323D" d="M456,875H250.9c-12.4,0-22.5-10.1-22.5-22.5V647.5c0-12.4,10.1-22.5,22.5-22.5H456
			c12.4,0,22.5,10.1,22.5,22.5v205.1C478.5,865,468.4,875,456,875z M273.4,830h160.1V670H273.4V830z"/>
	</g>
	<g>
		<path fill="#30323D" d="M1090,772.5H571.7c-12.4,0-22.5-10.1-22.5-22.5s10.1-22.5,22.5-22.5H1090c12.4,0,22.5,10.1,22.5,22.5
			S1102.4,772.5,1090,772.5z"/>
	</g>
	<g>
		<path fill="#30323D" d="M1090,875H571.7c-12.4,0-22.5-10.1-22.5-22.5s10.1-22.5,22.5-22.5H1090c12.4,0,22.5,10.1,22.5,22.5
			S1102.4,875,1090,875z"/>
	</g>
	<g>
		<path fill="#30323D" d="M1249.1,1049.8H571.7c-12.4,0-22.5-10.1-22.5-22.5s10.1-22.5,22.5-22.5h677.4c12.4,0,22.5,10.1,22.5,22.5
			S1261.5,1049.8,1249.1,1049.8z"/>
	</g>
	<g>
		<path fill="#30323D" d="M456,1254.9H250.9c-12.4,0-22.5-10.1-22.5-22.5v-205.1c0-12.4,10.1-22.5,22.5-22.5H456
			c12.4,0,22.5,10.1,22.5,22.5v205.1C478.5,1244.8,468.4,1254.9,456,1254.9z M273.4,1209.9h160.1v-160.1H273.4V1209.9z"/>
	</g>
	<g>
		<path fill="#30323D" d="M1090,1152.3H571.7c-12.4,0-22.5-10.1-22.5-22.5s10.1-22.5,22.5-22.5H1090c12.4,0,22.5,10.1,22.5,22.5
			S1102.4,1152.3,1090,1152.3z"/>
	</g>
	<g>
		<path fill="#30323D" d="M1090,1254.9H571.7c-12.4,0-22.5-10.1-22.5-22.5s10.1-22.5,22.5-22.5H1090c12.4,0,22.5,10.1,22.5,22.5
			S1102.4,1254.9,1090,1254.9z"/>
	</g>
</g>
</svg>
