
<svg version="1.1" id="Layer_1" xmlns="http://www.w3.org/2000/svg" xmlns:xlink="http://www.w3.org/1999/xlink" x="0px" y="0px"
	 viewBox="0 0 1500 1500" enable-background="new 0 0 1500 1500" xml:space="preserve">
<g>
	<g>
		<path fill="#30323D" d="M1312.9,1472.5H187.1c-34.8,0-63.1-28.3-63.1-63.1V90.6c0-34.8,28.3-63.1,63.1-63.1h1125.9
			c34.8,0,63.1,28.3,63.1,63.1v1318.7C1376.1,1444.2,1347.8,1472.5,1312.9,1472.5z M187.1,72.5c-10,0-18.1,8.1-18.1,18.1v1318.7
			c0,10,8.1,18.1,18.1,18.1h1125.9c10,0,18.1-8.1,18.1-18.1V90.6c0-10-8.1-18.1-18.1-18.1H187.1z"/>
	</g>
	<g>
		<g>
			<path fill="#30323D" d="M1100.8,981H399.2c-12.4,0-22.5-10.1-22.5-22.5s10.1-22.5,22.5-22.5h701.5c12.4,0,22.5,10.1,22.5,22.5
				S1113.2,981,1100.8,981z"/>
		</g>
		<g>
			<path fill="#30323D" d="M1100.8,1079.4H399.2c-12.4,0-22.5-10.1-22.5-22.5s10.1-22.5,22.5-22.5h701.5c12.4,0,22.5,10.1,22.5,22.5
				S1113.2,1079.4,1100.8,1079.4z"/>
		</g>
		<g>
			<path fill="#30323D" d="M750,1177.8H399.2c-12.4,0-22.5-10.1-22.5-22.5s10.1-22.5,22.5-22.5H750c12.4,0,22.5,10.1,22.5,22.5
				S762.4,1177.8,750,1177.8z"/>
		</g>
	</g>
	<g>
		<g>
			<path fill="#5b2cff" d="M1099.9,522.9l-62.3-62.9l-242,227.1c-9.9,9.3-24.6,11.6-36.9,5.8l-143.7-68L446,773.7h654.8V523.6
				C1100.5,523.3,1100.2,523.1,1099.9,522.9z"/>
		</g>
	</g>
	<g>
		<g>
			<path fill="#30323D" d="M399.2,748.9c-3.1,0-6.3-0.7-9.3-2c-8.1-3.6-13.2-11.7-13.2-20.5V344.7c0-12.4,10.1-22.5,22.5-22.5h701.5
				c12.4,0,22.5,10.1,22.5,22.5v84.7c0,9.1-5.5,17.3-13.9,20.8c-8.4,3.5-18.1,1.5-24.5-5l-38.7-39c-2.7-2.8-5.9-3.2-7.6-3.2
				c-2.7,0-5.3,1-7.3,2.9l-249,233.8c-6.7,6.3-16.7,7.9-25,3.9l-143-67.7c-1.4-0.7-3-1-4.6-1c-2.6,0-5.1,0.9-7,2.6L414.1,743.3
				C409.9,747,404.6,748.9,399.2,748.9z M421.7,367.2v309.4l151-132.9c10.1-8.9,23.2-13.9,36.8-13.9c8.2,0,16.4,1.9,23.8,5.4
				l129.2,61.1l237.9-223.3c2.3-2.2,4.8-4.2,7.4-5.9H421.7z M1069.2,367.2c3.2,2.1,6.1,4.5,8.9,7.3l0.2,0.2v-7.5H1069.2z"/>
		</g>
		<g>
			<path fill="#30323D" d="M1100.8,796.2H446c-9.4,0-17.7-5.8-21.1-14.6s-0.8-18.7,6.2-24.8L600.2,608c6.7-5.9,16.4-7.3,24.5-3.4
				l143.7,68c1.4,0.7,3,1,4.6,1c2.7,0,5.3-1,7.3-2.9l242-227.1c8.9-8.3,22.8-8.1,31.4,0.6l61.4,62c0.4,0.3,0.8,0.7,1.2,1.1
				c4.5,4.2,7,10.1,7,16.3v250.1C1123.3,786.1,1113.2,796.2,1100.8,796.2z M505.6,751.2h572.6V533l-41.2-41.6l-226,212.1
				c-10.4,9.7-23.9,15.1-38.1,15.1c-8.3,0-16.3-1.8-23.8-5.4l-130.3-61.7L505.6,751.2z"/>
		</g>
	</g>
</g>
</svg>
